{
.appVersion = "3151";
.formatVersion = 3;
DisplayStrings = (
"ロ/_cross ロアロセロエロコロ
/_cross ロ/_cross ロロロ


あいうえおかがきぎくぐけげこご
さざしじすずせぜそぞただちぢつづてでとどなにぬねのはばぱひびぴふぶぷへべぺほぼぽまみむめもやゆよらりるれろわゐゑをん
アイウエオカキクケコ
サシスセソタチツテト
ナニヌネノハヒフヘホ
マミムメモヤユヨ
ラリルレロ"
);
axes = (
{
name = Weight;
tag = wght;
}
);
customParameters = (
{
name = "Enforce Compatibility Check";
value = 1;
},
{
name = fsType;
value = (
);
}
);
date = "2022-05-19 06:17:41 +0000";
familyName = "M PLUS U";
featurePrefixes = (
{
automatic = 1;
code = "languagesystem DFLT dflt;

languagesystem latn dflt;
languagesystem latn AZE;
languagesystem latn CRT;
languagesystem latn KAZ;
languagesystem latn TAT;
languagesystem latn TRK;
languagesystem latn ROM;
languagesystem latn MOL;
languagesystem latn CAT;
";
name = Languagesystems;
},
{
code = "table BASE {
  HorizAxis.BaseTagList     icfb  icft  ideo  romn;
  HorizAxis.BaseScriptList  
                DFLT  ideo   -70   830  -120     0,
                hani  ideo   -70   830  -120     0,
                kana  ideo   -70   830  -120     0,
                latn  romn   -70   830  -120     0,
                cyrl  romn   -70   830  -120     0,
                grek  romn   -70   830  -120     0;

  VertAxis.BaseTagList      icfb  icft  ideo  romn;
  VertAxis.BaseScriptList 
                DFLT  ideo    46   954     0   120,
                hani  ideo    46   954     0   120,
                kana  ideo    46   954     0   120,
                latn  romn    46   954     0   120,
                cyrl  romn    46   954     0   120,
                grek  romn    46   954     0   120;
} BASE;";
name = BASE;
}
);
features = (
{
automatic = 1;
code = "feature locl;
feature sups;
feature frac;
feature ordn;
feature pnum;
feature tnum;
feature case;
feature fwid;
feature vert;
feature vkna;
feature vrt2;
";
tag = aalt;
},
{
automatic = 1;
code = "lookup ccmp_Other_1 {

glyphs = (
{
glyphname = A;
kernLeft = A;
kernRight = A;
lastChange = "2021-05-05 05:27:35 +0000";
layers = (
{
anchors = (
{
name = bottom;
pos = (342,0);
},
{
name = ogonek;
pos = (662,0);
},
{
name = top;
pos = (342,730);
},
{
name = top_ring;
pos = (342,640);
}
);
layerId = "D65C9A1E-0FCA-4B2D-8EDF-9F36CA9182A1";
metricLeft = "=H*.2";
shapes = (
{
closed = 1;
nodes = (
(44,0,l),
(341,711,l),
(343,711,l),
(640,0,l),
(662,0,l),
(356,730,l),
(328,730,l),
(22,0,l)
);
},
{
closed = 1;
nodes = (
(552,237,l),
(552,257,l),
(132,257,l),
(132,237,l)
);
}
);
width = 684;
},
{
anchors = (
{
name = bottom;
pos = (353,0);
},
{
name = ogonek;
pos = (693,0);
},
{
name = top;
pos = (353,730);
},
{
name = top_ring;
pos = (353,610);
}
);
layerId = "9527F797-22C1-480E-A1FE-2CDBEBE1FD4C";
shapes = (
{
closed = 1;
nodes = (
(134,0,l),
(352,636,l),
(354,636,l),
(572,0,l),
(693,0,l),
(428,730,l),
(279,730,l),
(13,0,l)
);
},
{
closed = 1;
nodes = (
(556,183,l),
(556,283,l),
(151,283,l),
(151,183,l)
);
}
);
width = 706;
},
{
anchors = (
{
name = bottom;
pos = (366,0);
},
{
name = ogonek;
pos = (726,0);
},
{
name = top;
pos = (366,730);
},
{
name = top_ring;
pos = (366,585);
}
);
layerId = "9E6B41AB-2970-4C41-8B35-4DBE0D296A43";
metricLeft = "=H*.1";
shapes = (
{
closed = 1;
nodes = (
(226,0,l),
(365,560,l),
(367,560,l),
(506,0,l),
(726,0,l),
(501,730,l),
(231,730,l),
(6,0,l)
);
},
{
closed = 1;
nodes = (
(561,135,l),
(561,300,l),
(171,300,l),
(171,135,l)
);
}
);
width = 732;
}
);
metricLeft = "=H*.15";
metricRight = "=|";
unicode = 65;
},
{
glyphname = AE;
kernLeft = A;
kernRight = E;
lastChange = "2021-05-05 05:27:35 +0000";
layers = (
{
anchors = (
{
name = bottom;
pos = (491,0);
},
{
name = top;
pos = (491,730);
}
);
layerId = "D65C9A1E-0FCA-4B2D-8EDF-9F36CA9182A1";
shapes = (
{
closed = 1;
nodes = (
(45,0,l),
(460,710,l),
(472,710,l),
(472,0,l),
(832,0,l),
(832,20,l),
(492,20,l),
(492,380,l),
(809,380,l),
(809,400,l),
(492,400,l),
(492,710,l),
(832,710,l),
(832,730,l),
(449,730,l),
(22,0,l)
);
},
{
closed = 1;
nodes = (
(482,237,l),
(482,257,l),
(178,257,l),
(178,237,l)
);
}
);
width = 915;
},
{
anchors = (
{
name = bottom;
pos = (484,0);
},
{
name = top;
pos = (484,730);
}
);
layerId = "9527F797-22C1-480E-A1FE-2CDBEBE1FD4C";
shapes = (
{
closed = 1;
nodes = (
(135,0,l),
(417,640,l),
(438,640,l),
(438,0,l),
(843,0,l),
(843,98,l),
(548,98,l),
(548,334,l),
(822,334,l),
(822,430,l),
(548,430,l),
(548,632,l),
(843,632,l),
(843,730,l),
(347,730,l),
(13,0,l)
);
},
{
closed = 1;
nodes = (
(498,183,l),
(498,283,l),
(169,283,l),
(169,183,l)
);
}
);
width = 911;
},
{
anchors = (
{
name = bottom;
pos = (479,0);
},
{
name = top;
pos = (479,730);
}
);
layerId = "9E6B41AB-2970-4C41-8B35-4DBE0D296A43";
shapes = (
{
closed = 1;
nodes = (
(226,0,l),
(376,570,l),
(406,570,l),
(406,0,l),
(856,0,l),
(856,160,l),
(606,160,l),
(606,298,l),
(836,298,l),
(836,452,l),
(606,452,l),
(606,570,l),
(856,570,l),
(856,730,l),
(246,730,l),
(6,0,l)
);
},
{
closed = 1;
nodes = (
(516,135,l),
(516,300,l),
(161,300,l),
(161,135,l)
);
}
);
width = 907;
}
);
metricLeft = "=A";
metricRight = "=E";
unicode = 198;
},
{
glyphname = B;
kernLeft = H;
kernRight = B;
lastChange = "2021-05-05 05:27:35 +0000";
layers = (
{
layerId = "9527F797-22C1-480E-A1FE-2CDBEBE1FD4C";
metricRight = "=|*.45";
shapes = (
{
closed = 1;
nodes = (
(315,0,ls),
(523,0,o),
(625,67,o),
(625,205,cs),
(625,308,o),
(568,370,o),
(458,387,c),
(458,389,l),
(545,407,o),
(595,466,o),
(595,553,cs),
(595,672,o),
(502,730,o),
(310,730,cs),
(85,730,l),
(85,0,l)
);
},
{
closed = 1;
nodes = (
(195,98,l),
(195,632,l),
(315,632,ls),
(435,632,o),
(485,603,o),
(485,534,cs),
(485,463,o),
(432,430,o),
(315,430,cs),
(140,430,l),
(140,335,l),
(315,335,ls),
(451,335,o),
(513,298,o),
(513,216,cs),
(513,134,o),
(452,98,o),
(315,98,cs)
);
}
);
width = 663;
},
{
layerId = "9E6B41AB-2970-4C41-8B35-4DBE0D296A43";
metricRight = "=|*.5";
shapes = (
{
closed = 1;
nodes = (
(330,0,ls),
(538,0,o),
(650,73,o),
(650,210,cs),
(650,310,o),
(591,370,o),
(480,384,c),
(480,386,l),
(574,400,o),
(630,461,o),
(630,550,cs),
(630,668,o),
(523,730,o),
(320,730,cs),
(60,730,l),
(60,0,l)
);
},
{
closed = 1;
nodes = (
(260,155,l),
(260,575,l),
(330,575,ls),
(403,575,o),
(430,558,o),
(430,512,cs),
(430,466,o),
(404,450,o),
(330,450,cs),
(160,450,l),
(160,300,l),
(330,300,ls),
(410,300,o),
(445,278,o),
(445,228,cs),
(445,178,o),
(409,155,o),
(330,155,cs)
);
}
);
width = 680;
},
{
layerId = "D65C9A1E-0FCA-4B2D-8EDF-9F36CA9182A1";
metricRight = "=|*.4";
shapes = (
{
closed = 1;
nodes = (
(300,0,ls),
(504,0,o),
(600,63,o),
(600,200,cs),
(600,308,o),
(541,369,o),
(416,390,c),
(416,392,l),
(512,414,o),
(560,467,o),
(560,555,cs),
(560,673,o),
(473,730,o),
(300,730,cs),
(110,730,l),
(110,0,l)
);
},
{
closed = 1;
nodes = (
(130,20,l),
(130,710,l),
(300,710,ls),
(463,710,o),
(540,660,o),
(540,555,cs),
(540,450,o),
(463,400,o),
(300,400,cs),
(120,400,l),
(120,380,l),
(300,380,ls),
(493,380,o),
(580,324,o),
(580,200,cs),
(580,76,o),
(493,20,o),
(300,20,cs)
);
}
);
width = 644;
}
);
metricLeft = "=H";
metricRight = "=|*.5";
unicode = 66;
},
{
glyphname = C;
kernLeft = O;
kernRight = C;
lastChange = "2021-05-05 05:27:35 +0000";
layers = (
{
anchors = (
{
name = bottom;
pos = (413,0);
},
{
name = cedi;
pos = (351,0);
},
{
name = top;
pos = (413,730);
}
);
layerId = "D65C9A1E-0FCA-4B2D-8EDF-9F36CA9182A1";
shapes = (
{
closed = 1;
nodes = (
(510,-10,o),
(588,12,o),
(655,55,c),
(644,72,l),
(580,31,o),
(506,10,o),
(424,10,cs),
(212,10,o),
(75,150,o),
(75,365,cs),
(75,580,o),
(212,720,o),
(424,720,cs),
(506,720,o),
(580,699,o),
(644,658,c),
(655,675,l),
(588,718,o),
(510,740,o),
(424,740,cs),
(201,740,o),
(55,591,o),
(55,365,cs),
(55,139,o),
(201,-10,o),
(424,-10,cs)
);
}
);
width = 721;
},
{
anchors = (
{
name = bottom;
pos = (405,0);
},
{
name = cedi;
pos = (331,0);
},
{
name = top;
pos = (405,730);
}
);
layerId = "9527F797-22C1-480E-A1FE-2CDBEBE1FD4C";
shapes = (
{
closed = 1;
nodes = (
(512,-10,o),
(593,10,o),
(663,50,c),
(636,148,l),
(566,109,o),
(498,90,o),
(427,90,cs),
(260,90,o),
(157,194,o),
(157,365,cs),
(157,536,o),
(260,640,o),
(427,640,cs),
(499,640,o),
(568,621,o),
(636,582,c),
(663,680,l),
(593,720,o),
(512,740,o),
(423,740,cs),
(186,740,o),
(43,599,o),
(43,365,cs),
(43,131,o),
(186,-10,o),
(423,-10,cs)
);
}
);
width = 714;
},
{
anchors = (
{
name = bottom;
pos = (396,0);
},
{
name = cedi;
pos = (311,0);
},
{
name = top;
pos = (396,730);
}
);
layerId = "9E6B41AB-2970-4C41-8B35-4DBE0D296A43";
shapes = (
{
closed = 1;
nodes = (
(514,-10,o),
(597,8,o),
(670,46,c),
(627,216,l),
(555,178,o),
(489,160,o),
(429,160,cs),
(307,160,o),
(238,234,o),
(238,365,cs),
(238,496,o),
(307,570,o),
(429,570,cs),
(489,570,o),
(555,552,o),
(627,514,c),
(670,684,l),
(597,722,o),
(514,740,o),
(421,740,cs),
(170,740,o),
(30,606,o),
(30,365,cs),
(30,124,o),
(170,-10,o),
(421,-10,cs)
);
}
);
width = 706;
}
);
metricLeft = "=O";
metricRight = "=H*.6";
unicode = 67;
},
{
glyphname = D;
kernLeft = H;
kernRight = O;
lastChange = "2021-05-05 05:27:35 +0000";
layers = (
{
anchors = (
{
name = bottom;
pos = (335,0);
},
{
name = center;
pos = (335,365);
},
{
name = top;
pos = (335,730);
}
);
layerId = "D65C9A1E-0FCA-4B2D-8EDF-9F36CA9182A1";
shapes = (
{
closed = 1;
nodes = (
(260,0,ls),
(515,0,o),
(650,126,o),
(650,365,cs),
(650,604,o),
(515,730,o),
(260,730,cs),
(110,730,l),
(110,0,l)
);
},
{
closed = 1;
nodes = (
(130,20,l),
(130,710,l),
(260,710,ls),
(505,710,o),
(630,592,o),
(630,365,cs),
(630,138,o),
(505,20,o),
(260,20,cs)
);
}
);
width = 705;
},
{
anchors = (
{
name = bottom;
pos = (335,0);
},
{
name = center;
pos = (335,365);
},
{
name = top;
pos = (335,730);
}
);
layerId = "9527F797-22C1-480E-A1FE-2CDBEBE1FD4C";
shapes = (
{
closed = 1;
nodes = (
(285,0,ls),
(542,0,o),
(665,118,o),
(665,365,cs),
(665,612,o),
(542,730,o),
(285,730,cs),
(85,730,l),
(85,0,l)
);
},
{
closed = 1;
nodes = (
(195,100,l),
(195,630,l),
(292,630,ls),
(474,630,o),
(553,550,o),
(553,365,cs),
(553,180,o),
(474,100,o),
(292,100,cs)
);
}
);
width = 708;
},
{
anchors = (
{
name = bottom;
pos = (335,0);
},
{
name = center;
pos = (335,365);
},
{
name = top;
pos = (335,730);
}
);
layerId = "9E6B41AB-2970-4C41-8B35-4DBE0D296A43";
shapes = (
{
closed = 1;
nodes = (
(310,0,ls),
(569,0,o),
(680,109,o),
(680,365,cs),
(680,621,o),
(569,730,o),
(310,730,c),
(60,730,l),
(60,0,l)
);
},
{
closed = 1;
nodes = (
(260,160,l),
(260,570,l),
(323,570,ls),
(441,570,o),
(475,524,o),
(475,365,cs),
(475,206,o),
(441,160,o),
(323,160,cs)
);
}
);
width = 710;
}
);
metricLeft = "=H";
metricRight = "=O";
unicode = 68;
},
{
glyphname = Eth;
kernLeft = f;
kernRight = O;
lastChange = "2021-05-05 05:27:35 +0000";
layers = (
{
anchors = (
{
name = bottom;
pos = (387,0);
},
{
name = center;
pos = (387,365);
},
{
name = top;
pos = (387,730);
}
);
layerId = "D65C9A1E-0FCA-4B2D-8EDF-9F36CA9182A1";
shapes = (
{
closed = 1;
nodes = (
(446,355,l),
(446,375,l),
(36,375,l),
(36,355,l)
);
},
{
pos = (51,0);
ref = D;
}
);
width = 756;
},
{
anchors = (
{
name = bottom;
pos = (399,0);
},
{
name = center;
pos = (399,365);
},
{
name = top;
pos = (399,730);
}
);
layerId = "9527F797-22C1-480E-A1FE-2CDBEBE1FD4C";
shapes = (
{
closed = 1;
nodes = (
(446,320,l),
(446,410,l),
(28,410,l),
(28,320,l)
);
},
{
alignment = -1;
pos = (56,0);
ref = D;
}
);
width = 764;
},
{
anchors = (
{
name = bottom;
pos = (408,0);
},
{
name = center;
pos = (408,365);
},
{
name = top;
pos = (408,730);
}
);
layerId = "9E6B41AB-2970-4C41-8B35-4DBE0D296A43";
shapes = (
{
closed = 1;
nodes = (
(445,295,l),
(445,435,l),
(19,435,l),
(19,295,l)
);
},
{
pos = (59,0);
ref = D;
}
);
width = 769;
}
);
metricLeft = "=f*1.2";
metricRight = "=O";
unicode = 208;
},
{
glyphname = E;
kernLeft = H;
kernRight = E;
lastChange = "2021-05-05 05:27:35 +0000";
layers = (
{
anchors = (
{
name = bottom;
pos = (325,0);
},
{
name = ogonek;
pos = (540,0);
},
{
name = top;
pos = (325,730);
},
{
name = topleft;
pos = (-12,730);
}
);
layerId = "D65C9A1E-0FCA-4B2D-8EDF-9F36CA9182A1";
metricRight = "=H*.75";
shapes = (
{
closed = 1;
nodes = (
(540,0,l),
(540,20,l),
(130,20,l),
(130,380,l),
(520,380,l),
(520,400,l),
(130,400,l),
(130,710,l),
(540,710,l),
(540,730,l),
(110,730,l),
(110,0,l)
);
}
);
width = 623;
},
{
anchors = (
{
name = bottom;
pos = (325,0);
},
{
name = ogonek;
pos = (565,0);
},
{
name = top;
pos = (325,730);
},
{
name = topleft;
pos = (-1,730);
}
);
layerId = "9527F797-22C1-480E-A1FE-2CDBEBE1FD4C";
metricRight = "=H*.8";
shapes = (
{
closed = 1;
nodes = (
(565,0,l),
(565,98,l),
(195,98,l),
(195,334,l),
(545,334,l),
(545,430,l),
(195,430,l),
(195,632,l),
(565,632,l),
(565,730,l),
(85,730,l),
(85,0,l)
);
}
);
width = 633;
},
{
anchors = (
{
name = bottom;
pos = (325,0);
},
{
name = ogonek;
pos = (590,0);
},
{
name = top;
pos = (325,730);
},
{
name = topleft;
pos = (10,730);
}
);
layerId = "9E6B41AB-2970-4C41-8B35-4DBE0D296A43";
metricRight = "=H*.85";
shapes = (
{
closed = 1;
nodes = (
(590,0,l),
(590,160,l),
(260,160,l),
(260,298,l),
(570,298,l),
(570,452,l),
(260,452,l),
(260,570,l),
(590,570,l),
(590,730,l),
(60,730,l),
(60,0,l)
);
}
);
width = 641;
}
);
metricLeft = "=H";
metricRight = "=H*.85";
unicode = 69;
},
{
glyphname = Schwa;
kernLeft = O;
kernRight = O;
lastChange = "2021-05-05 05:27:35 +0000";
layers = (
{
layerId = "D65C9A1E-0FCA-4B2D-8EDF-9F36CA9182A1";
shapes = (
{
closed = 1;
nodes = (
(257,740,o),
(159,716,o),
(83,676,c),
(92,658,l),
(167,698,o),
(262,720,o),
(353,720,cs),
(573,720,o),
(693,596,o),
(693,365,c),
(693,365,l),
(693,139,o),
(579,10,o),
(383,10,cs),
(187,10,o),
(73,139,o),
(73,365,c),
(57,348,l),
(703,348,l),
(703,368,l),
(52,368,l),
(52,366,o),
(52,366,o),
(52,365,cs),
(52,129,o),
(175,-10,o),
(383,-10,cs),
(591,-10,o),
(713,129,o),
(713,365,cs),
(713,606,o),
(585,740,o),
(353,740,cs)
);
}
);
width = 768;
},
{
layerId = "9527F797-22C1-480E-A1FE-2CDBEBE1FD4C";
shapes = (
{
closed = 1;
nodes = (
(245,740,o),
(151,720,o),
(82,688,c),
(107,588,l),
(181,622,o),
(263,640,o),
(343,640,cs),
(524,640,o),
(611,559,o),
(611,396,c),
(611,354,l),
(611,180,o),
(531,90,o),
(381,90,cs),
(231,90,o),
(151,180,o),
(151,354,c),
(110,314,l),
(643,314,l),
(643,413,l),
(44,413,l),
(42,403,o),
(41,377,o),
(41,358,cs),
(41,126,o),
(166,-10,o),
(378,-10,cs),
(593,-10,o),
(721,130,o),
(721,365,cs),
(721,606,o),
(584,740,o),
(336,740,cs)
);
}
);
width = 764;
},
{
layerId = "9E6B41AB-2970-4C41-8B35-4DBE0D296A43";
shapes = (
{
closed = 1;
nodes = (
(232,740,o),
(142,725,o),
(81,701,c),
(116,536,l),
(187,559,o),
(257,570,o),
(332,570,cs),
(474,570,o),
(529,531,o),
(529,430,cs),
(529,343,ls),
(529,215,o),
(483,160,o),
(379,160,cs),
(275,160,o),
(229,215,o),
(229,343,c),
(162,290,l),
(583,290,l),
(583,448,l),
(34,448,l),
(31,433,o),
(29,384,o),
(29,351,cs),
(29,123,o),
(156,-10,o),
(372,-10,cs),
(594,-10,o),
(729,131,o),
(729,365,cs),
(729,606,o),
(582,740,o),
(319,740,cs)
);
}
);
width = 759;
}
);
metricLeft = "=O*.95";
metricRight = "=O";
unicode = 399;
},
{
glyphname = F;
kernLeft = H;
kernRight = F;
lastChange = "2021-05-05 05:27:35 +0000";
layers = (
{
layerId = "D65C9A1E-0FCA-4B2D-8EDF-9F36CA9182A1";
metricRight = "=H*.55";
shapes = (
{
closed = 1;
nodes = (
(130,0,l),
(130,355,l),
(550,355,l),
(550,375,l),
(130,375,l),
(130,710,l),
(570,710,l),
(570,730,l),
(110,730,l),
(110,0,l)
);
}
);
width = 631;
},
{
layerId = "9527F797-22C1-480E-A1FE-2CDBEBE1FD4C";
metricRight = "=H*.65";
shapes = (
{
closed = 1;
nodes = (
(195,0,l),
(195,309,l),
(565,309,l),
(565,407,l),
(195,407,l),
(195,630,l),
(585,630,l),
(585,730,l),
(85,730,l),
(85,0,l)
);
}
);
width = 640;
},
{
layerId = "9E6B41AB-2970-4C41-8B35-4DBE0D296A43";
metricRight = "=H*.75";
shapes = (
{
closed = 1;
nodes = (
(260,0,l),
(260,270,l),
(580,270,l),
(580,430,l),
(260,430,l),
(260,565,l),
(600,565,l),
(600,730,l),
(60,730,l),
(60,0,l)
);
}
);
width = 645;
}
);
metricLeft = "=H";
metricRight = "=H*.75";
unicode = 70;
},
{
glyphname = G;
kernLeft = O;
kernRight = G;
lastChange = "2021-05-05 05:27:35 +0000";
layers = (
{
anchors = (
{
name = bottom;
pos = (393,0);
},
{
name = top;
pos = (393,730);
}
);
layerId = "D65C9A1E-0FCA-4B2D-8EDF-9F36CA9182A1";
shapes = (
{
closed = 1;
nodes = (
(527,-10,o),
(627,11,o),
(695,44,c),
(695,395,l),
(345,395,l),
(345,375,l),
(675,375,l),
(675,45,l),
(686,62,l),
(621,30,o),
(524,10,o),
(437,10,cs),
(212,10,o),
(75,145,o),
(75,365,cs),
(75,585,o),
(212,720,o),
(437,720,cs),
(522,720,o),
(595,701,o),
(657,663,c),
(667,680,l),
(602,720,o),
(525,740,o),
(437,740,cs),
(201,740,o),
(55,596,o),
(55,365,cs),
(55,134,o),
(201,-10,o),
(437,-10,cs)
);
}
);
width = 789;
},
{
anchors = (
{
name = bottom;
pos = (379,0);
},
{
name = top;
pos = (379,730);
}
);
layerId = "9E6B41AB-2970-4C41-8B35-4DBE0D296A43";
shapes = (
{
closed = 1;
nodes = (
(538,-10,o),
(637,11,o),
(710,50,c),
(710,446,l),
(350,446,l),
(350,281,l),
(510,281,l),
(510,131,l),
(533,177,l),
(502,161,o),
(477,155,o),
(438,155,cs),
(306,155,o),
(240,225,o),
(240,365,cs),
(240,503,o),
(305,575,o),
(427,575,cs),
(493,575,o),
(571,554,o),
(621,524,c),
(663,684,l),
(599,721,o),
(519,740,o),
(427,740,cs),
(178,740,o),
(30,600,o),
(30,365,cs),
(30,128,o),
(181,-10,o),
(438,-10,cs)
);
}
);
width = 761;
},
{
anchors = (
{
name = bottom;
pos = (386,0);
},
{
name = top;
pos = (386,730);
}
);
layerId = "9527F797-22C1-480E-A1FE-2CDBEBE1FD4C";
shapes = (
{
closed = 1;
nodes = (
(532,-10,o),
(632,11,o),
(703,47,c),
(703,421,l),
(348,421,l),
(348,327,l),
(593,327,l),
(593,88,l),
(610,127,l),
(563,103,o),
(501,90,o),
(438,90,cs),
(262,90,o),
(161,190,o),
(161,365,cs),
(161,538,o),
(262,640,o),
(432,640,cs),
(506,640,o),
(582,621,o),
(639,587,c),
(665,682,l),
(602,720,o),
(520,740,o),
(432,740,cs),
(190,740,o),
(43,598,o),
(43,365,cs),
(43,131,o),
(191,-10,o),
(438,-10,cs)
);
}
);
width = 775;
}
);
metricLeft = "=O";
metricRight = "=H*.85";
unicode = 71;
},
{
glyphname = H;
kernLeft = H;
kernRight = H;
lastChange = "2021-05-05 05:27:35 +0000";
layers = (
{
anchors = (
{
name = bottom;
pos = (365,0);
},
{
name = center;
pos = (365,365);
},
{
name = top;
pos = (365,730);
},
{
name = topleft;
pos = (15,730);
}
);
layerId = "D65C9A1E-0FCA-4B2D-8EDF-9F36CA9182A1";
shapes = (
{
closed = 1;
nodes = (
(620,0,l),
(620,730,l),
(600,730,l),
(600,0,l)
);
},
{
closed = 1;
nodes = (
(130,0,l),
(130,730,l),
(110,730,l),
(110,0,l)
);
},
{
closed = 1;
nodes = (
(610,380,l),
(610,400,l),
(120,400,l),
(120,380,l)
);
}
);
width = 730;
},
{
anchors = (
{
name = bottom;
pos = (365,0);
},
{
name = center;
pos = (365,365);
},
{
name = top;
pos = (365,730);
},
{
name = topleft;
pos = (10,730);
}
);
layerId = "9527F797-22C1-480E-A1FE-2CDBEBE1FD4C";
shapes = (
{
closed = 1;
nodes = (
(645,0,l),
(645,730,l),
(535,730,l),
(535,0,l)
);
},
{
closed = 1;
nodes = (
(195,0,l),
(195,730,l),
(85,730,l),
(85,0,l)
);
},
{
closed = 1;
nodes = (
(590,332,l),
(590,432,l),
(140,432,l),
(140,332,l)
);
}
);
width = 730;
},
{
anchors = (
{
name = bottom;
pos = (365,0);
},
{
name = center;
pos = (365,365);
},
{
name = top;
pos = (365,730);
},
{
name = topleft;
pos = (5,730);
}
);
layerId = "9E6B41AB-2970-4C41-8B35-4DBE0D296A43";
shapes = (
{
closed = 1;
nodes = (
(670,0,l),
(670,730,l),
(470,730,l),
(470,0,l)
);
},
{
closed = 1;
nodes = (
(260,0,l),
(260,730,l),
(60,730,l),
(60,0,l)
);
},
{
closed = 1;
nodes = (
(570,290,l),
(570,460,l),
(160,460,l),
(160,290,l)
);
}
);
width = 730;
}
);
metricRight = "=|";
unicode = 72;
},
{
glyphname = Hbar;
kernLeft = W;
kernRight = W;
lastChange = "2021-05-05 05:27:35 +0000";
layers = (
{
layerId = "D65C9A1E-0FCA-4B2D-8EDF-9F36CA9182A1";
shapes = (
{
closed = 1;
nodes = (
(775,586,l),
(775,606,l),
(35,606,l),
(35,586,l)
);
},
{
pos = (35,0);
ref = H;
}
);
width = 810;
},
{
layerId = "9527F797-22C1-480E-A1FE-2CDBEBE1FD4C";
shapes = (
{
closed = 1;
nodes = (
(804,551,l),
(804,641,l),
(30,641,l),
(30,551,l)
);
},
{
alignment = -1;
pos = (42,0);
ref = H;
}
);
width = 834;
},
{
layerId = "9E6B41AB-2970-4C41-8B35-4DBE0D296A43";
shapes = (
{
closed = 1;
nodes = (
(834,526,l),
(834,666,l),
(24,666,l),
(24,526,l)
);
},
{
pos = (49,0);
ref = H;
}
);
width = 858;
}
);
metricLeft = "=W";
metricRight = "=|";
unicode = 294;
},
{
glyphname = I;
kernLeft = I;
kernRight = I;
lastChange = "2021-05-05 05:27:35 +0000";
layers = (
{
anchors = (
{
name = bottom;
pos = (131,0);
},
{
name = ogonek;
pos = (141,0);
},
{
name = top;
pos = (131,730);
},
{
name = topleft;
pos = (36,730);
}
);
layerId = "D65C9A1E-0FCA-4B2D-8EDF-9F36CA9182A1";
shapes = (
{
closed = 1;
nodes = (
(141,0,l),
(141,730,l),
(121,730,l),
(121,0,l)
);
}
);
width = 262;
},
{
anchors = (
{
name = bottom;
pos = (151,0);
},
{
name = ogonek;
pos = (208,0);
},
{
name = top;
pos = (151,730);
},
{
name = topleft;
pos = (26,730);
}
);
layerId = "9527F797-22C1-480E-A1FE-2CDBEBE1FD4C";
shapes = (
{
closed = 1;
nodes = (
(208,0,l),
(208,730,l),
(94,730,l),
(94,0,l)
);
}
);
width = 302;
},
{
anchors = (
{
name = bottom;
pos = (171,0);
},
{
name = ogonek;
pos = (276,0);
},
{
name = top;
pos = (171,730);
},
{
name = topleft;
pos = (14,730);
}
);
layerId = "9E6B41AB-2970-4C41-8B35-4DBE0D296A43";
shapes = (
{
closed = 1;
nodes = (
(276,0,l),
(276,730,l),
(66,730,l),
(66,0,l)
);
}
);
width = 342;
}
);
metricLeft = "=H*1.1";
metricRight = "=|";
unicode = 73;
},
{
glyphname = J;
kernLeft = J;
kernRight = U;
lastChange = "2021-05-05 05:27:35 +0000";
layers = (
{
anchors = (
{
name = bottom;
pos = (301,0);
},
{
name = top;
pos = (301,730);
}
);
layerId = "9527F797-22C1-480E-A1FE-2CDBEBE1FD4C";
metricLeft = "=H*.2";
shapes = (
{
closed = 1;
nodes = (
(439,-10,o),
(527,72,o),
(527,250,cs),
(527,730,l),
(415,730,l),
(415,270,ls),
(415,143,o),
(365,92,o),
(241,92,cs),
(174,92,o),
(114,107,o),
(39,142,c),
(17,40,l),
(85,6,o),
(161,-10,o),
(247,-10,cs)
);
}
);
width = 604;
},
{
anchors = (
{
name = bottom;
pos = (297,0);
},
{
name = top;
pos = (297,730);
}
);
layerId = "9E6B41AB-2970-4C41-8B35-4DBE0D296A43";
metricLeft = "=H*.1";
shapes = (
{
closed = 1;
nodes = (
(454,-10,o),
(546,72,o),
(546,260,cs),
(546,730,l),
(341,730,l),
(341,300,ls),
(341,195,o),
(316,165,o),
(230,165,cs),
(180,165,o),
(132,175,o),
(36,204,c),
(6,29,l),
(78,4,o),
(161,-10,o),
(243,-10,cs)
);
}
);
width = 600;
},
{
anchors = (
{
name = bottom;
pos = (309,0);
},
{
name = top;
pos = (309,730);
}
);
layerId = "D65C9A1E-0FCA-4B2D-8EDF-9F36CA9182A1";
metricLeft = "=H*.3";
shapes = (
{
closed = 1;
nodes = (
(429,-10,o),
(513,72,o),
(513,240,cs),
(513,730,l),
(493,730,l),
(493,240,ls),
(493,83,o),
(418,10,o),
(256,10,cs),
(173,10,o),
(101,29,o),
(44,67,c),
(33,50,l),
(94,10,o),
(170,-10,o),
(256,-10,cs)
);
}
);
width = 612;
}
);
metricLeft = "=H*.05";
metricRight = "=U";
unicode = 74;
},
{
glyphname = K;
kernLeft = H;
kernRight = K;
lastChange = "2021-05-05 05:27:35 +0000";
layers = (
{
anchors = (
{
name = bottom;
pos = (325,0);
},
{
name = top;
pos = (325,730);
}
);
layerId = "D65C9A1E-0FCA-4B2D-8EDF-9F36CA9182A1";
metricRight = "=H*.3";
shapes = (
{
closed = 1;
nodes = (
(130,0,l),
(130,376,l),
(132,376,l),
(618,0,l),
(650,0,l),
(146,390,l),
(640,730,l),
(606,730,l),
(132,404,l),
(130,404,l),
(130,730,l),
(110,730,l),
(110,0,l)
);
}
);
width = 683;
},
{
anchors = (
{
name = bottom;
pos = (338,0);
},
{
name = top;
pos = (338,730);
}
);
layerId = "9527F797-22C1-480E-A1FE-2CDBEBE1FD4C";
metricRight = "=H*.25";
shapes = (
{
closed = 1;
nodes = (
(195,0,l),
(195,351,l),
(197,351,l),
(545,0,l),
(685,0,l),
(306,382,l),
(675,730,l),
(535,730,l),
(197,413,l),
(195,413,l),
(195,730,l),
(85,730,l),
(85,0,l)
);
}
);
width = 706;
},
{
anchors = (
{
name = bottom;
pos = (350,0);
},
{
name = top;
pos = (350,730);
}
);
layerId = "9E6B41AB-2970-4C41-8B35-4DBE0D296A43";
metricRight = "=H*.2";
shapes = (
{
closed = 1;
nodes = (
(260,0,l),
(260,335,l),
(262,335,l),
(490,0,l),
(720,0,l),
(465,375,l),
(710,730,l),
(480,730,l),
(262,415,l),
(260,415,l),
(260,730,l),
(60,730,l),
(60,0,l)
);
}
);
width = 732;
}
);
metricLeft = "=H";
metricRight = "=H*.2";
unicode = 75;
},
{
glyphname = L;
kernLeft = H;
kernRight = L;
lastChange = "2021-05-05 05:27:35 +0000";
layers = (
{
anchors = (
{
name = bottom;
pos = (322,0);
},
{
name = center;
pos = (322,375);
},
{
name = pdcenter;
pos = (525,375);
},
{
name = top;
pos = (322,730);
},
{
name = topright;
pos = (593,730);
}
);
layerId = "D65C9A1E-0FCA-4B2D-8EDF-9F36CA9182A1";
metricRight = "=H*.5";
shapes = (
{
closed = 1;
nodes = (
(580,0,l),
(580,20,l),
(130,20,l),
(130,730,l),
(110,730,l),
(110,0,l)
);
}
);
width = 635;
},
{
anchors = (
{
name = bottom;
pos = (318,0);
},
{
name = center;
pos = (318,375);
},
{
name = pdcenter;
pos = (565,375);
},
{
name = top;
pos = (318,730);
},
{
name = topright;
pos = (611,730);
}
);
layerId = "9527F797-22C1-480E-A1FE-2CDBEBE1FD4C";
metricRight = "=H*.45";
shapes = (
{
closed = 1;
nodes = (
(595,0,l),
(595,100,l),
(198,100,l),
(198,730,l),
(85,730,l),
(85,0,l)
);
}
);
width = 633;
},
{
anchors = (
{
name = bottom;
pos = (316,0);
},
{
name = center;
pos = (316,375);
},
{
name = pdcenter;
pos = (605,375);
},
{
name = top;
pos = (316,730);
},
{
name = topright;
pos = (611,730);
}
);
layerId = "9E6B41AB-2970-4C41-8B35-4DBE0D296A43";
metricRight = "=H*.4";
shapes = (
{
closed = 1;
nodes = (
(610,0,l),
(610,170,l),
(265,170,l),
(265,730,l),
(60,730,l),
(60,0,l)
);
}
);
width = 634;
}
);
metricLeft = "=H";
metricRight = "=H*.4";
unicode = 76;
},
{
glyphname = Lslash;
kernLeft = t;
kernRight = L;
lastChange = "2021-05-05 05:27:35 +0000";
layers = (
{
layerId = "D65C9A1E-0FCA-4B2D-8EDF-9F36CA9182A1";
shapes = (
{
closed = 1;
nodes = (
(359,431,l),
(351,449,l),
(21,299,l),
(29,281,l)
);
},
{
pos = (65,0);
ref = L;
}
);
width = 700;
},
{
layerId = "9527F797-22C1-480E-A1FE-2CDBEBE1FD4C";
shapes = (
{
closed = 1;
nodes = (
(445,407,l),
(409,491,l),
(9,323,l),
(45,239,l)
);
},
{
pos = (79,0);
ref = L;
}
);
width = 712;
},
{
layerId = "9E6B41AB-2970-4C41-8B35-4DBE0D296A43";
shapes = (
{
closed = 1;
nodes = (
(531,393,l),
(476,523,l),
(7,337,l),
(62,207,l)
);
},
{
pos = (99,0);
ref = L;
}
);
width = 733;
}
);
metricLeft = "=t*.5";
metricRight = "=L";
unicode = 321;
},
{
glyphname = M;
kernLeft = H;
kernRight = H;
lastChange = "2021-05-05 05:27:35 +0000";
layers = (
{
layerId = "D65C9A1E-0FCA-4B2D-8EDF-9F36CA9182A1";
shapes = (
{
closed = 1;
nodes = (
(130,0,l),
(130,709,l),
(132,709,l),
(428,155,l),
(452,155,l),
(748,709,l),
(750,709,l),
(750,0,l),
(770,0,l),
(770,730,l),
(739,730,l),
(441,174,l),
(439,174,l),
(141,730,l),
(110,730,l),
(110,0,l)
);
}
);
width = 880;
},
{
layerId = "9527F797-22C1-480E-A1FE-2CDBEBE1FD4C";
shapes = (
{
closed = 1;
nodes = (
(195,0,l),
(195,555,l),
(197,555,l),
(388,155,l),
(492,155,l),
(683,555,l),
(685,555,l),
(685,0,l),
(795,0,l),
(795,730,l),
(655,730,l),
(441,283,l),
(439,283,l),
(225,730,l),
(85,730,l),
(85,0,l)
);
}
);
width = 880;
},
{
layerId = "9E6B41AB-2970-4C41-8B35-4DBE0D296A43";
shapes = (
{
closed = 1;
nodes = (
(260,0,l),
(260,420,l),
(262,420,l),
(350,155,l),
(530,155,l),
(618,420,l),
(620,420,l),
(620,0,l),
(820,0,l),
(820,730,l),
(572,730,l),
(441,340,l),
(439,340,l),
(308,730,l),
(60,730,l),
(60,0,l)
);
}
);
width = 880;
}
);
metricLeft = "=H";
metricRight = "=|";
unicode = 77;
},
{
glyphname = N;
kernLeft = H;
kernRight = H;
lastChange = "2021-05-05 05:27:35 +0000";
layers = (
{
anchors = (
{
name = bottom;
pos = (380,0);
},
{
name = top;
pos = (380,730);
}
);
layerId = "D65C9A1E-0FCA-4B2D-8EDF-9F36CA9182A1";
shapes = (
{
closed = 1;
nodes = (
(130,0,l),
(130,709,l),
(132,709,l),
(619,0,l),
(650,0,l),
(650,730,l),
(630,730,l),
(630,21,l),
(628,21,l),
(141,730,l),
(110,730,l),
(110,0,l)
);
}
);
width = 760;
},
{
anchors = (
{
name = bottom;
pos = (375,0);
},
{
name = top;
pos = (375,730);
}
);
layerId = "9527F797-22C1-480E-A1FE-2CDBEBE1FD4C";
shapes = (
{
closed = 1;
nodes = (
(195,0,l),
(195,550,l),
(197,550,l),
(545,0,l),
(665,0,l),
(665,730,l),
(555,730,l),
(555,180,l),
(553,180,l),
(205,730,l),
(85,730,l),
(85,0,l)
);
}
);
width = 750;
},
{
anchors = (
{
name = bottom;
pos = (370,0);
},
{
name = top;
pos = (370,730);
}
);
layerId = "9E6B41AB-2970-4C41-8B35-4DBE0D296A43";
shapes = (
{
closed = 1;
nodes = (
(260,0,l),
(260,390,l),
(262,390,l),
(480,0,l),
(680,0,l),
(680,730,l),
(480,730,l),
(480,340,l),
(478,340,l),
(260,730,l),
(60,730,l),
(60,0,l)
);
}
);
width = 740;
}
);
metricLeft = "=H";
metricRight = "=|";
unicode = 78;
},
{
glyphname = Eng;
kernLeft = H;
kernRight = H;
lastChange = "2021-05-05 05:27:35 +0000";
layers = (
{
anchors = (
{
name = bottom;
pos = (380,0);
},
{
name = top;
pos = (380,730);
}
);
layerId = "D65C9A1E-0FCA-4B2D-8EDF-9F36CA9182A1";
shapes = (
{
closed = 1;
nodes = (
(607,-211,o),
(650,-164,o),
(650,-61,cs),
(650,730,l),
(630,730,l),
(630,21,l),
(628,21,l),
(141,730,l),
(110,730,l),
(110,0,l),
(130,0,l),
(130,709,l),
(132,709,l),
(641,-32,l),
(630,0,l),
(630,-61,ls),
(630,-153,o),
(595,-191,o),
(510,-191,cs),
(485,-191,o),
(459,-186,o),
(437,-177,c),
(430,-196,l),
(454,-205,o),
(483,-211,o),
(510,-211,cs)
);
}
);
width = 760;
},
{
anchors = (
{
name = bottom;
pos = (375,0);
},
{
name = top;
pos = (375,730);
}
);
layerId = "9527F797-22C1-480E-A1FE-2CDBEBE1FD4C";
shapes = (
{
closed = 1;
nodes = (
(613,-221,o),
(665,-163,o),
(665,-26,cs),
(665,730,l),
(555,730,l),
(555,180,l),
(553,180,l),
(205,730,l),
(85,730,l),
(85,0,l),
(195,0,l),
(195,550,l),
(197,550,l),
(571,-41,l),
(557,9,l),
(557,-26,ls),
(557,-97,o),
(531,-126,o),
(467,-126,cs),
(442,-126,o),
(416,-122,o),
(392,-114,c),
(375,-205,l),
(413,-216,o),
(451,-221,o),
(489,-221,cs)
);
}
);
width = 750;
},
{
anchors = (
{
name = bottom;
pos = (370,0);
},
{
name = top;
pos = (370,730);
}
);
layerId = "9E6B41AB-2970-4C41-8B35-4DBE0D296A43";
shapes = (
{
closed = 1;
nodes = (
(625,-229,o),
(680,-169,o),
(680,0,cs),
(680,730,l),
(480,730,l),
(480,340,l),
(478,340,l),
(260,730,l),
(60,730,l),
(60,0,l),
(260,0,l),
(260,390,l),
(262,390,l),
(524,-79,l),
(480,90,l),
(480,0,l),
(480,-55,o),
(468,-70,o),
(425,-70,cs),
(404,-70,o),
(370,-66,o),
(342,-59,c),
(322,-214,l),
(370,-223,o),
(420,-229,o),
(468,-229,cs)
);
}
);
width = 740;
}
);
metricLeft = "=N";
metricRight = "=N";
unicode = 330;
},
{
glyphname = O;
kernLeft = O;
kernRight = O;
lastChange = "2021-05-05 05:27:35 +0000";
layers = (
{
anchors = (
{
name = bottom;
pos = (425,0);
},
{
name = center;
pos = (425,365);
},
{
name = ogonek;
pos = (475,0);
},
{
name = top;
pos = (425,730);
},
{
name = topleft;
pos = (47,730);
},
{
name = topright;
pos = (632,640);
}
);
layerId = "D65C9A1E-0FCA-4B2D-8EDF-9F36CA9182A1";
shapes = (
{
closed = 1;
nodes = (
(645,-10,o),
(795,142,o),
(795,365,cs),
(795,588,o),
(645,740,o),
(425,740,cs),
(205,740,o),
(55,588,o),
(55,365,cs),
(55,142,o),
(205,-10,o),
(425,-10,cs)
);
},
{
closed = 1;
nodes = (
(216,10,o),
(75,153,o),
(75,365,cs),
(75,577,o),
(216,720,o),
(425,720,cs),
(634,720,o),
(775,577,o),
(775,365,cs),
(775,153,o),
(634,10,o),
(425,10,cs)
);
}
);
width = 850;
},
{
anchors = (
{
name = bottom;
pos = (418,0);
},
{
name = center;
pos = (418,365);
},
{
name = ogonek;
pos = (485,0);
},
{
name = top;
pos = (418,730);
},
{
name = topleft;
pos = (36,730);
},
{
name = topright;
pos = (623,650);
}
);
layerId = "9527F797-22C1-480E-A1FE-2CDBEBE1FD4C";
shapes = (
{
closed = 1;
nodes = (
(647,-10,o),
(793,136,o),
(793,365,cs),
(793,594,o),
(647,740,o),
(418,740,cs),
(189,740,o),
(43,594,o),
(43,365,cs),
(43,136,o),
(189,-10,o),
(418,-10,cs)
);
},
{
closed = 1;
nodes = (
(255,90,o),
(156,195,o),
(156,365,cs),
(156,535,o),
(255,640,o),
(418,640,cs),
(580,640,o),
(680,535,o),
(680,365,cs),
(680,195,o),
(580,90,o),
(418,90,cs)
);
}
);
width = 836;
},
{
anchors = (
{
name = bottom;
pos = (410,0);
},
{
name = center;
pos = (410,365);
},
{
name = ogonek;
pos = (493,0);
},
{
name = top;
pos = (410,730);
},
{
name = topleft;
pos = (23,730);
},
{
name = topright;
pos = (622,640);
}
);
layerId = "9E6B41AB-2970-4C41-8B35-4DBE0D296A43";
shapes = (
{
closed = 1;
nodes = (
(649,-10,o),
(790,129,o),
(790,365,cs),
(790,601,o),
(649,740,o),
(410,740,cs),
(171,740,o),
(30,601,o),
(30,365,cs),
(30,129,o),
(171,-10,o),
(410,-10,cs)
);
},
{
closed = 1;
nodes = (
(294,160,o),
(235,229,o),
(235,365,cs),
(235,501,o),
(294,570,o),
(410,570,cs),
(526,570,o),
(585,501,o),
(585,365,cs),
(585,229,o),
(526,160,o),
(410,160,cs)
);
}
);
width = 820;
}
);
metricLeft = "=H*.5";
metricRight = "=|";
unicode = 79;
},
{
glyphname = Oogonek;
kernLeft = O;
kernRight = O;
lastChange = "2021-05-05 05:27:35 +0000";
layers = (
{
layerId = "D65C9A1E-0FCA-4B2D-8EDF-9F36CA9182A1";
shapes = (
{
closed = 1;
nodes = (
(450,-220,o),
(472,-214,o),
(490,-203,c),
(482,-185,l),
(463,-195,o),
(444,-200,o),
(426,-200,cs),
(378,-200,o),
(353,-178,o),
(353,-135,cs),
(353,-91,o),
(389,-26,o),
(515,-1,c),
(510.205,17.22,l),
(374.234,-11.299,o),
(333,-81.495,o),
(333,-135,cs),
(333,-191,o),
(365,-220,o),
(426,-220,cs)
);
},
{
ref = O;
}
);
width = 850;
},
{
layerId = "9527F797-22C1-480E-A1FE-2CDBEBE1FD4C";
shapes = (
{
closed = 1;
nodes = (
(458,-217,o),
(484,-213,o),
(507,-205,c),
(490,-120,l),
(477,-127,o),
(463,-130,o),
(448,-130,cs),
(423,-130,o),
(410,-117,o),
(410,-93,cs),
(410,-67,o),
(445,-19,o),
(505,-2,c),
(398.434,25.767,l),
(338.517,-9.633,o),
(308,-61.707,o),
(308,-107,cs),
(308,-177,o),
(352,-217,o),
(429,-217,cs)
);
},
{
ref = O;
}
);
width = 836;
},
{
layerId = "9E6B41AB-2970-4C41-8B35-4DBE0D296A43";
shapes = (
{
closed = 1;
nodes = (
(498,-220,o),
(522,-217,o),
(545,-210,c),
(530,-75,l),
(515,-81,o),
(496,-85,o),
(482,-85,cs),
(454,-85,o),
(441,-75,o),
(441,-53,cs),
(441,-32,o),
(457,-17,o),
(493,-4,c),
(356.357,46.129,l),
(292.847,0.673,o),
(265,-36.13,o),
(265,-82,cs),
(265,-170,o),
(338,-220,o),
(470,-220,cs)
);
},
{
ref = O;
}
);
width = 820;
},
{
associatedMasterId = "D65C9A1E-0FCA-4B2D-8EDF-9F36CA9182A1";
layerId = "7C8F7773-B51D-431E-A8E8-00FE32D95133";
name = "Apr 30 21, 10:16";
shapes = (
{
closed = 1;
nodes = (
(450,-220,o),
(472,-214,o),
(490,-203,c),
(482,-185,l),
(463,-195,o),
(444,-200,o),
(426,-200,cs),
(378,-200,o),
(353,-178,o),
(353,-135,cs),
(353,-91,o),
(389,-26,o),
(515,-1,c),
(529,10,l),
(514,18,l),
(375,-10,o),
(333,-81,o),
(333,-135,cs),
(333,-191,o),
(365,-220,o),
(426,-220,cs)
);
},
{
ref = O;
}
);
width = 850;
}
);
unicode = 490;
},
{
glyphname = Oslash;
kernLeft = O;
kernRight = O;
lastChange = "2021-05-05 05:27:35 +0000";
layers = (
{
anchors = (
{
name = bottom;
pos = (418,0);
},
{
name = top;
pos = (418,730);
}
);
layerId = "D65C9A1E-0FCA-4B2D-8EDF-9F36CA9182A1";
shapes = (
{
closed = 1;
nodes = (
(205,63,l),
(205,63,l),
(647,655,l),
(647,655,l),
(706,734,l),
(690,746,l),
(631,667,l),
(631,667,l),
(189,75,l),
(189,75,l),
(130,-4,l),
(146,-16,l)
);
},
{
ref = O;
}
);
width = 794;
},
{
anchors = (
{
name = bottom;
pos = (415,0);
},
{
name = top;
pos = (415,730);
}
);
layerId = "9527F797-22C1-480E-A1FE-2CDBEBE1FD4C";
shapes = (
{
closed = 1;
nodes = (
(230,41,l),
(230,41,l),
(670,629,l),
(670,629,l),
(732,713,l),
(659,768,l),
(601,689,l),
(601,689,l),
(161,101,l),
(161,101,l),
(98,18,l),
(171,-38,l)
);
},
{
alignment = -1;
ref = O;
}
);
width = 804;
},
{
anchors = (
{
name = bottom;
pos = (413,0);
},
{
name = top;
pos = (413,730);
}
);
layerId = "9E6B41AB-2970-4C41-8B35-4DBE0D296A43";
shapes = (
{
closed = 1;
nodes = (
(255,28,l),
(243,37,l),
(679,621,l),
(691,612,l),
(753,695,l),
(633,785,l),
(571,702,l),
(583,693,l),
(147,109,l),
(135,118,l),
(73,35,l),
(193,-55,l)
);
},
{
ref = O;
}
);
width = 814;
}
);
unicode = 216;
},
{
glyphname = OE;
kernLeft = O;
kernRight = E;
lastChange = "2021-05-05 05:27:35 +0000";
layers = (
{
layerId = "D65C9A1E-0FCA-4B2D-8EDF-9F36CA9182A1";
shapes = (
{
closed = 1;
nodes = (
(471,-10,o),
(541,-4,o),
(587,4,c),
(577.863,22.926,l),
(532.788,15.09,o),
(468.29,10,o),
(425,10,cs),
(216,10,o),
(75,153,o),
(75,365,cs),
(75,577,o),
(216,720,o),
(425,720,cs),
(468.29,720,o),
(532.788,714.91,o),
(577.863,707.074,c),
(587,726,l),
(541,734,o),
(471,740,o),
(425,740,cs),
(205,740,o),
(55,588,o),
(55,365,cs),
(55,142,o),
(205,-10,o),
(425,-10,cs)
);
},
{
pos = (450,0);
ref = E;
}
);
width = 1073;
},
{
layerId = "9527F797-22C1-480E-A1FE-2CDBEBE1FD4C";
shapes = (
{
closed = 1;
nodes = (
(502,-10,o),
(575,10,o),
(634,46,c),
(557.63,123.058,l),
(518.785,101.917,o),
(471.703,90,o),
(418,90,cs),
(255,90,o),
(156,195,o),
(156,365,cs),
(156,535,o),
(255,640,o),
(418,640,cs),
(471.703,640,o),
(518.785,628.083,o),
(557.63,606.942,c),
(634,684,l),
(575,720,o),
(502,740,o),
(418,740,cs),
(189,740,o),
(43,594,o),
(43,365,cs),
(43,136,o),
(189,-10,o),
(418,-10,cs)
);
},
{
alignment = -1;
pos = (431,0);
ref = E;
}
);
width = 1064;
},
{
layerId = "9E6B41AB-2970-4C41-8B35-4DBE0D296A43";
shapes = (
{
closed = 1;
nodes = (
(530,-10,o),
(626,25,o),
(691,91,c),
(554.307,229.06,l),
(525.276,182.886,o),
(477.174,160,o),
(410,160,cs),
(294,160,o),
(235,229,o),
(235,365,cs),
(235,501,o),
(294,570,o),
(410,570,cs),
(477.174,570,o),
(525.276,547.114,o),
(554.307,500.94,c),
(691,639,l),
(626,705,o),
(530,740,o),
(410,740,cs),
(171,740,o),
(30,601,o),
(30,365,cs),
(30,129,o),
(171,-10,o),
(410,-10,cs)
);
},
{
pos = (454,0);
ref = E;
}
);
width = 1095;
}
);
metricLeft = "=O";
metricRight = "=E";
unicode = 338;
},
{
glyphname = P;
kernLeft = H;
kernRight = P;
lastChange = "2021-05-05 05:27:35 +0000";
layers = (
{
layerId = "D65C9A1E-0FCA-4B2D-8EDF-9F36CA9182A1";
metricRight = "=H*.3";
shapes = (
{
closed = 1;
nodes = (
(130,0,l),
(130,710,l),
(287,710,ls),
(487,710,o),
(570,651,o),
(570,510,cs),
(570,369,o),
(487,310,o),
(287,310,cs),
(120,310,l),
(120,290,l),
(287,290,ls),
(498,290,o),
(590,357,o),
(590,510,cs),
(590,663,o),
(498,730,o),
(287,730,cs),
(110,730,l),
(110,0,l)
);
}
);
width = 623;
},
{
layerId = "9527F797-22C1-480E-A1FE-2CDBEBE1FD4C";
metricRight = "=H*.35";
shapes = (
{
closed = 1;
nodes = (
(195,0,l),
(195,630,l),
(297,630,ls),
(441,630,o),
(503,587,o),
(503,487,cs),
(503,387,o),
(441,344,o),
(297,344,cs),
(140,344,l),
(140,244,l),
(310,244,ls),
(515,244,o),
(615,324,o),
(615,487,cs),
(615,652,o),
(512,730,o),
(295,730,cs),
(85,730,l),
(85,0,l)
);
}
);
width = 645;
},
{
layerId = "9E6B41AB-2970-4C41-8B35-4DBE0D296A43";
metricRight = "=H*.4";
shapes = (
{
closed = 1;
nodes = (
(260,0,l),
(260,570,l),
(307,570,ls),
(395,570,o),
(435,537,o),
(435,465,cs),
(435,393,o),
(395,360,o),
(307,360,cs),
(160,360,l),
(160,200,l),
(333,200,ls),
(532,200,o),
(640,293,o),
(640,465,cs),
(640,641,o),
(527,730,o),
(302,730,cs),
(60,730,l),
(60,0,l)
);
}
);
width = 664;
}
);
metricLeft = "=H";
metricRight = "=H*.4";
unicode = 80;
},
{
glyphname = Thorn;
kernLeft = H;
kernRight = O;
lastChange = "2021-05-05 05:27:35 +0000";
layers = (
{
layerId = "D65C9A1E-0FCA-4B2D-8EDF-9F36CA9182A1";
shapes = (
{
closed = 1;
nodes = (
(287,155,ls),
(498,155,o),
(590,222,o),
(590,375,cs),
(590,528,o),
(498,595,o),
(287,595,cs),
(120,595,l),
(120,575,l),
(287,575,ls),
(487,575,o),
(570,516,o),
(570,375,cs),
(570,234,o),
(487,175,o),
(287,175,cs),
(120,175,l),
(120,155,l)
);
},
{
closed = 1;
nodes = (
(130,0,l),
(130,730,l),
(110,730,l),
(110,0,l)
);
}
);
width = 623;
},
{
layerId = "9527F797-22C1-480E-A1FE-2CDBEBE1FD4C";
shapes = (
{
closed = 1;
nodes = (
(310,132,ls),
(515,132,o),
(615,212,o),
(615,375,cs),
(615,538,o),
(515,618,o),
(310,618,cs),
(140,618,l),
(140,518,l),
(297,518,ls),
(441,518,o),
(503,475,o),
(503,375,cs),
(503,275,o),
(441,232,o),
(297,232,cs),
(140,232,l),
(140,132,l)
);
},
{
closed = 1;
nodes = (
(195,0,l),
(195,730,l),
(85,730,l),
(85,0,l)
);
}
);
width = 645;
},
{
layerId = "9E6B41AB-2970-4C41-8B35-4DBE0D296A43";
shapes = (
{
closed = 1;
nodes = (
(333,110,ls),
(532,110,o),
(640,203,o),
(640,375,cs),
(640,547,o),
(532,640,o),
(333,640,cs),
(160,640,l),
(160,480,l),
(307,480,ls),
(395,480,o),
(435,447,o),
(435,375,cs),
(435,303,o),
(395,270,o),
(307,270,cs),
(160,270,l),
(160,110,l)
);
},
{
closed = 1;
nodes = (
(260,0,l),
(260,730,l),
(60,730,l),
(60,0,l)
);
}
);
width = 664;
}
);
metricLeft = "=P";
metricRight = "=P";
unicode = 222;
},
{
glyphname = Q;
kernLeft = O;
kernRight = O;
lastChange = "2021-05-05 05:27:35 +0000";
layers = (
{
layerId = "9527F797-22C1-480E-A1FE-2CDBEBE1FD4C";
metricRight = "=O-11";
shapes = (
{
closed = 1;
nodes = (
(795,-71,l),
(751,-24,o),
(692,13,o),
(621,37,c),
(621,39,l),
(732,100,o),
(793,216,o),
(793,365,cs),
(793,594,o),
(647,740,o),
(418,740,cs),
(189,740,o),
(43,594,o),
(43,365,cs),
(43,136,o),
(189,-10,o),
(418,-10,cs),
(542,-10,o),
(646,-54,o),
(708,-133,c)
);
},
{
closed = 1;
nodes = (
(255,90,o),
(156,195,o),
(156,365,cs),
(156,535,o),
(255,640,o),
(418,640,cs),
(580,640,o),
(680,535,o),
(680,365,cs),
(680,195,o),
(580,90,o),
(418,90,cs)
);
}
);
width = 827;
},
{
layerId = "D65C9A1E-0FCA-4B2D-8EDF-9F36CA9182A1";
metricRight = "=O";
shapes = (
{
closed = 1;
nodes = (
(790,-102,l),
(730,-46,o),
(642,-11,o),
(530,2,c),
(530,4,l),
(691,44,o),
(794,180,o),
(794,365,cs),
(794,588,o),
(645,740,o),
(424,740,cs),
(205,740,o),
(55,588,o),
(55,365,cs),
(55,142,o),
(205,-10,o),
(424,-10,cs),
(582,-10,o),
(701,-46,o),
(774,-116,c)
);
},
{
closed = 1;
nodes = (
(215,10,o),
(75,153,o),
(75,365,cs),
(75,577,o),
(215,720,o),
(425,720,cs),
(634,720,o),
(775,577,o),
(775,365,cs),
(775,153,o),
(634,10,o),
(425,10,cs)
);
}
);
width = 849;
},
{
layerId = "9E6B41AB-2970-4C41-8B35-4DBE0D296A43";
metricRight = "=O-12";
shapes = (
{
closed = 1;
nodes = (
(800,-40,l),
(763,8,o),
(720,44,o),
(669,69,c),
(669,71,l),
(748,135,o),
(790,237,o),
(790,365,cs),
(790,601,o),
(649,740,o),
(410,740,cs),
(171,740,o),
(30,601,o),
(30,365,cs),
(30,129,o),
(171,-10,o),
(410,-10,cs),
(521,-10,o),
(572,-41,o),
(640,-150,c)
);
},
{
closed = 1;
nodes = (
(294,160,o),
(235,229,o),
(235,365,cs),
(235,501,o),
(294,570,o),
(410,570,cs),
(526,570,o),
(585,501,o),
(585,365,cs),
(585,229,o),
(526,160,o),
(410,160,cs)
);
}
);
width = 818;
}
);
metricLeft = "=O";
metricRight = "=O-12";
unicode = 81;
},
{
glyphname = R;
kernLeft = H;
kernRight = R;
lastChange = "2021-05-05 05:27:35 +0000";
layers = (
{
anchors = (
{
name = bottom;
pos = (345,0);
},
{
name = top;
pos = (345,730);
}
);
layerId = "9527F797-22C1-480E-A1FE-2CDBEBE1FD4C";
shapes = (
{
closed = 1;
nodes = (
(195,0,l),
(195,630,l),
(310,630,ls),
(446,630,o),
(503,594,o),
(503,509,cs),
(503,424,o),
(446,388,o),
(310,388,cs),
(140,388,l),
(140,292,l),
(326,292,ls),
(520,292,o),
(615,365,o),
(615,513,cs),
(615,663,o),
(519,730,o),
(305,730,cs),
(85,730,l),
(85,0,l)
);
},
{
closed = 1;
nodes = (
(655,0,l),
(320,334,l),
(181,334,l),
(512,0,l)
);
}
);
width = 689;
},
{
anchors = (
{
name = bottom;
pos = (357,0);
},
{
name = top;
pos = (357,730);
}
);
layerId = "9E6B41AB-2970-4C41-8B35-4DBE0D296A43";
shapes = (
{
closed = 1;
nodes = (
(260,0,l),
(260,570,l),
(322,570,ls),
(400,570,o),
(435,544,o),
(435,485,cs),
(435,426,o),
(400,400,o),
(322,400,cs),
(160,400,l),
(160,254,l),
(353,254,ls),
(540,254,o),
(640,339,o),
(640,495,cs),
(640,654,o),
(534,730,o),
(312,730,cs),
(60,730,l),
(60,0,l)
);
},
{
closed = 1;
nodes = (
(690,0,l),
(423,327,l),
(211,327,l),
(470,0,l)
);
}
);
width = 714;
},
{
anchors = (
{
name = bottom;
pos = (332,0);
},
{
name = top;
pos = (332,730);
}
);
layerId = "D65C9A1E-0FCA-4B2D-8EDF-9F36CA9182A1";
shapes = (
{
closed = 1;
nodes = (
(130,0,l),
(130,710,l),
(297,710,ls),
(492,710,o),
(570,657,o),
(570,530,cs),
(570,403,o),
(492,350,o),
(297,350,cs),
(120,350,l),
(120,330,l),
(297,330,ls),
(502,330,o),
(590,390,o),
(590,530,cs),
(590,670,o),
(502,730,o),
(297,730,cs),
(110,730,l),
(110,0,l)
);
},
{
closed = 1;
nodes = (
(620,0,l),
(183,340,l),
(151,340,l),
(588,0,l)
);
}
);
width = 664;
}
);
metricLeft = "=H";
metricRight = "=H*.4";
unicode = 82;
},
{
glyphname = S;
kernLeft = S;
kernRight = S;
lastChange = "2021-05-05 05:27:35 +0000";
layers = (
{
anchors = (
{
name = bottom;
pos = (309,0);
},
{
name = cedi;
pos = (261,-1);
},
{
name = top;
pos = (309,730);
}
);
layerId = "D65C9A1E-0FCA-4B2D-8EDF-9F36CA9182A1";
metricLeft = "=H*.7";
shapes = (
{
closed = 1;
nodes = (
(461,-10,o),
(554,62,o),
(554,183,cs),
(554,323,o),
(430,357,o),
(315,388,cs),
(203,418,o),
(100,446,o),
(100,561,cs),
(100,662,o),
(180,720,o),
(320,720,cs),
(396,720,o),
(479,703,o),
(527,677,c),
(537,695,l),
(485,722,o),
(398,740,o),
(320,740,cs),
(170,740,o),
(80,674,o),
(80,561,cs),
(80,431,o),
(198,399,o),
(310,369,cs),
(425,338,o),
(534,308,o),
(534,183,cs),
(534,73,o),
(450,10,o),
(304,10,cs),
(228,10,o),
(141,27,o),
(85,53,c),
(77,35,l),
(135,8,o),
(225,-10,o),
(304,-10,cs)
);
}
);
width = 631;
},
{
anchors = (
{
name = bottom;
pos = (316,0);
},
{
name = cedi;
pos = (253,0);
},
{
name = top;
pos = (316,730);
}
);
layerId = "9527F797-22C1-480E-A1FE-2CDBEBE1FD4C";
metricLeft = "=H*.65";
shapes = (
{
closed = 1;
nodes = (
(488,-10,o),
(591,66,o),
(591,197,cs),
(591,324,o),
(494,375,o),
(351,415,cs),
(237,447,o),
(172,468,o),
(172,542,cs),
(172,605,o),
(227,640,o),
(331,640,cs),
(406,640,o),
(487,622,o),
(547,594,c),
(575,694,l),
(514,722,o),
(420,740,o),
(332,740,cs),
(157,740,o),
(57,669,o),
(57,543,cs),
(57,420,o),
(150,365,o),
(284,329,cs),
(405,296,o),
(476,275,o),
(476,198,cs),
(476,129,o),
(418,90,o),
(316,90,cs),
(239,90,o),
(148,112,o),
(83,145,c),
(55,45,l),
(117,11,o),
(215,-10,o),
(309,-10,cs)
);
}
);
width = 646;
},
{
anchors = (
{
name = bottom;
pos = (325,0);
},
{
name = cedi;
pos = (244,0);
},
{
name = top;
pos = (325,730);
}
);
layerId = "9E6B41AB-2970-4C41-8B35-4DBE0D296A43";
metricLeft = "=H*.6";
shapes = (
{
closed = 1;
nodes = (
(517,-10,o),
(630,69,o),
(630,210,cs),
(630,320,o),
(562,384,o),
(392,434,cs),
(273,469,o),
(246,488,o),
(246,526,cs),
(246,560,o),
(277,575,o),
(344,575,cs),
(420,575,o),
(502,556,o),
(574,522,c),
(616,692,l),
(545,722,o),
(444,740,o),
(347,740,cs),
(147,740,o),
(36,663,o),
(36,525,cs),
(36,413,o),
(107,340,o),
(264,297,cs),
(390,262,o),
(420,245,o),
(420,210,cs),
(420,174,o),
(389,155,o),
(330,155,cs),
(256,155,o),
(147,185,o),
(78,224,c),
(36,54,l),
(101,14,o),
(207,-10,o),
(317,-10,cs)
);
}
);
width = 666;
}
);
metricLeft = "=H*.6";
metricRight = "=|";
unicode = 83;
},
{
glyphname = Germandbls;
kernLeft = H;
kernRight = B;
lastChange = "2021-05-05 05:27:35 +0000";
layers = (
{
layerId = "D65C9A1E-0FCA-4B2D-8EDF-9F36CA9182A1";
shapes = (
{
closed = 1;
nodes = (
(110,0,l),
(130,0,l),
(130,485,ls),
(130,647,o),
(204,720,o),
(368,720,cs),
(436,720,o),
(510,706,o),
(570,658,c),
(587,672,l),
(521,724,o),
(442,740,o),
(368,740,cs),
(194,740,o),
(110,660,o),
(110,490,cs)
);
},
{
closed = 1;
nodes = (
(541,-10,o),
(630,58,o),
(630,180,cs),
(630,302,o),
(540,370,o),
(379,370,c),
(379,372,l),
(587,672,l),
(567,681,l),
(352,369,l),
(364,350,l),
(384,350,ls),
(531,350,o),
(610,290,o),
(610,180,cs),
(610,70,o),
(530,10,o),
(381,10,cs),
(337,10,o),
(299,15,o),
(262,26,c),
(256,7,l),
(297,-5,o),
(338,-10,o),
(381,-10,cs)
);
}
);
width = 661;
},
{
layerId = "9527F797-22C1-480E-A1FE-2CDBEBE1FD4C";
shapes = (
{
closed = 1;
nodes = (
(85,0,l),
(195,0,l),
(195,453,ls),
(195,576,o),
(259,640,o),
(382,640,cs),
(449,640,o),
(507,616,o),
(551,571,c),
(639,662,l),
(567,713,o),
(479,740,o),
(382,740,cs),
(187,740,o),
(85,645,o),
(85,463,cs)
);
},
{
closed = 1;
nodes = (
(573,-10,o),
(660,70,o),
(660,215,cs),
(660,339,o),
(597,412,o),
(479,423,c),
(479,425,l),
(639,661,l),
(509,659,l),
(335,400,l),
(360,340,l),
(360,340,l),
(489,340,o),
(548,301,o),
(548,215,cs),
(548,135,o),
(495,90,o),
(401,90,cs),
(367,90,o),
(338,95,o),
(298,111,c),
(283,11,l),
(326,-3,o),
(369,-10,o),
(416,-10,cs)
);
}
);
width = 687;
},
{
layerId = "9E6B41AB-2970-4C41-8B35-4DBE0D296A43";
shapes = (
{
closed = 1;
nodes = (
(60,0,l),
(260,0,l),
(260,460,l),
(260,539,o),
(292,570,o),
(375,570,cs),
(444,570,o),
(493,548,o),
(550,490,c),
(670,620,l),
(600,699,o),
(498,740,o),
(375,740,cs),
(165,740,o),
(60,647,o),
(60,460,c)
);
},
{
closed = 1;
nodes = (
(608,-10,o),
(690,65,o),
(690,210,cs),
(690,313,o),
(633,376,o),
(523,395,c),
(523,397,l),
(670,620,l),
(507,659,l),
(335,400,l),
(384,280,l),
(384,280,l),
(450,280,o),
(485,258,o),
(485,216,cs),
(485,179,o),
(463,160,o),
(420,160,cs),
(396,160,o),
(369,166,o),
(335,180,c),
(310,15,l),
(352,-1,o),
(400,-10,o),
(450,-10,cs)
);
}
);
width = 711;
}
);
metricLeft = "=B";
metricRight = "=B*.7";
unicode = 7838;
},
{
glyphname = T;
kernLeft = T;
kernRight = T;
lastChange = "2021-05-05 05:27:35 +0000";
layers = (
{
anchors = (
{
name = bottom;
pos = (333,0);
},
{
name = cedi;
pos = (323,0);
},
{
name = center;
pos = (333,365);
},
{
name = top;
pos = (333,730);
}
);
layerId = "D65C9A1E-0FCA-4B2D-8EDF-9F36CA9182A1";
metricLeft = "=H*.3";
shapes = (
{
closed = 1;
nodes = (
(343,0,l),
(343,710,l),
(633,710,l),
(633,730,l),
(33,730,l),
(33,710,l),
(323,710,l),
(323,0,l)
);
}
);
width = 666;
},
{
anchors = (
{
name = bottom;
pos = (335,0);
},
{
name = cedi;
pos = (278,0);
},
{
name = center;
pos = (335,365);
},
{
name = top;
pos = (335,730);
}
);
layerId = "9527F797-22C1-480E-A1FE-2CDBEBE1FD4C";
metricLeft = "=H*.35";
shapes = (
{
closed = 1;
nodes = (
(392,0,l),
(392,630,l),
(640,630,l),
(640,730,l),
(30,730,l),
(30,630,l),
(278,630,l),
(278,0,l)
);
}
);
width = 670;
},
{
anchors = (
{
name = bottom;
pos = (334,0);
},
{
name = cedi;
pos = (231,0);
},
{
name = center;
pos = (334,365);
},
{
name = top;
pos = (334,730);
}
);
layerId = "9E6B41AB-2970-4C41-8B35-4DBE0D296A43";
metricLeft = "=H*.4";
shapes = (
{
closed = 1;
nodes = (
(437,0,l),
(437,560,l),
(644,560,l),
(644,730,l),
(24,730,l),
(24,560,l),
(231,560,l),
(231,0,l)
);
}
);
width = 668;
}
);
metricLeft = "=H*0.4";
metricRight = "=|";
unicode = 84;
},
{
glyphname = Tbar;
kernLeft = W;
kernRight = W;
lastChange = "2021-05-05 05:27:35 +0000";
layers = (
{
layerId = "D65C9A1E-0FCA-4B2D-8EDF-9F36CA9182A1";
shapes = (
{
closed = 1;
nodes = (
(571,305,l),
(571,325,l),
(151,325,l),
(151,305,l)
);
},
{
pos = (33,0);
ref = T;
}
);
width = 732;
},
{
layerId = "9527F797-22C1-480E-A1FE-2CDBEBE1FD4C";
shapes = (
{
closed = 1;
nodes = (
(593,270,l),
(593,360,l),
(133,360,l),
(133,270,l)
);
},
{
alignment = -1;
pos = (30,0);
ref = T;
}
);
width = 730;
},
{
layerId = "9E6B41AB-2970-4C41-8B35-4DBE0D296A43";
shapes = (
{
closed = 1;
nodes = (
(610,245,l),
(610,385,l),
(110,385,l),
(110,245,l)
);
},
{
pos = (24,0);
ref = T;
}
);
width = 716;
}
);
metricLeft = "=T*2";
metricRight = "=|";
unicode = 358;
},
{
glyphname = U;
kernLeft = U;
kernRight = U;
lastChange = "2021-05-05 05:27:35 +0000";
layers = (
{
anchors = (
{
name = bottom;
pos = (369,0);
},
{
name = ogonek;
pos = (427,0);
},
{
name = top;
pos = (369,730);
},
{
name = top_ring;
pos = (369,700);
},
{
name = topright;
pos = (619,690);
}
);
layerId = "D65C9A1E-0FCA-4B2D-8EDF-9F36CA9182A1";
shapes = (
{
closed = 1;
nodes = (
(545,-10,o),
(639,77,o),
(639,240,cs),
(639,730,l),
(619,730,l),
(619,240,ls),
(619,88,o),
(534,10,o),
(369,10,cs),
(204,10,o),
(119,88,o),
(119,240,cs),
(119,730,l),
(99,730,l),
(99,240,ls),
(99,77,o),
(193,-10,o),
(369,-10,cs)
);
}
);
width = 738;
},
{
anchors = (
{
name = bottom;
pos = (367,0);
},
{
name = ogonek;
pos = (447,0);
},
{
name = top;
pos = (367,730);
},
{
name = top_ring;
pos = (367,710);
},
{
name = topright;
pos = (602,690);
}
);
layerId = "9527F797-22C1-480E-A1FE-2CDBEBE1FD4C";
shapes = (
{
closed = 1;
nodes = (
(557,-10,o),
(657,80,o),
(657,250,cs),
(657,730,l),
(547,730,l),
(547,270,ls),
(547,145,o),
(492,90,o),
(367,90,cs),
(242,90,o),
(187,145,o),
(187,270,cs),
(187,730,l),
(77,730,l),
(77,250,ls),
(77,80,o),
(177,-10,o),
(367,-10,cs)
);
}
);
width = 734;
},
{
anchors = (
{
name = bottom;
pos = (364,0);
},
{
name = ogonek;
pos = (494,10);
},
{
name = top;
pos = (364,730);
},
{
name = top_ring;
pos = (364,720);
},
{
name = topright;
pos = (594,690);
}
);
layerId = "9E6B41AB-2970-4C41-8B35-4DBE0D296A43";
shapes = (
{
closed = 1;
nodes = (
(569,-10,o),
(674,82,o),
(674,260,cs),
(674,730,l),
(474,730,l),
(474,300,ls),
(474,193,o),
(448,160,o),
(364,160,cs),
(280,160,o),
(254,193,o),
(254,300,cs),
(254,730,l),
(54,730,l),
(54,260,ls),
(54,82,o),
(159,-10,o),
(364,-10,cs)
);
}
);
width = 728;
}
);
metricLeft = "=H*.9";
metricRight = "=|";
unicode = 85;
},
{
glyphname = Uogonek;
kernLeft = U;
kernRight = U;
lastChange = "2021-05-05 05:27:35 +0000";
layers = (
{
layerId = "D65C9A1E-0FCA-4B2D-8EDF-9F36CA9182A1";
shapes = (
{
closed = 1;
nodes = (
(410,-220,o),
(432,-214,o),
(450,-203,c),
(442,-185,l),
(423,-195,o),
(404,-200,o),
(386,-200,cs),
(338,-200,o),
(313,-178,o),
(313,-135,cs),
(313,-90,o),
(349,-23,o),
(475,3,c),
(471.128,21.392,l),
(334.421,-8.01,o),
(293,-80.381,o),
(293,-135,cs),
(293,-191,o),
(325,-220,o),
(386,-220,cs)
);
},
{
ref = U;
}
);
width = 738;
},
{
layerId = "9527F797-22C1-480E-A1FE-2CDBEBE1FD4C";
shapes = (
{
closed = 1;
nodes = (
(408,-217,o),
(434,-213,o),
(457,-205,c),
(440,-120,l),
(427,-127,o),
(413,-130,o),
(398,-130,cs),
(373,-130,o),
(360,-117,o),
(360,-93,cs),
(360,-67,o),
(395,-19,o),
(455,-2,c),
(348.434,25.767,l),
(288.517,-9.633,o),
(258,-61.707,o),
(258,-107,cs),
(258,-177,o),
(302,-217,o),
(379,-217,cs)
);
},
{
ref = U;
}
);
width = 734;
},
{
layerId = "9E6B41AB-2970-4C41-8B35-4DBE0D296A43";
shapes = (
{
closed = 1;
nodes = (
(448,-220,o),
(472,-217,o),
(495,-210,c),
(480,-75,l),
(465,-81,o),
(446,-85,o),
(432,-85,cs),
(404,-85,o),
(391,-75,o),
(391,-53,cs),
(391,-32,o),
(407,-17,o),
(443,-4,c),
(306.357,46.129,l),
(242.847,0.673,o),
(215,-36.13,o),
(215,-82,cs),
(215,-170,o),
(288,-220,o),
(420,-220,cs)
);
},
{
ref = U;
}
);
width = 728;
},
{
associatedMasterId = "D65C9A1E-0FCA-4B2D-8EDF-9F36CA9182A1";
layerId = "7C3AF804-DBBF-4002-9B4B-165BA94CEFBD";
name = "Apr 30 21, 10:18";
shapes = (
{
closed = 1;
nodes = (
(410,-220,o),
(432,-214,o),
(450,-203,c),
(442,-185,l),
(423,-195,o),
(404,-200,o),
(386,-200,cs),
(338,-200,o),
(313,-178,o),
(313,-135,cs),
(313,-90,o),
(349,-23,o),
(475,3,c),
(489,14,l),
(474,22,l),
(335,-7,o),
(293,-80,o),
(293,-135,cs),
(293,-191,o),
(325,-220,o),
(386,-220,cs)
);
},
{
ref = U;
}
);
width = 738;
}
);
unicode = 370;
},
{
glyphname = V;
kernLeft = V;
kernRight = V;
lastChange = "2021-05-05 05:27:35 +0000";
layers = (
{
layerId = "D65C9A1E-0FCA-4B2D-8EDF-9F36CA9182A1";
shapes = (
{
closed = 1;
nodes = (
(357,0,l),
(662,730,l),
(640,730,l),
(343,18,l),
(341,18,l),
(44,730,l),
(22,730,l),
(327,0,l)
);
}
);
width = 684;
},
{
layerId = "9527F797-22C1-480E-A1FE-2CDBEBE1FD4C";
shapes = (
{
closed = 1;
nodes = (
(420,0,l),
(683,730,l),
(562,730,l),
(349,110,l),
(347,110,l),
(134,730,l),
(13,730,l),
(276,0,l)
);
}
);
width = 696;
},
{
layerId = "9E6B41AB-2970-4C41-8B35-4DBE0D296A43";
shapes = (
{
closed = 1;
nodes = (
(486,0,l),
(706,730,l),
(486,730,l),
(357,200,l),
(355,200,l),
(226,730,l),
(6,730,l),
(226,0,l)
);
}
);
width = 712;
}
);
metricLeft = "=A";
metricRight = "=|";
unicode = 86;
},
{
glyphname = W;
kernLeft = W;
kernRight = W;
lastChange = "2021-05-05 05:27:35 +0000";
layers = (
{
anchors = (
{
name = bottom;
pos = (450,0);
},
{
name = top;
pos = (450,730);
}
);
layerId = "D65C9A1E-0FCA-4B2D-8EDF-9F36CA9182A1";
metricLeft = "=V*1.6";
shapes = (
{
closed = 1;
nodes = (
(256,0,l),
(449,650,l),
(451,650,l),
(644,0,l),
(676,0,l),
(865,730,l),
(844,730,l),
(661,20,l),
(659,20,l),
(466,670,l),
(434,670,l),
(241,20,l),
(239,20,l),
(56,730,l),
(35,730,l),
(224,0,l)
);
}
);
width = 900;
},
{
anchors = (
{
name = bottom;
pos = (468,0);
},
{
name = top;
pos = (468,730);
}
);
layerId = "9527F797-22C1-480E-A1FE-2CDBEBE1FD4C";
metricLeft = "=V*2.3";
shapes = (
{
closed = 1;
nodes = (
(336,0,l),
(467,515,l),
(469,515,l),
(600,0,l),
(736,0,l),
(906,730,l),
(793,730,l),
(667,155,l),
(665,155,l),
(536,670,l),
(400,670,l),
(271,155,l),
(269,155,l),
(143,730,l),
(30,730,l),
(200,0,l)
);
}
);
width = 936;
},
{
anchors = (
{
name = bottom;
pos = (484,0);
},
{
name = top;
pos = (484,730);
}
);
layerId = "9E6B41AB-2970-4C41-8B35-4DBE0D296A43";
metricLeft = "=V*4";
shapes = (
{
closed = 1;
nodes = (
(414,0,l),
(483,460,l),
(485,460,l),
(554,0,l),
(794,0,l),
(944,730,l),
(739,730,l),
(670,210,l),
(668,210,l),
(604,670,l),
(364,670,l),
(300,210,l),
(298,210,l),
(229,730,l),
(24,730,l),
(174,0,l)
);
}
);
width = 968;
}
);
metricLeft = "=V*3";
metricRight = "=|";
unicode = 87;
},
{
glyphname = X;
kernLeft = X;
kernRight = X;
lastChange = "2021-05-05 05:27:35 +0000";
layers = (
{
layerId = "D65C9A1E-0FCA-4B2D-8EDF-9F36CA9182A1";
shapes = (
{
closed = 1;
nodes = (
(98,0,l),
(362,351,l),
(364,351,l),
(628,0,l),
(653,0,l),
(375,369,l),
(647,730,l),
(622,730,l),
(364,387,l),
(362,387,l),
(104,730,l),
(79,730,l),
(351,369,l),
(73,0,l)
);
}
);
width = 726;
},
{
layerId = "9527F797-22C1-480E-A1FE-2CDBEBE1FD4C";
shapes = (
{
closed = 1;
nodes = (
(171,0,l),
(355,304,l),
(357,304,l),
(541,0,l),
(666,0,l),
(437,367,l),
(663,730,l),
(538,730,l),
(357,431,l),
(355,431,l),
(174,730,l),
(49,730,l),
(275,367,l),
(46,0,l)
);
}
);
width = 712;
},
{
layerId = "9E6B41AB-2970-4C41-8B35-4DBE0D296A43";
shapes = (
{
closed = 1;
nodes = (
(251,0,l),
(355,255,l),
(357,255,l),
(461,0,l),
(686,0,l),
(506,365,l),
(686,730,l),
(461,730,l),
(357,475,l),
(355,475,l),
(251,730,l),
(26,730,l),
(206,365,l),
(26,0,l)
);
}
);
width = 712;
}
);
metricLeft = "=|K*2.2";
metricRight = "=|";
unicode = 88;
},
{
glyphname = Y;
kernLeft = Y;
kernRight = Y;
lastChange = "2021-05-05 05:27:35 +0000";
layers = (
{
anchors = (
{
name = bottom;
pos = (333,0);
},
{
name = top;
pos = (333,730);
},
{
name = topleft;
pos = (41,730);
}
);
layerId = "D65C9A1E-0FCA-4B2D-8EDF-9F36CA9182A1";
shapes = (
{
closed = 1;
nodes = (
(343,0,l),
(343,297,l),
(653,730,l),
(628,730,l),
(334,318,l),
(332,318,l),
(38,730,l),
(13,730,l),
(323,297,l),
(323,0,l)
);
}
);
width = 666;
},
{
anchors = (
{
name = bottom;
pos = (343,0);
},
{
name = top;
pos = (343,730);
},
{
name = topleft;
pos = (30,730);
}
);
layerId = "9527F797-22C1-480E-A1FE-2CDBEBE1FD4C";
shapes = (
{
closed = 1;
nodes = (
(400,0,l),
(400,274,l),
(678,730,l),
(552,730,l),
(344,373,l),
(342,373,l),
(134,730,l),
(8,730,l),
(286,274,l),
(286,0,l)
);
}
);
width = 686;
},
{
anchors = (
{
name = bottom;
pos = (354,0);
},
{
name = top;
pos = (354,730);
},
{
name = topleft;
pos = (20,730);
}
);
layerId = "9E6B41AB-2970-4C41-8B35-4DBE0D296A43";
shapes = (
{
closed = 1;
nodes = (
(459,0,l),
(459,250,l),
(704,730,l),
(484,730,l),
(355,420,l),
(353,420,l),
(224,730,l),
(4,730,l),
(249,250,l),
(249,0,l)
);
}
);
width = 708;
}
);
metricLeft = "=V*.6";
metricRight = "=|";
unicode = 89;
},
{
glyphname = Z;
kernLeft = Z;
kernRight = Z;
lastChange = "2021-05-05 05:27:35 +0000";
layers = (
{
anchors = (
{
name = bottom;
pos = (338,0);
},
{
name = center;
pos = (338,365);
},
{
name = top;
pos = (338,730);
}
);
layerId = "D65C9A1E-0FCA-4B2D-8EDF-9F36CA9182A1";
shapes = (
{
closed = 1;
nodes = (
(588,0,l),
(588,20,l),
(113,20,l),
(113,22,l),
(588,710,l),
(588,730,l),
(88,730,l),
(88,710,l),
(563,710,l),
(563,708,l),
(88,20,l),
(88,0,l)
);
}
);
width = 676;
},
{
anchors = (
{
name = bottom;
pos = (328,0);
},
{
name = center;
pos = (328,365);
},
{
name = top;
pos = (328,730);
}
);
layerId = "9527F797-22C1-480E-A1FE-2CDBEBE1FD4C";
shapes = (
{
closed = 1;
nodes = (
(588,0,l),
(588,100,l),
(203,100,l),
(203,102,l),
(588,630,l),
(588,730,l),
(68,730,l),
(68,630,l),
(453,630,l),
(453,628,l),
(68,100,l),
(68,0,l)
);
}
);
width = 656;
},
{
anchors = (
{
name = bottom;
pos = (318,0);
},
{
name = center;
pos = (318,365);
},
{
name = top;
pos = (318,730);
}
);
layerId = "9E6B41AB-2970-4C41-8B35-4DBE0D296A43";
shapes = (
{
closed = 1;
nodes = (
(588,0,l),
(588,165,l),
(283,165,l),
(283,167,l),
(588,565,l),
(588,730,l),
(48,730,l),
(48,565,l),
(353,565,l),
(353,563,l),
(48,165,l),
(48,0,l)
);
}
);
width = 636;
}
);
metricLeft = "=H*.8";
metricRight = "=|";
unicode = 90;
},
{
color = 9;
export = 0;
glyphname = G.001;
kernLeft = O;
kernRight = G;
lastChange = "2021-05-05 05:27:35 +0000";
layers = (
{
anchors = (
{
name = bottom;
pos = (393,0);
},
{
name = top;
pos = (393,730);
}
);
layerId = "D65C9A1E-0FCA-4B2D-8EDF-9F36CA9182A1";
shapes = (
{
closed = 1;
nodes = (
(527,-10,o),
(627,11,o),
(695,44,c),
(695,370,l),
(345,370,l),
(345,350,l),
(675,350,l),
(675,45,l),
(687,62,l),
(621,30,o),
(524,10,o),
(437,10,cs),
(210,10,o),
(75,142,o),
(75,365,cs),
(75,582,o),
(215,720,o),
(437,720,cs),
(519,720,o),
(597,700,o),
(657,663,c),
(667,680,l),
(605,718,o),
(523,740,o),
(437,740,cs),
(210,740,o),
(55,599,o),
(55,365,cs),
(55,131,o),
(198,-10,o),
(437,-10,cs)
);
}
);
width = 789;
},
{
anchors = (
{
name = bottom;
pos = (386,0);
},
{
name = top;
pos = (386,730);
}
);
layerId = "9527F797-22C1-480E-A1FE-2CDBEBE1FD4C";
shapes = (
{
closed = 1;
nodes = (
(532,-10,o),
(632,11,o),
(703,47,c),
(703,406,l),
(368,406,l),
(368,312,l),
(593,312,l),
(593,88,l),
(610,127,l),
(563,103,o),
(501,90,o),
(438,90,cs),
(262,90,o),
(161,190,o),
(161,365,cs),
(161,538,o),
(262,640,o),
(432,640,cs),
(506,640,o),
(582,621,o),
(639,587,c),
(665,682,l),
(602,720,o),
(520,740,o),
(432,740,cs),
(190,740,o),
(43,598,o),
(43,365,cs),
(43,131,o),
(191,-10,o),
(438,-10,cs)
);
}
);
width = 775;
},
{
anchors = (
{
name = bottom;
pos = (379,0);
},
{
name = top;
pos = (379,730);
}
);
layerId = "9E6B41AB-2970-4C41-8B35-4DBE0D296A43";
shapes = (
{
closed = 1;
nodes = (
(539,-10,o),
(638,12,o),
(710,50,c),
(710,432,l),
(380,432,l),
(380,267,l),
(510,267,l),
(510,131,l),
(533,177,l),
(502,161,o),
(474,155,o),
(438,155,cs),
(307,155,o),
(240,225,o),
(240,365,cs),
(240,503,o),
(304,575,o),
(427,575,cs),
(493,575,o),
(567,556,o),
(621,524,c),
(663,684,l),
(601,720,o),
(517,740,o),
(427,740,cs),
(178,740,o),
(30,601,o),
(30,365,cs),
(30,129,o),
(181,-10,o),
(438,-10,cs)
);
}
);
width = 761;
}
);
metricLeft = "=O";
metricRight = "=H*.85";
},
{
color = 9;
export = 0;
glyphname = S.001;
kernLeft = S;
kernRight = S;
lastChange = "2021-05-05 05:27:35 +0000";
layers = (
{
anchors = (
{
name = bottom;
pos = (311,0);
},
{
name = cedi;
pos = (263,-1);
},
{
name = top;
pos = (311,730);
}
);
layerId = "D65C9A1E-0FCA-4B2D-8EDF-9F36CA9182A1";
metricLeft = "=H*.7";
shapes = (
{
closed = 1;
nodes = (
(461,-10,o),
(554,62,o),
(554,183,cs),
(554,323,o),
(428,357,o),
(312,388,cs),
(203,417,o),
(104,446,o),
(104,561,cs),
(104,662,o),
(184,720,o),
(324,720,cs),
(400,720,o),
(483,703,o),
(531,677,c),
(541,695,l),
(489,722,o),
(402,740,o),
(324,740,cs),
(174,740,o),
(84,674,o),
(84,561,cs),
(84,431,o),
(198,398,o),
(307,369,cs),
(423,338,o),
(534,308,o),
(534,183,cs),
(534,73,o),
(450,10,o),
(304,10,cs),
(228,10,o),
(141,27,o),
(85,53,c),
(77,35,l),
(135,8,o),
(225,-10,o),
(304,-10,cs)
);
}
);
width = 631;
},
{
anchors = (
{
name = bottom;
pos = (318,0);
},
{
name = cedi;
pos = (255,0);
},
{
name = top;
pos = (318,730);
}
);
layerId = "9527F797-22C1-480E-A1FE-2CDBEBE1FD4C";
metricLeft = "=H*.65";
shapes = (
{
closed = 1;
nodes = (
(488,-10,o),
(591,66,o),
(591,197,cs),
(591,324,o),
(494,375,o),
(351,415,cs),
(239,446,o),
(176,468,o),
(176,542,cs),
(176,605,o),
(231,640,o),
(335,640,cs),
(410,640,o),
(491,622,o),
(551,594,c),
(579,694,l),
(518,722,o),
(424,740,o),
(336,740,cs),
(161,740,o),
(61,669,o),
(61,543,cs),
(61,420,o),
(152,365,o),
(284,329,cs),
(405,296,o),
(476,275,o),
(476,198,cs),
(476,129,o),
(418,90,o),
(316,90,cs),
(239,90,o),
(148,112,o),
(83,145,c),
(55,45,l),
(117,11,o),
(215,-10,o),
(309,-10,cs)
);
}
);
width = 646;
},
{
anchors = (
{
name = bottom;
pos = (327,0);
},
{
name = cedi;
pos = (246,0);
},
{
name = top;
pos = (327,730);
}
);
layerId = "9E6B41AB-2970-4C41-8B35-4DBE0D296A43";
metricLeft = "=H*.6";
shapes = (
{
closed = 1;
nodes = (
(517,-10,o),
(630,69,o),
(630,210,cs),
(630,320,o),
(562,384,o),
(392,434,cs),
(276,468,o),
(250,488,o),
(250,526,cs),
(250,560,o),
(281,575,o),
(348,575,cs),
(424,575,o),
(506,556,o),
(578,522,c),
(620,692,l),
(549,722,o),
(448,740,o),
(351,740,cs),
(151,740,o),
(40,663,o),
(40,525,cs),
(40,413,o),
(109,339,o),
(264,297,cs),
(390,262,o),
(420,245,o),
(420,210,cs),
(420,174,o),
(389,155,o),
(330,155,cs),
(256,155,o),
(147,185,o),
(78,224,c),
(36,54,l),
(101,14,o),
(207,-10,o),
(317,-10,cs)
);
}
);
width = 666;
}
);
metricLeft = "=H*.6";
metricRight = "=|";
},
{
glyphname = a;
kernLeft = a;
kernRight = h;
lastChange = "2021-05-05 05:27:35 +0000";
layers = (
{
anchors = (
{
name = bottom;
pos = (250,0);
},
{
name = ogonek;
pos = (450,0);
},
{
name = top;
pos = (250,520);
}
);
layerId = "D65C9A1E-0FCA-4B2D-8EDF-9F36CA9182A1";
shapes = (
{
closed = 1;
nodes = (
(308,-10,o),
(392,35,o),
(429,104,c),
(430,104,l),
(430,0,l),
(450,0,l),
(450,325,ls),
(450,477,o),
(403,530,o),
(267,530,cs),
(194.161,530,o),
(124.908,514.218,o),
(61.065,483.87,c),
(70.173,465.655,l),
(131.952,495.218,o),
(197.364,510,o),
(267,510,cs),
(391,510,o),
(430,466,o),
(430,325,c),
(334,325,ls),
(143,325,o),
(40,262,o),
(40,145,cs),
(40,50,o),
(108,-10,o),
(216,-10,cs)
);
},
{
closed = 1;
nodes = (
(118,10,o),
(60,62,o),
(60,145,cs),
(60,249,o),
(154,305,o),
(334,305,cs),
(430,305,l),
(430,190,ls),
(430,89,o),
(336,10,o),
(216,10,cs)
);
}
);
width = 529;
},
{
anchors = (
{
name = bottom;
pos = (266,0);
},
{
name = ogonek;
pos = (491,0);
},
{
name = top;
pos = (266,520);
}
);
layerId = "9527F797-22C1-480E-A1FE-2CDBEBE1FD4C";
shapes = (
{
closed = 1;
nodes = (
(271,-10,o),
(349,19,o),
(385,60,c),
(387,60,l),
(388,0,l),
(491,0,l),
(491,328,ls),
(491,478,o),
(438,530,o),
(285,530,cs),
(203.66,530,o),
(120.166,514.924,o),
(53.375,489.03,c),
(67.595,400.391,l),
(130.765,426.226,o),
(202.949,440,o),
(271,440,cs),
(357,440,o),
(383,417,o),
(383,338,c),
(308,338,ls),
(131,338,o),
(31,269,o),
(31,148,cs),
(31,51,o),
(95,-10,o),
(199,-10,cs)
);
},
{
closed = 1;
nodes = (
(174,78,o),
(139,108,o),
(139,158,cs),
(139,223,o),
(200,256,o),
(323,256,cs),
(383,256,l),
(383,188,ls),
(383,127,o),
(318,78,o),
(237,78,cs)
);
}
);
width = 553;
},
{
anchors = (
{
name = bottom;
pos = (283,0);
},
{
name = ogonek;
pos = (532,0);
},
{
name = top;
pos = (283,520);
}
);
layerId = "9E6B41AB-2970-4C41-8B35-4DBE0D296A43";
shapes = (
{
closed = 1;
nodes = (
(244,-10,o),
(303,16,o),
(342,60,c),
(344,60,l),
(346,0,l),
(532,0,l),
(532,330,ls),
(532,476,o),
(470,530,o),
(303,530,cs),
(210.806,530,o),
(114.756,516.503,o),
(41.643,492.601,c),
(61.866,352.795,l),
(127.918,375.773,o),
(210.555,390,o),
(276,390,cs),
(326,390,o),
(336,380,o),
(336,330,c),
(282,330,ls),
(116,330,o),
(22,265,o),
(22,150,cs),
(22,53,o),
(85,-10,o),
(182,-10,cs)
);
},
{
closed = 1;
nodes = (
(219,125,o),
(198,141,o),
(198,170,cs),
(198,208,o),
(233,225,o),
(312,225,cs),
(336,225,l),
(336,185,ls),
(336,148,o),
(305,125,o),
(258,125,cs)
);
}
);
width = 575;
},
{
anchors = (
{
name = bottom;
pos = (255,0);
},
{
name = ogonek;
pos = (464,0);
},
{
name = top;
pos = (255,520);
}
);
associatedMasterId = "D65C9A1E-0FCA-4B2D-8EDF-9F36CA9182A1";
attr = {
coordinates = (
232
);
};
layerId = "37E9DD48-F59F-412B-917A-B9493104890B";
name = "{232}";
shapes = (
{
closed = 1;
nodes = (
(295,-10,o),
(379,28,o),
(414,82,c),
(416,82,l),
(416,0,l),
(464,0,l),
(464,326,ls),
(464,477,o),
(415,530,o),
(273,530,cs),
(197.2,530,o),
(122.851,514.042,o),
(57.365,485.215,c),
(70.635,445.714,l),
(132.279,472.471,o),
(199.793,487,o),
(268,487,cs),
(380,487,o),
(414,450,o),
(414,329,c),
(325,329,ls),
(139,329,o),
(37,264,o),
(37,146,cs),
(37,50,o),
(104,-10,o),
(210,-10,cs)
);
},
{
closed = 1;
nodes = (
(136,32,o),
(86,77,o),
(86,149,cs),
(86,240,o),
(169,289,o),
(330,289,cs),
(414,289,l),
(414,189,ls),
(414,102,o),
(330,32,o),
(223,32,cs)
);
}
);
width = 538;
}
);
metricLeft = "=h*.4";
metricRight = "=h";
unicode = 97;
},
{
glyphname = ae;
kernLeft = a;
kernRight = o;
lastChange = "2021-05-05 05:27:35 +0000";
layers = (
{
anchors = (
{
name = bottom;
pos = (464,0);
},
{
name = top;
pos = (464,520);
}
);
layerId = "D65C9A1E-0FCA-4B2D-8EDF-9F36CA9182A1";
shapes = (
{
closed = 1;
nodes = (
(118,10,o),
(60,62,o),
(60,145,cs),
(60,249,o),
(154,305,o),
(334,305,cs),
(430,305,l),
(430,190,ls),
(430,89,o),
(336,10,o),
(216,10,cs)
);
},
{
closed = 1;
nodes = (
(347,-10,o),
(450,78,o),
(450,190,cs),
(450,325,ls),
(450,477,o),
(403,530,o),
(267,530,cs),
(202,530,o),
(140,516,o),
(83,490,c),
(92,472,l),
(147,497,o),
(205,510,o),
(267,510,cs),
(391,510,o),
(430,466,o),
(430,325,c),
(334,325,ls),
(143,325,o),
(40,262,o),
(40,145,cs),
(40,50,o),
(108,-10,o),
(216,-10,cs)
);
},
{
closed = 1;
nodes = (
(744,-13,o),
(808,1,o),
(860,27,c),
(851,45,l),
(802,21,o),
(742,7,o),
(682,7,cs),
(532,7,o),
(450,94,o),
(450,257,c),
(450,257,l),
(450,415,o),
(530,507,o),
(665,507,cs),
(793,507,o),
(860,425,o),
(860,265,c),
(870,275,l),
(440,275,l),
(440,255,l),
(880,255,l),
(880,260,o),
(880,260,o),
(880,265,cs),
(880,435,o),
(805,527,o),
(665,527,cs),
(518,527,o),
(430,425,o),
(430,257,cs),
(430,84,o),
(520,-13,o),
(682,-13,cs)
);
}
);
width = 928;
},
{
anchors = (
{
name = bottom;
pos = (456,0);
},
{
name = top;
pos = (456,520);
}
);
layerId = "9527F797-22C1-480E-A1FE-2CDBEBE1FD4C";
shapes = (
{
closed = 1;
nodes = (
(174,78,o),
(139,108,o),
(139,158,cs),
(139,223,o),
(200,256,o),
(323,256,cs),
(383,256,l),
(383,188,ls),
(383,127,o),
(318,78,o),
(237,78,cs)
);
},
{
closed = 1;
nodes = (
(380,-10,o),
(489,95,o),
(489,250,cs),
(489,328,ls),
(489,478,o),
(437,530,o),
(285,530,cs),
(211,530,o),
(135,518,o),
(75,496,c),
(89,407,l),
(145,428,o),
(210,440,o),
(271,440,cs),
(357,440,o),
(383,417,o),
(383,338,c),
(308,338,ls),
(131,338,o),
(31,269,o),
(31,148,cs),
(31,48,o),
(100,-10,o),
(219,-10,cs)
);
},
{
closed = 1;
nodes = (
(729,-10,o),
(797,3,o),
(848,24,c),
(834,111,l),
(785,92,o),
(716,80,o),
(660,80,cs),
(545,80,o),
(489,132,o),
(489,240,c),
(489,270,l),
(489,382,o),
(540,442,o),
(636,442,cs),
(727,442,o),
(772,387,o),
(772,274,c),
(789,300,l),
(443,300,l),
(443,215,l),
(871,215,l),
(872,227,o),
(873,251,o),
(873,269,cs),
(873,436,o),
(788,530,o),
(636,530,cs),
(478,530,o),
(383,428,o),
(383,260,cs),
(383,87,o),
(484,-10,o),
(664,-10,cs)
);
}
);
width = 910;
},
{
anchors = (
{
name = bottom;
pos = (444,0);
},
{
name = top;
pos = (444,520);
}
);
layerId = "9E6B41AB-2970-4C41-8B35-4DBE0D296A43";
shapes = (
{
closed = 1;
nodes = (
(219,125,o),
(198,141,o),
(198,170,cs),
(198,208,o),
(233,225,o),
(312,225,cs),
(336,225,l),
(336,185,ls),
(336,148,o),
(305,125,o),
(258,125,cs)
);
},
{
closed = 1;
nodes = (
(409,-10,o),
(527,114,o),
(527,310,cs),
(527,330,ls),
(527,476,o),
(466,530,o),
(303,530,cs),
(220,530,o),
(133,520,o),
(67,501,c),
(87,361,l),
(145,379,o),
(218,390,o),
(276,390,cs),
(326,390,o),
(336,380,o),
(336,330,c),
(282,330,ls),
(116,330,o),
(22,265,o),
(22,150,cs),
(22,49,o),
(96,-10,o),
(222,-10,cs)
);
},
{
closed = 1;
nodes = (
(714,-10,o),
(788,1,o),
(835,18,c),
(815,158,l),
(768,142,o),
(694,130,o),
(637,130,cs),
(559,130,o),
(527,156,o),
(527,220,cs),
(527,280,ls),
(527,367,o),
(551,405,o),
(605,405,cs),
(659,405,o),
(683,367,o),
(683,280,c),
(706,315,l),
(445,315,l),
(445,200,l),
(861,200,l),
(863,211,o),
(865,246,o),
(865,270,cs),
(865,434,o),
(769,530,o),
(605,530,cs),
(437,530,o),
(335,428,o),
(335,260,cs),
(335,86,o),
(445,-10,o),
(645,-10,cs)
);
}
);
width = 891;
}
);
metricLeft = "=a";
metricRight = "=e";
unicode = 230;
},
{
glyphname = b;
kernLeft = b;
kernRight = o;
lastChange = "2021-05-05 05:27:35 +0000";
layers = (
{
layerId = "D65C9A1E-0FCA-4B2D-8EDF-9F36CA9182A1";
shapes = (
{
closed = 1;
nodes = (
(458,-10,o),
(539,90,o),
(539,260,cs),
(539,430,o),
(458,530,o),
(320,530,cs),
(229,530,o),
(155,486,o),
(121,412,c),
(119,412,l),
(119,730,l),
(99,730,l),
(99,0,l),
(119,0,l),
(119,108,l),
(121,108,l),
(155,34,o),
(229,-10,o),
(320,-10,cs)
);
},
{
closed = 1;
nodes = (
(202,10,o),
(119,88,o),
(119,200,cs),
(119,320,ls),
(119,432,o),
(202,510,o),
(320,510,cs),
(446,510,o),
(519,420,o),
(519,260,cs),
(519,100,o),
(446,10,o),
(320,10,cs)
);
}
);
width = 589;
},
{
layerId = "9E6B41AB-2970-4C41-8B35-4DBE0D296A43";
shapes = (
{
closed = 1;
nodes = (
(540,-10,o),
(614,85,o),
(614,260,cs),
(614,435,o),
(540,530,o),
(405,530,cs),
(343,530,o),
(300,510,o),
(252,460,c),
(250,460,l),
(250,730,l),
(54,730,l),
(54,0,l),
(240,0,l),
(242,60,l),
(244,60,l),
(293,11,o),
(341,-10,o),
(405,-10,cs)
);
},
{
closed = 1;
nodes = (
(284,140,o),
(250,172,o),
(250,220,cs),
(250,300,ls),
(250,348,o),
(284,380,o),
(334,380,cs),
(391,380,o),
(422,338,o),
(422,260,cs),
(422,182,o),
(391,140,o),
(334,140,cs)
);
}
);
width = 641;
},
{
associatedMasterId = "D65C9A1E-0FCA-4B2D-8EDF-9F36CA9182A1";
attr = {
coordinates = (
232
);
};
layerId = "4577C09C-2268-4FDD-969E-4BC558CAFA0A";
name = "{232}";
shapes = (
{
closed = 1;
nodes = (
(470,-10,o),
(552,90,o),
(552,260,cs),
(552,430,o),
(470,530,o),
(332,530,cs),
(251,530,o),
(177,495,o),
(143,441,c),
(141,441,l),
(141,730,l),
(92,730,l),
(92,0,l),
(139,0,l),
(139,79,l),
(141,79,l),
(176,25,o),
(251,-10,o),
(332,-10,cs)
);
},
{
closed = 1;
nodes = (
(217,33,o),
(141,104,o),
(141,204,cs),
(141,316,ls),
(141,416,o),
(217,487,o),
(323,487,cs),
(437,487,o),
(503,405,o),
(503,260,cs),
(503,115,o),
(437,33,o),
(323,33,cs)
);
}
);
width = 598;
},
{
layerId = "9527F797-22C1-480E-A1FE-2CDBEBE1FD4C";
shapes = (
{
closed = 1;
nodes = (
(494,-10,o),
(577,91,o),
(577,260,cs),
(577,429,o),
(494,530,o),
(355,530,cs),
(285,530,o),
(224,504,o),
(187,458,c),
(185,458,l),
(185,730,l),
(77,730,l),
(77,0,l),
(180,0,l),
(181,62,l),
(183,62,l),
(221,16,o),
(284,-10,o),
(355,-10,cs)
);
},
{
closed = 1;
nodes = (
(247,80,o),
(185,136,o),
(185,211,cs),
(185,309,ls),
(185,384,o),
(247,440,o),
(330,440,cs),
(420,440,o),
(471,375,o),
(471,260,cs),
(471,145,o),
(420,80,o),
(330,80,cs)
);
}
);
width = 616;
}
);
metricLeft = "=h";
metricRight = "=o";
unicode = 98;
},
{
glyphname = c;
kernLeft = o;
kernRight = c;
lastChange = "2021-05-05 05:27:35 +0000";
layers = (
{
anchors = (
{
name = bottom;
pos = (295,0);
},
{
name = cedi;
pos = (232,0);
},
{
name = top;
pos = (302,520);
}
);
layerId = "9E6B41AB-2970-4C41-8B35-4DBE0D296A43";
shapes = (
{
closed = 1;
nodes = (
(400,-10,o),
(453,2,o),
(507,30,c),
(477,170,l),
(429,143,o),
(389,130,o),
(347,130,cs),
(269,130,o),
(227,175,o),
(227,260,cs),
(227,345,o),
(269,390,o),
(347,390,cs),
(389,390,o),
(429,377,o),
(477,350,c),
(507,490,l),
(453,518,o),
(400,530,o),
(332,530,cs),
(137,530,o),
(27,433,o),
(27,260,cs),
(27,87,o),
(137,-10,o),
(332,-10,cs)
);
}
);
width = 550;
},
{
anchors = (
{
name = bottom;
pos = (287,0);
},
{
name = cedi;
pos = (240,0);
},
{
name = top;
pos = (292,520);
}
);
layerId = "9527F797-22C1-480E-A1FE-2CDBEBE1FD4C";
shapes = (
{
closed = 1;
nodes = (
(379,-10,o),
(429,1,o),
(479,27,c),
(460,114,l),
(414,90,o),
(371,80,o),
(327,80,cs),
(214,80,o),
(149,146,o),
(149,260,cs),
(149,374,o),
(214,440,o),
(327,440,cs),
(371,440,o),
(414,430,o),
(460,406,c),
(479,493,l),
(429,519,o),
(379,530,o),
(320,530,cs),
(143,530,o),
(39,430,o),
(39,260,cs),
(39,90,o),
(143,-10,o),
(320,-10,cs)
);
}
);
width = 541;
},
{
anchors = (
{
name = bottom;
pos = (277,0);
},
{
name = cedi;
pos = (247,0);
},
{
name = top;
pos = (292,520);
}
);
layerId = "D65C9A1E-0FCA-4B2D-8EDF-9F36CA9182A1";
shapes = (
{
closed = 1;
nodes = (
(357,-10,o),
(403,1,o),
(450,25,c),
(441,43,l),
(397,20,o),
(354,10,o),
(306,10,cs),
(159,10,o),
(70,105,o),
(70,260,cs),
(70,415,o),
(159,510,o),
(306,510,cs),
(354,510,o),
(397,500,o),
(441,477,c),
(450,495,l),
(403,519,o),
(357,530,o),
(306,530,cs),
(148,530,o),
(50,426,o),
(50,260,cs),
(50,94,o),
(148,-10,o),
(306,-10,cs)
);
}
);
width = 529;
}
);
metricLeft = "=o";
metricRight = "=h";
unicode = 99;
},
{
glyphname = eth;
kernLeft = o;
kernRight = o;
lastChange = "2021-05-05 05:27:35 +0000";
layers = (
{
layerId = "D65C9A1E-0FCA-4B2D-8EDF-9F36CA9182A1";
metricRight = "=d*.3";
shapes = (
{
closed = 1;
nodes = (
(430,-10,o),
(520,84,o),
(520,235,cs),
(520,445,o),
(341,735,o),
(177,790,c),
(170,772,l),
(286,733,o),
(414,566,o),
(471,399,c),
(469,398,l),
(428,451,o),
(365,480,o),
(285,480,cs),
(140,480,o),
(50,386,o),
(50,235,cs),
(50,84,o),
(140,-10,o),
(285,-10,cs)
);
},
{
closed = 1;
nodes = (
(151,10,o),
(70,95,o),
(70,235,cs),
(70,375,o),
(151,460,o),
(285,460,cs),
(419,460,o),
(500,375,o),
(500,235,cs),
(500,95,o),
(419,10,o),
(285,10,cs)
);
},
{
closed = 1;
nodes = (
(551,697,l),
(543,715,l),
(103,540,l),
(111,522,l)
);
}
);
width = 581;
},
{
layerId = "9527F797-22C1-480E-A1FE-2CDBEBE1FD4C";
metricRight = "=d*.5";
shapes = (
{
closed = 1;
nodes = (
(458,-10,o),
(549,88,o),
(549,263,cs),
(549,544,o),
(384,758,o),
(144,790,c),
(124,700,l),
(262,681,o),
(375,579,o),
(418,435,c),
(416,434,l),
(383,465,o),
(338,480,o),
(279,480,cs),
(130,480,o),
(39,391,o),
(39,243,cs),
(39,84,o),
(134,-10,o),
(294,-10,cs)
);
},
{
closed = 1;
nodes = (
(201,80,o),
(147,140,o),
(147,243,cs),
(147,341,o),
(196,390,o),
(294,390,cs),
(392,390,o),
(441,341,o),
(441,243,cs),
(441,140,o),
(387,80,o),
(294,80,cs)
);
},
{
closed = 1;
nodes = (
(559,665,l),
(523,749,l),
(83,574,l),
(119,490,l)
);
}
);
width = 598;
},
{
layerId = "9E6B41AB-2970-4C41-8B35-4DBE0D296A43";
metricRight = "=d*.7";
shapes = (
{
closed = 1;
nodes = (
(488,-10,o),
(577,84,o),
(577,280,cs),
(577,601,o),
(419,776,o),
(117,790,c),
(77,660,l),
(241,652,o),
(358,575,o),
(364,471,c),
(362,470,l),
(338,476,o),
(306,480,o),
(272,480,cs),
(116,480,o),
(27,397,o),
(27,250,cs),
(27,89,o),
(131,-10,o),
(302,-10,cs)
);
},
{
closed = 1;
nodes = (
(246,125,o),
(221,163,o),
(221,250,cs),
(221,337,o),
(246,375,o),
(302,375,cs),
(358,375,o),
(383,337,o),
(383,250,cs),
(383,163,o),
(358,125,o),
(302,125,cs)
);
},
{
closed = 1;
nodes = (
(562,643,l),
(507,773,l),
(67,598,l),
(122,468,l)
);
}
);
width = 615;
},
{
associatedMasterId = "D65C9A1E-0FCA-4B2D-8EDF-9F36CA9182A1";
attr = {
coordinates = (
232
);
};
layerId = "7EB7DD1D-0E67-4B53-AED1-36A39ED50BF4";
metricRight = "=d*.3";
name = "{232}";
shapes = (
{
closed = 1;
nodes = (
(439,-10,o),
(529,85,o),
(529,244,cs),
(529,478,o),
(355,743,o),
(165,790,c),
(150,749,l),
(272,720,o),
(395,578,o),
(450,423,c),
(448,422,l),
(409,459,o),
(353,480,o),
(282,480,cs),
(136,480,o),
(46,388,o),
(46,238,cs),
(46,84,o),
(137,-10,o),
(287,-10,cs)
);
},
{
closed = 1;
nodes = (
(167,33,o),
(95,110,o),
(95,238,cs),
(95,364,o),
(165,437,o),
(287,437,cs),
(409,437,o),
(480,364,o),
(480,238,cs),
(480,110,o),
(408,33,o),
(287,33,cs)
);
},
{
closed = 1;
nodes = (
(553,686,l),
(536,726,l),
(96,551,l),
(113,511,l)
);
}
);
width = 581;
}
);
metricLeft = "=o";
metricRight = "=d*.6";
unicode = 240;
},
{
glyphname = dcroat;
kernLeft = o;
kernRight = W;
lastChange = "2021-05-05 05:27:35 +0000";
layers = (
{
layerId = "D65C9A1E-0FCA-4B2D-8EDF-9F36CA9182A1";
shapes = (
{
closed = 1;
nodes = (
(587,605,l),
(587,625,l),
(167,625,l),
(167,605,l)
);
},
{
ref = d;
}
);
width = 622;
},
{
layerId = "9527F797-22C1-480E-A1FE-2CDBEBE1FD4C";
shapes = (
{
closed = 1;
nodes = (
(633,570,l),
(633,660,l),
(213,660,l),
(213,570,l)
);
},
{
alignment = -1;
ref = d;
}
);
width = 663;
},
{
layerId = "9E6B41AB-2970-4C41-8B35-4DBE0D296A43";
shapes = (
{
closed = 1;
nodes = (
(679,545,l),
(679,685,l),
(259,685,l),
(259,545,l)
);
},
{
ref = d;
}
);
width = 703;
}
);
metricLeft = "=d";
metricRight = "=W";
unicode = 273;
},
{
glyphname = e;
kernLeft = o;
kernRight = o;
lastChange = "2021-05-05 05:27:35 +0000";
layers = (
{
anchors = (
{
name = bottom;
pos = (287,0);
},
{
name = ogonek;
pos = (504,24);
},
{
name = top;
pos = (287,520);
}
);
layerId = "9527F797-22C1-480E-A1FE-2CDBEBE1FD4C";
shapes = (
{
closed = 1;
nodes = (
(385,-10,o),
(453,3,o),
(504,24,c),
(490,111,l),
(441,92,o),
(372,80,o),
(316,80,cs),
(201,80,o),
(145,132,o),
(145,240,c),
(145,270,l),
(145,382,o),
(196,442,o),
(292,442,cs),
(383,442,o),
(428,387,o),
(428,274,c),
(445,300,l),
(99,300,l),
(99,215,l),
(527,215,l),
(528,227,o),
(529,251,o),
(529,269,cs),
(529,436,o),
(444,530,o),
(292,530,cs),
(134,530,o),
(39,428,o),
(39,260,cs),
(39,87,o),
(140,-10,o),
(320,-10,cs)
);
}
);
width = 566;
},
{
anchors = (
{
name = bottom;
pos = (297,0);
},
{
name = ogonek;
pos = (527,18);
},
{
name = top;
pos = (297,520);
}
);
layerId = "9E6B41AB-2970-4C41-8B35-4DBE0D296A43";
shapes = (
{
closed = 1;
nodes = (
(406,-10,o),
(480,1,o),
(527,18,c),
(507,158,l),
(460,142,o),
(386,130,o),
(329,130,cs),
(251,130,o),
(219,156,o),
(219,220,cs),
(219,280,ls),
(219,367,o),
(243,405,o),
(297,405,cs),
(351,405,o),
(375,367,o),
(375,280,c),
(398,315,l),
(137,315,l),
(137,200,l),
(553,200,l),
(555,211,o),
(557,246,o),
(557,270,cs),
(557,434,o),
(461,530,o),
(297,530,cs),
(129,530,o),
(27,428,o),
(27,260,cs),
(27,86,o),
(137,-10,o),
(337,-10,cs)
);
}
);
width = 583;
},
{
anchors = (
{
name = bottom;
pos = (276,0);
},
{
name = ogonek;
pos = (480,30);
},
{
name = top;
pos = (276,520);
}
);
layerId = "D65C9A1E-0FCA-4B2D-8EDF-9F36CA9182A1";
shapes = (
{
closed = 1;
nodes = (
(364,-10,o),
(428,4,o),
(480,30,c),
(471,48,l),
(422,24,o),
(362,10,o),
(302,10,cs),
(152,10,o),
(70,97,o),
(70,260,c),
(70,260,l),
(70,418,o),
(150,510,o),
(285,510,cs),
(413,510,o),
(480,428,o),
(480,268,c),
(490,278,l),
(60,278,l),
(60,258,l),
(500,258,l),
(500,263,o),
(500,263,o),
(500,268,cs),
(500,438,o),
(425,530,o),
(285,530,cs),
(138,530,o),
(50,428,o),
(50,260,cs),
(50,87,o),
(140,-10,o),
(302,-10,cs)
);
}
);
width = 548;
}
);
metricLeft = "=o";
metricRight = "=o*.95";
unicode = 101;
},
{
glyphname = f;
kernLeft = f;
kernRight = f;
lastChange = "2021-05-05 05:27:35 +0000";
layers = (
{
layerId = "9527F797-22C1-480E-A1FE-2CDBEBE1FD4C";
shapes = (
{
closed = 1;
nodes = (
(270,0,l),
(270,410,l),
(440,410,l),
(440,500,l),
(270,500,l),
(270,577,ls),
(270,650,o),
(294,677,o),
(359,677,cs),
(383,677,o),
(406,673,o),
(430,665,c),
(443,755,l),
(415,764,o),
(379,770,o),
(342,770,cs),
(222,770,o),
(161,708,o),
(161,585,cs),
(161,500,l),
(23,500,l),
(23,410,l),
(161,410,l),
(161,0,l)
);
}
);
width = 466;
},
{
layerId = "9E6B41AB-2970-4C41-8B35-4DBE0D296A43";
shapes = (
{
closed = 1;
nodes = (
(325,0,l),
(325,360,l),
(461,360,l),
(461,500,l),
(325,500,l),
(325,550,ls),
(325,605,o),
(338,620,o),
(380,620,cs),
(399,620,o),
(421,617,o),
(446,610,c),
(466,755,l),
(427,765,o),
(381,770,o),
(345,770,cs),
(203,770,o),
(127,693,o),
(127,550,cs),
(127,500,l),
(16,500,l),
(16,360,l),
(127,360,l),
(127,0,l)
);
}
);
width = 482;
},
{
layerId = "D65C9A1E-0FCA-4B2D-8EDF-9F36CA9182A1";
shapes = (
{
closed = 1;
nodes = (
(214,0,l),
(214,480,l),
(418,480,l),
(418,500,l),
(214,500,l),
(214,620,ls),
(214,711,o),
(251,750,o),
(338,750,cs),
(365,750,o),
(386,746,o),
(413,736,c),
(420,755,l),
(390,766,o),
(366,770,o),
(338,770,cs),
(240,770,o),
(194,722,o),
(194,620,cs),
(194,500,l),
(30,500,l),
(30,480,l),
(194,480,l),
(194,0,l)
);
}
);
width = 450;
}
);
metricLeft = "=h*.3";
metricRight = "=d*.3";
unicode = 102;
},
{
glyphname = g;
kernLeft = o;
kernRight = g;
lastChange = "2021-05-05 05:27:35 +0000";
layers = (
{
anchors = (
{
name = bottom;
pos = (292,-140);
},
{
name = top;
pos = (292,520);
}
);
layerId = "D65C9A1E-0FCA-4B2D-8EDF-9F36CA9182A1";
shapes = (
{
closed = 1;
nodes = (
(420,-220,o),
(490,-142,o),
(490,40,cs),
(490,520,l),
(470,520,l),
(470,416,l),
(468,416,l),
(433,489,o),
(361,530,o),
(270,530,cs),
(132,530,o),
(50,435,o),
(50,275,cs),
(50,115,o),
(132,20,o),
(270,20,cs),
(361,20,o),
(433,61,o),
(468,134,c),
(470,134,l),
(470,40,ls),
(470,-131,o),
(409,-200,o),
(258,-200,cs),
(187,-200,o),
(127,-185,o),
(78,-155,c),
(68,-172,l),
(120,-204,o),
(184,-220,o),
(258,-220,cs)
);
},
{
closed = 1;
nodes = (
(144,40,o),
(70,125,o),
(70,275,cs),
(70,425,o),
(144,510,o),
(270,510,cs),
(388,510,o),
(470,436,o),
(470,331,cs),
(470,219,ls),
(470,114,o),
(388,40,o),
(270,40,cs)
);
}
);
width = 589;
},
{
anchors = (
{
name = bottom;
pos = (307,-140);
},
{
name = top;
pos = (307,520);
}
);
layerId = "9527F797-22C1-480E-A1FE-2CDBEBE1FD4C";
shapes = (
{
closed = 1;
nodes = (
(455,-220,o),
(539,-133,o),
(539,55,cs),
(539,520,l),
(436,520,l),
(435,462,l),
(433,462,l),
(395,505,o),
(332,530,o),
(261,530,cs),
(122,530,o),
(39,435,o),
(39,275,cs),
(39,115,o),
(122,20,o),
(261,20,cs),
(330,20,o),
(391,44,o),
(429,88,c),
(431,88,l),
(431,55,ls),
(431,-77,o),
(383,-130,o),
(262,-130,cs),
(195,-130,o),
(127,-114,o),
(79,-86,c),
(64,-174,l),
(113,-203,o),
(190,-220,o),
(272,-220,cs)
);
},
{
closed = 1;
nodes = (
(196,110,o),
(145,170,o),
(145,275,cs),
(145,380,o),
(196,440,o),
(286,440,cs),
(369,440,o),
(431,391,o),
(431,325,cs),
(431,225,ls),
(431,159,o),
(369,110,o),
(286,110,cs)
);
}
);
width = 616;
},
{
anchors = (
{
name = bottom;
pos = (322,-140);
},
{
name = top;
pos = (322,520);
}
);
layerId = "9E6B41AB-2970-4C41-8B35-4DBE0D296A43";
shapes = (
{
closed = 1;
nodes = (
(486,-220,o),
(587,-123,o),
(587,70,cs),
(587,520,l),
(401,520,l),
(399,464,l),
(397,464,l),
(348,510,o),
(299,530,o),
(236,530,cs),
(101,530,o),
(27,440,o),
(27,275,cs),
(27,110,o),
(101,20,o),
(236,20,cs),
(298,20,o),
(340,38,o),
(389,86,c),
(391,86,l),
(391,70,l),
(391,-39,o),
(357,-80,o),
(266,-80,cs),
(206,-80,o),
(129,-62,o),
(79,-36,c),
(59,-176,l),
(109,-203,o),
(197,-220,o),
(285,-220,cs)
);
},
{
closed = 1;
nodes = (
(251,170,o),
(219,208,o),
(219,275,cs),
(219,342,o),
(251,380,o),
(307,380,cs),
(356,380,o),
(391,351,o),
(391,310,cs),
(391,240,ls),
(391,199,o),
(356,170,o),
(307,170,cs)
);
}
);
width = 641;
},
{
anchors = (
{
name = bottom;
pos = (297,-140);
},
{
name = top;
pos = (297,520);
}
);
associatedMasterId = "D65C9A1E-0FCA-4B2D-8EDF-9F36CA9182A1";
attr = {
coordinates = (
232
);
};
layerId = "2CB2E316-DF26-4020-8926-4C268D4E13F3";
name = "{232}";
shapes = (
{
closed = 1;
nodes = (
(431,-220,o),
(506,-139,o),
(506,45,cs),
(506,520,l),
(458,520,l),
(458,445,l),
(456,445,l),
(421,497,o),
(349,530,o),
(267,530,cs),
(128,530,o),
(46,435,o),
(46,275,cs),
(46,115,o),
(128,20,o),
(267,20,cs),
(349,20,o),
(422,53,o),
(455,105,c),
(457,105,l),
(457,45,ls),
(457,-113,o),
(400,-177,o),
(259,-177,cs),
(189,-177,o),
(127,-162,o),
(78,-132,c),
(66,-173,l),
(117,-204,o),
(186,-220,o),
(262,-220,cs)
);
},
{
closed = 1;
nodes = (
(161,63,o),
(94,140,o),
(94,275,cs),
(94,410,o),
(161,487,o),
(275,487,cs),
(381,487,o),
(457,421,o),
(457,329,cs),
(457,221,ls),
(457,129,o),
(381,63,o),
(275,63,cs)
);
}
);
width = 598;
}
);
metricLeft = "=d";
metricRight = "=u";
unicode = 103;
},
{
glyphname = h;
kernLeft = b;
kernRight = h;
lastChange = "2021-05-05 05:27:35 +0000";
layers = (
{
anchors = (
{
name = bottom;
pos = (294,0);
},
{
name = center;
pos = (294,430);
},
{
name = top;
pos = (294,730);
}
);
layerId = "D65C9A1E-0FCA-4B2D-8EDF-9F36CA9182A1";
shapes = (
{
closed = 1;
nodes = (
(119,0,l),
(119,320,ls),
(119,432,o),
(205,510,o),
(329,510,cs),
(438,510,o),
(489,449,o),
(489,320,cs),
(489,0,l),
(509,0,l),
(509,320,ls),
(509,460,o),
(450,530,o),
(329,530,cs),
(233,530,o),
(157,487,o),
(121,412,c),
(119,412,l),
(119,730,l),
(99,730,l),
(99,0,l)
);
}
);
width = 588;
},
{
anchors = (
{
name = bottom;
pos = (303,0);
},
{
name = center;
pos = (303,430);
},
{
name = top;
pos = (303,730);
}
);
layerId = "9527F797-22C1-480E-A1FE-2CDBEBE1FD4C";
shapes = (
{
closed = 1;
nodes = (
(185,0,l),
(185,309,ls),
(186,385,o),
(246,440,o),
(330,440,cs),
(405,440,o),
(440,396,o),
(439,300,cs),
(439,0,l),
(547,0,l),
(547,320,ls),
(548,464,o),
(489,530,o),
(360,530,cs),
(285,530,o),
(228,506,o),
(187,458,c),
(185,458,l),
(185,730,l),
(77,730,l),
(77,0,l)
);
}
);
width = 609;
},
{
anchors = (
{
name = bottom;
pos = (310,0);
},
{
name = center;
pos = (310,430);
},
{
name = top;
pos = (310,730);
}
);
layerId = "9E6B41AB-2970-4C41-8B35-4DBE0D296A43";
shapes = (
{
closed = 1;
nodes = (
(250,0,l),
(250,300,ls),
(250,341,o),
(283,370,o),
(329,370,cs),
(372,370,o),
(388,345,o),
(388,280,cs),
(388,0,l),
(584,0,l),
(584,320,ls),
(584,466,o),
(531,530,o),
(409,530,cs),
(342,530,o),
(299,511,o),
(252,460,c),
(250,460,l),
(250,730,l),
(54,730,l),
(54,0,l)
);
}
);
width = 627;
},
{
anchors = (
{
name = bottom;
pos = (297,0);
},
{
name = center;
pos = (297,430);
},
{
name = top;
pos = (297,730);
}
);
associatedMasterId = "D65C9A1E-0FCA-4B2D-8EDF-9F36CA9182A1";
attr = {
coordinates = (
232
);
};
layerId = "02FE662A-EEF6-4625-B8CE-6C497DD97EB0";
name = "{232}";
shapes = (
{
closed = 1;
nodes = (
(141,0,l),
(141,316,ls),
(141,416,o),
(219,487,o),
(330,487,cs),
(427,487,o),
(473,432,o),
(473,313,cs),
(473,0,l),
(522,0,l),
(522,320,ls),
(522,463,o),
(465,530,o),
(340,530,cs),
(253,530,o),
(180,497,o),
(143,441,c),
(141,441,l),
(141,730,l),
(92,730,l),
(92,0,l)
);
}
);
width = 596;
}
);
metricLeft = "=H*.9";
metricRight = "=|*.8";
unicode = 104;
},
{
glyphname = hbar;
kernLeft = W;
kernRight = h;
lastChange = "2021-05-05 05:27:35 +0000";
layers = (
{
anchors = (
{
name = bottom;
pos = (340,0);
},
{
name = center;
pos = (340,430);
},
{
name = top;
pos = (340,750);
}
);
layerId = "D65C9A1E-0FCA-4B2D-8EDF-9F36CA9182A1";
shapes = (
{
closed = 1;
nodes = (
(455,625,l),
(35,625,l),
(35,605,l),
(455,605,l)
);
},
{
pos = (70,0);
ref = h;
}
);
width = 658;
},
{
anchors = (
{
name = bottom;
pos = (358,0);
},
{
name = center;
pos = (358,430);
},
{
name = top;
pos = (358,750);
}
);
layerId = "9527F797-22C1-480E-A1FE-2CDBEBE1FD4C";
shapes = (
{
closed = 1;
nodes = (
(450,660,l),
(30,660,l),
(30,570,l),
(450,570,l)
);
},
{
alignment = -1;
pos = (68,0);
ref = h;
}
);
width = 677;
},
{
anchors = (
{
name = bottom;
pos = (375,0);
},
{
name = center;
pos = (375,430);
},
{
name = top;
pos = (375,750);
}
);
layerId = "9E6B41AB-2970-4C41-8B35-4DBE0D296A43";
shapes = (
{
closed = 1;
nodes = (
(444,685,l),
(24,685,l),
(24,545,l),
(444,545,l)
);
},
{
pos = (65,0);
ref = h;
}
);
width = 692;
}
);
metricLeft = "=W";
metricRight = "=h";
unicode = 295;
},
{
glyphname = i;
kernLeft = l;
kernRight = l;
lastChange = "2021-05-05 05:27:35 +0000";
layers = (
{
anchors = (
{
name = bottom;
pos = (140,0);
},
{
name = ogonek;
pos = (195,0);
}
);
layerId = "9527F797-22C1-480E-A1FE-2CDBEBE1FD4C";
shapes = (
{
closed = 1;
nodes = (
(195,620,l),
(195,730,l),
(85,730,l),
(85,620,l)
);
},
{
closed = 1;
nodes = (
(195,0,l),
(195,520,l),
(85,520,l),
(85,0,l)
);
}
);
width = 280;
},
{
anchors = (
{
name = bottom;
pos = (159,0);
},
{
name = ogonek;
pos = (259,0);
}
);
layerId = "9E6B41AB-2970-4C41-8B35-4DBE0D296A43";
shapes = (
{
closed = 1;
nodes = (
(259,570,l),
(259,730,l),
(59,730,l),
(59,570,l)
);
},
{
closed = 1;
nodes = (
(259,0,l),
(259,500,l),
(59,500,l),
(59,0,l)
);
}
);
width = 318;
},
{
anchors = (
{
name = bottom;
pos = (139,0);
},
{
name = ogonek;
pos = (149,0);
}
);
layerId = "D65C9A1E-0FCA-4B2D-8EDF-9F36CA9182A1";
shapes = (
{
closed = 1;
nodes = (
(169,670,l),
(169,730,l),
(109,730,l),
(109,670,l)
);
},
{
closed = 1;
nodes = (
(149,0,l),
(149,520,l),
(129,520,l),
(129,0,l)
);
}
);
width = 278;
}
);
metricLeft = "=l";
metricRight = "=|";
unicode = 105;
},
{
glyphname = idotless;
kernLeft = l;
kernRight = l;
lastChange = "2021-05-05 05:27:35 +0000";
layers = (
{
anchors = (
{
name = bottom;
pos = (119,0);
},
{
name = ogonek;
pos = (129,0);
},
{
name = top;
pos = (119,520);
}
);
layerId = "D65C9A1E-0FCA-4B2D-8EDF-9F36CA9182A1";
shapes = (
{
closed = 1;
nodes = (
(129,0,l),
(129,520,l),
(109,520,l),
(109,0,l)
);
}
);
width = 238;
},
{
anchors = (
{
name = bottom;
pos = (140,0);
},
{
name = ogonek;
pos = (195,0);
},
{
name = top;
pos = (140,520);
}
);
layerId = "9527F797-22C1-480E-A1FE-2CDBEBE1FD4C";
shapes = (
{
closed = 1;
nodes = (
(195,0,l),
(195,520,l),
(85,520,l),
(85,0,l)
);
}
);
width = 280;
},
{
anchors = (
{
name = bottom;
pos = (159,0);
},
{
name = ogonek;
pos = (259,0);
},
{
name = top;
pos = (159,520);
}
);
layerId = "9E6B41AB-2970-4C41-8B35-4DBE0D296A43";
shapes = (
{
closed = 1;
nodes = (
(259,0,l),
(259,520,l),
(59,520,l),
(59,0,l)
);
}
);
width = 318;
}
);
metricLeft = "=l";
metricRight = "=|";
unicode = 305;
},
{
glyphname = j;
kernLeft = l;
kernRight = g;
lastChange = "2021-05-05 05:27:35 +0000";
layers = (
{
layerId = "9527F797-22C1-480E-A1FE-2CDBEBE1FD4C";
metricLeft = "=l-170";
shapes = (
{
closed = 1;
nodes = (
(-69,-220,l),
(160,-199,o),
(225,-139,o),
(225,53,cs),
(225,520,l),
(115,520,l),
(115,53,ls),
(115,-79,o),
(81,-109,o),
(-85,-126,c)
);
},
{
closed = 1;
nodes = (
(225,620,l),
(225,730,l),
(115,730,l),
(115,620,l)
);
}
);
width = 310;
},
{
layerId = "9E6B41AB-2970-4C41-8B35-4DBE0D296A43";
metricLeft = "=l-140";
shapes = (
{
closed = 1;
nodes = (
(-51,-220,l),
(214,-200,o),
(289,-136,o),
(289,70,cs),
(289,500,l),
(89,500,l),
(89,70,ls),
(89,-39,o),
(69,-56,o),
(-81,-70,c)
);
},
{
closed = 1;
nodes = (
(289,570,l),
(289,730,l),
(89,730,l),
(89,570,l)
);
}
);
width = 348;
},
{
layerId = "D65C9A1E-0FCA-4B2D-8EDF-9F36CA9182A1";
metricLeft = "=l-200";
shapes = (
{
closed = 1;
nodes = (
(-89,-220,l),
(104,-198,o),
(159,-142,o),
(159,35,cs),
(159,520,l),
(139,520,l),
(139,35,ls),
(139,-131,o),
(92,-179,o),
(-91,-200,c)
);
},
{
closed = 1;
nodes = (
(179,670,l),
(179,730,l),
(119,730,l),
(119,670,l)
);
}
);
width = 288;
}
);
metricLeft = "=-150";
metricRight = "=l";
unicode = 106;
},
{
glyphname = jdotless;
kernLeft = l;
kernRight = g;
lastChange = "2021-05-05 05:27:35 +0000";
layers = (
{
anchors = (
{
name = bottom;
pos = (114,-160);
},
{
name = top;
pos = (149,520);
}
);
layerId = "D65C9A1E-0FCA-4B2D-8EDF-9F36CA9182A1";
shapes = (
{
closed = 1;
nodes = (
(-89,-220,l),
(104,-198,o),
(159,-142,o),
(159,35,cs),
(159,520,l),
(139,520,l),
(139,35,ls),
(139,-131,o),
(92,-179,o),
(-91,-200,c)
);
}
);
width = 268;
},
{
anchors = (
{
name = bottom;
pos = (141,-160);
},
{
name = top;
pos = (170,520);
}
);
layerId = "9527F797-22C1-480E-A1FE-2CDBEBE1FD4C";
shapes = (
{
closed = 1;
nodes = (
(-69,-220,l),
(160,-199,o),
(225,-139,o),
(225,53,cs),
(225,520,l),
(115,520,l),
(115,53,ls),
(115,-79,o),
(81,-109,o),
(-85,-126,c)
);
}
);
width = 310;
},
{
anchors = (
{
name = bottom;
pos = (167,-160);
},
{
name = top;
pos = (189,520);
}
);
layerId = "9E6B41AB-2970-4C41-8B35-4DBE0D296A43";
shapes = (
{
closed = 1;
nodes = (
(-51,-220,l),
(214,-200,o),
(289,-136,o),
(289,70,cs),
(289,520,l),
(89,520,l),
(89,70,ls),
(89,-39,o),
(69,-56,o),
(-81,-70,c)
);
}
);
width = 348;
}
);
metricLeft = "=j";
metricRight = "=j";
unicode = 567;
},
{
glyphname = k;
kernLeft = b;
kernRight = x;
lastChange = "2021-05-05 05:27:35 +0000";
layers = (
{
anchors = (
{
name = bottom;
pos = (249,0);
},
{
name = top;
pos = (249,730);
}
);
layerId = "D65C9A1E-0FCA-4B2D-8EDF-9F36CA9182A1";
metricRight = "=d*.4";
shapes = (
{
closed = 1;
nodes = (
(121,0,l),
(121,262,l),
(123,262,l),
(485,0,l),
(519,0,l),
(146,270,l),
(502,520,l),
(468,520,l),
(123,278,l),
(121,278,l),
(121,730,l),
(99,730,l),
(99,0,l)
);
}
);
width = 559;
},
{
anchors = (
{
name = bottom;
pos = (273,0);
},
{
name = top;
pos = (273,730);
}
);
layerId = "9527F797-22C1-480E-A1FE-2CDBEBE1FD4C";
metricRight = "=d*.3";
shapes = (
{
closed = 1;
nodes = (
(186,0,l),
(186,235,l),
(188,235,l),
(428,0,l),
(567,0,l),
(281,270,l),
(556,520,l),
(417,520,l),
(188,306,l),
(186,306,l),
(186,730,l),
(77,730,l),
(77,0,l)
);
}
);
width = 590;
},
{
anchors = (
{
name = bottom;
pos = (295,0);
},
{
name = top;
pos = (295,730);
}
);
layerId = "9E6B41AB-2970-4C41-8B35-4DBE0D296A43";
metricRight = "=d*.2";
shapes = (
{
closed = 1;
nodes = (
(250,0,l),
(250,215,l),
(252,215,l),
(389,0,l),
(614,0,l),
(414,270,l),
(609,520,l),
(384,520,l),
(252,325,l),
(250,325,l),
(250,730,l),
(54,730,l),
(54,0,l)
);
}
);
width = 625;
}
);
metricLeft = "=h";
metricRight = "=d*.2";
unicode = 107;
},
{
glyphname = kgreenlandic;
kernLeft = n;
kernRight = x;
lastChange = "2021-05-05 05:27:35 +0000";
layers = (
{
anchors = (
{
name = bottom;
pos = (249,0);
},
{
name = top;
pos = (249,520);
}
);
layerId = "D65C9A1E-0FCA-4B2D-8EDF-9F36CA9182A1";
shapes = (
{
closed = 1;
nodes = (
(121,0,l),
(121,262,l),
(123,262,l),
(485,0,l),
(519,0,l),
(146,270,l),
(502,520,l),
(468,520,l),
(123,278,l),
(121,278,l),
(121,520,l),
(99,520,l),
(99,0,l)
);
}
);
width = 559;
},
{
anchors = (
{
name = bottom;
pos = (273,0);
},
{
name = top;
pos = (273,520);
}
);
layerId = "9527F797-22C1-480E-A1FE-2CDBEBE1FD4C";
shapes = (
{
closed = 1;
nodes = (
(186,0,l),
(186,235,l),
(188,235,l),
(428,0,l),
(567,0,l),
(281,270,l),
(556,520,l),
(417,520,l),
(188,306,l),
(186,306,l),
(186,520,l),
(77,520,l),
(77,0,l)
);
}
);
width = 590;
},
{
anchors = (
{
name = bottom;
pos = (295,0);
},
{
name = top;
pos = (295,520);
}
);
layerId = "9E6B41AB-2970-4C41-8B35-4DBE0D296A43";
shapes = (
{
closed = 1;
nodes = (
(250,0,l),
(250,215,l),
(252,215,l),
(389,0,l),
(614,0,l),
(414,270,l),
(609,520,l),
(384,520,l),
(252,325,l),
(250,325,l),
(250,520,l),
(54,520,l),
(54,0,l)
);
}
);
width = 625;
}
);
metricLeft = "=k";
metricRight = "=k";
unicode = 312;
},
{
glyphname = l;
kernLeft = l;
kernRight = l;
lastChange = "2021-05-05 05:27:35 +0000";
layers = (
{
anchors = (
{
name = bottom;
pos = (119,0);
},
{
name = center;
pos = (119,430);
},
{
name = pdcenter;
pos = (345,375);
},
{
name = top;
pos = (119,730);
},
{
name = topright;
pos = (203,730);
}
);
layerId = "D65C9A1E-0FCA-4B2D-8EDF-9F36CA9182A1";
shapes = (
{
closed = 1;
nodes = (
(129,0,l),
(129,730,l),
(109,730,l),
(109,0,l)
);
}
);
width = 238;
},
{
anchors = (
{
name = bottom;
pos = (140,0);
},
{
name = center;
pos = (140,430);
},
{
name = pdcenter;
pos = (436,375);
},
{
name = top;
pos = (140,730);
},
{
name = topright;
pos = (254,730);
}
);
layerId = "9527F797-22C1-480E-A1FE-2CDBEBE1FD4C";
shapes = (
{
closed = 1;
nodes = (
(195,0,l),
(195,730,l),
(85,730,l),
(85,0,l)
);
}
);
width = 280;
},
{
anchors = (
{
name = bottom;
pos = (159,0);
},
{
name = center;
pos = (159,430);
},
{
name = pdcenter;
pos = (524,375);
},
{
name = top;
pos = (159,730);
},
{
name = topright;
pos = (304,730);
}
);
layerId = "9E6B41AB-2970-4C41-8B35-4DBE0D296A43";
shapes = (
{
closed = 1;
nodes = (
(259,0,l),
(259,730,l),
(59,730,l),
(59,0,l)
);
}
);
width = 318;
}
);
metricLeft = "=h*1.1";
metricRight = "=|";
unicode = 108;
},
{
glyphname = lslash;
kernLeft = o;
kernRight = f;
lastChange = "2021-05-05 05:27:35 +0000";
layers = (
{
layerId = "D65C9A1E-0FCA-4B2D-8EDF-9F36CA9182A1";
metricLeft = "=t*.9";
shapes = (
{
closed = 1;
nodes = (
(376,431,l),
(368,449,l),
(38,299,l),
(46,281,l)
);
},
{
pos = (103,0);
ref = l;
}
);
width = 414;
},
{
layerId = "9527F797-22C1-480E-A1FE-2CDBEBE1FD4C";
metricLeft = "=t*.7";
shapes = (
{
closed = 1;
nodes = (
(449,407,l),
(413,491,l),
(13,323,l),
(49,239,l)
);
},
{
alignment = -1;
pos = (97,0);
ref = l;
}
);
width = 462;
},
{
layerId = "9E6B41AB-2970-4C41-8B35-4DBE0D296A43";
metricLeft = "=t*.5";
shapes = (
{
closed = 1;
nodes = (
(531,393,l),
(476,523,l),
(7,337,l),
(62,207,l)
);
},
{
pos = (104,0);
ref = l;
}
);
width = 538;
}
);
metricLeft = "=t*.5";
metricRight = "=|";
unicode = 322;
},
{
glyphname = m;
kernLeft = n;
kernRight = h;
lastChange = "2021-05-05 05:27:35 +0000";
layers = (
{
layerId = "D65C9A1E-0FCA-4B2D-8EDF-9F36CA9182A1";
shapes = (
{
closed = 1;
nodes = (
(119,0,l),
(119,320,ls),
(119,426,o),
(199,510,o),
(298,510,cs),
(381,510,o),
(434,451,o),
(434,360,cs),
(434,0,l),
(454,0,l),
(454,320,ls),
(454,437,o),
(523,510,o),
(633,510,cs),
(727,510,o),
(769,458,o),
(769,340,cs),
(769,0,l),
(789,0,l),
(789,340,ls),
(789,469,o),
(739,530,o),
(633,530,cs),
(547,530,o),
(486,490,o),
(451,412,c),
(449,412,l),
(434,485,o),
(376,530,o),
(298,530,cs),
(222,530,o),
(157,487,o),
(121,412,c),
(119,412,l),
(119,520,l),
(99,520,l),
(99,0,l)
);
}
);
width = 868;
},
{
layerId = "9527F797-22C1-480E-A1FE-2CDBEBE1FD4C";
shapes = (
{
closed = 1;
nodes = (
(183,0,l),
(183,310,ls),
(183,384,o),
(234,440,o),
(301,440,cs),
(357,440,o),
(389,401,o),
(389,330,cs),
(389,0,l),
(495,0,l),
(495,310,ls),
(495,389,o),
(541,440,o),
(613,440,cs),
(674,440,o),
(701,403,o),
(701,320,cs),
(701,0,l),
(807,0,l),
(807,345,ls),
(807,473,o),
(757,530,o),
(644,530,cs),
(573,530,o),
(522,507,o),
(483,458,c),
(481,458,l),
(461,505,o),
(411,530,o),
(342,530,cs),
(271,530,o),
(218,503,o),
(181,458,c),
(179,458,l),
(178,520,l),
(77,520,l),
(77,0,l)
);
}
);
width = 869;
},
{
layerId = "9E6B41AB-2970-4C41-8B35-4DBE0D296A43";
shapes = (
{
closed = 1;
nodes = (
(246,0,l),
(246,300,ls),
(246,341,o),
(269,370,o),
(302,370,cs),
(331,370,o),
(343,349,o),
(343,300,cs),
(343,0,l),
(535,0,l),
(535,300,ls),
(535,341,o),
(558,370,o),
(591,370,cs),
(620,370,o),
(632,349,o),
(632,300,cs),
(632,0,l),
(824,0,l),
(824,350,ls),
(824,476,o),
(779,530,o),
(673,530,cs),
(607,530,o),
(559,509,o),
(513,460,c),
(511,460,l),
(488,507,o),
(447,530,o),
(384,530,cs),
(324,530,o),
(281,509,o),
(240,460,c),
(238,460,l),
(236,520,l),
(54,520,l),
(54,0,l)
);
}
);
width = 867;
},
{
associatedMasterId = "D65C9A1E-0FCA-4B2D-8EDF-9F36CA9182A1";
attr = {
coordinates = (
232
);
};
layerId = "0CBD3FAB-BA75-4DFC-AD86-B9F788B7BCE9";
name = "{232}";
shapes = (
{
closed = 1;
nodes = (
(140,0,l),
(140,316,ls),
(140,400,o),
(206,487,o),
(299,487,cs),
(377,487,o),
(419,439,o),
(419,350,cs),
(419,0,l),
(468,0,l),
(468,316,ls),
(468,418,o),
(532,487,o),
(627,487,cs),
(712,487,o),
(747,438,o),
(747,316,cs),
(747,0,l),
(795,0,l),
(795,325,ls),
(795,469,o),
(750,530,o),
(640,530,cs),
(562,530,o),
(498,499,o),
(462,441,c),
(460,441,l),
(443,499,o),
(391,530,o),
(313,530,cs),
(238,530,o),
(175,494,o),
(141,441,c),
(139,441,l),
(139,520,l),
(92,520,l),
(92,0,l)
);
}
);
width = 869;
}
);
metricLeft = "=n";
metricRight = "=n";
unicode = 109;
},
{
glyphname = n;
kernLeft = n;
kernRight = h;
lastChange = "2021-05-05 05:27:35 +0000";
layers = (
{
anchors = (
{
name = bottom;
pos = (300,0);
},
{
name = top;
pos = (300,520);
}
);
layerId = "D65C9A1E-0FCA-4B2D-8EDF-9F36CA9182A1";
shapes = (
{
closed = 1;
nodes = (
(119,0,l),
(119,320,ls),
(119,432,o),
(205,510,o),
(329,510,cs),
(438,510,o),
(489,449,o),
(489,320,cs),
(489,0,l),
(509,0,l),
(509,320,ls),
(509,460,o),
(450,530,o),
(329,530,cs),
(234,530,o),
(157,487,o),
(121,412,c),
(119,412,l),
(119,520,l),
(99,520,l),
(99,0,l)
);
}
);
width = 588;
},
{
anchors = (
{
name = bottom;
pos = (308,0);
},
{
name = top;
pos = (308,520);
}
);
layerId = "9527F797-22C1-480E-A1FE-2CDBEBE1FD4C";
shapes = (
{
closed = 1;
nodes = (
(185,0,l),
(185,310,ls),
(185,385,o),
(246,440,o),
(330,440,cs),
(405,440,o),
(439,396,o),
(439,300,cs),
(439,0,l),
(547,0,l),
(547,320,ls),
(547,464,o),
(488,530,o),
(360,530,cs),
(282,530,o),
(224,506,o),
(183,458,c),
(181,458,l),
(180,520,l),
(77,520,l),
(77,0,l)
);
}
);
width = 609;
},
{
anchors = (
{
name = bottom;
pos = (316,0);
},
{
name = top;
pos = (316,520);
}
);
layerId = "9E6B41AB-2970-4C41-8B35-4DBE0D296A43";
shapes = (
{
closed = 1;
nodes = (
(250,0,l),
(250,300,ls),
(250,341,o),
(283,370,o),
(329,370,cs),
(371,370,o),
(388,345,o),
(388,280,cs),
(388,0,l),
(584,0,l),
(584,320,ls),
(584,466,o),
(530,530,o),
(409,530,cs),
(339,530,o),
(290,509,o),
(244,460,c),
(242,460,l),
(240,520,l),
(54,520,l),
(54,0,l)
);
}
);
width = 627;
},
{
anchors = (
{
name = bottom;
pos = (304,0);
},
{
name = top;
pos = (304,520);
}
);
associatedMasterId = "D65C9A1E-0FCA-4B2D-8EDF-9F36CA9182A1";
attr = {
coordinates = (
232
);
};
layerId = "899DC2DC-F451-4B84-9275-F30D30733E24";
name = "{232}";
shapes = (
{
closed = 1;
nodes = (
(141,0,l),
(141,316,ls),
(141,416,o),
(219,487,o),
(330,487,cs),
(427,487,o),
(473,432,o),
(473,313,cs),
(473,0,l),
(522,0,l),
(522,320,ls),
(522,463,o),
(464,530,o),
(340,530,cs),
(253,530,o),
(180,497,o),
(143,441,c),
(141,441,l),
(141,520,l),
(92,520,l),
(92,0,l)
);
}
);
width = 596;
}
);
metricLeft = "=h";
metricRight = "=h";
unicode = 110;
},
{
glyphname = eng;
kernLeft = n;
kernRight = g;
lastChange = "2021-05-05 05:27:35 +0000";
layers = (
{
anchors = (
{
name = bottom;
pos = (300,0);
},
{
name = top;
pos = (300,520);
}
);
layerId = "D65C9A1E-0FCA-4B2D-8EDF-9F36CA9182A1";
shapes = (
{
closed = 1;
nodes = (
(466,-211,o),
(509,-164,o),
(509,-61,cs),
(509,320,ls),
(509,460,o),
(450,530,o),
(329,530,cs),
(234,530,o),
(157,487,o),
(121,412,c),
(119,412,l),
(119,520,l),
(99,520,l),
(99,0,l),
(119,0,l),
(119,320,ls),
(119,432,o),
(205,510,o),
(329,510,cs),
(438,510,o),
(489,449,o),
(489,320,cs),
(489,-61,ls),
(489,-153,o),
(454,-191,o),
(369,-191,cs),
(344,-191,o),
(318,-186,o),
(296,-177,c),
(290,-196,l),
(314,-205,o),
(342,-211,o),
(369,-211,cs)
);
}
);
width = 588;
},
{
anchors = (
{
name = bottom;
pos = (308,0);
},
{
name = top;
pos = (308,520);
}
);
layerId = "9527F797-22C1-480E-A1FE-2CDBEBE1FD4C";
shapes = (
{
closed = 1;
nodes = (
(495,-221,o),
(547,-163,o),
(547,-26,cs),
(547,320,ls),
(547,464,o),
(488,530,o),
(360,530,cs),
(282,530,o),
(224,506,o),
(183,458,c),
(181,458,l),
(180,520,l),
(77,520,l),
(77,0,l),
(185,0,l),
(185,310,ls),
(185,385,o),
(246,440,o),
(330,440,cs),
(405,440,o),
(439,396,o),
(439,300,cs),
(439,-26,ls),
(439,-97,o),
(413,-126,o),
(349,-126,cs),
(324,-126,o),
(298,-122,o),
(274,-114,c),
(259,-205,l),
(296,-216,o),
(334,-221,o),
(371,-221,cs)
);
}
);
width = 609;
},
{
anchors = (
{
name = bottom;
pos = (316,0);
},
{
name = top;
pos = (316,520);
}
);
layerId = "9E6B41AB-2970-4C41-8B35-4DBE0D296A43";
shapes = (
{
closed = 1;
nodes = (
(529,-229,o),
(584,-169,o),
(584,0,cs),
(584,320,ls),
(584,466,o),
(530,530,o),
(409,530,cs),
(339,530,o),
(290,509,o),
(244,460,c),
(242,460,l),
(240,520,l),
(54,520,l),
(54,0,l),
(250,0,l),
(250,300,ls),
(250,341,o),
(283,370,o),
(329,370,cs),
(371,370,o),
(388,345,o),
(388,280,cs),
(388,0,ls),
(388,-54,o),
(375,-70,o),
(329,-70,cs),
(307,-70,o),
(274,-66,o),
(246,-59,c),
(226,-214,l),
(274,-223,o),
(324,-229,o),
(372,-229,cs)
);
}
);
width = 627;
},
{
anchors = (
{
name = bottom;
pos = (303,0);
},
{
name = top;
pos = (303,520);
}
);
associatedMasterId = "D65C9A1E-0FCA-4B2D-8EDF-9F36CA9182A1";
attr = {
coordinates = (
232
);
};
layerId = "79FE56B5-3AAC-4AE6-A914-FF8F134DF163";
name = "{232}";
shapes = (
{
closed = 1;
nodes = (
(476,-214,o),
(522,-164,o),
(522,-49,cs),
(522,320,ls),
(522,461,o),
(467,530,o),
(354,530,cs),
(265,530,o),
(181,487,o),
(141,421,c),
(139,421,l),
(139,520,l),
(92,520,l),
(92,0,l),
(141,0,l),
(141,282,ls),
(141,394,o),
(233,487,o),
(344,487,cs),
(430,487,o),
(472,430,o),
(472,313,cs),
(472,-49,ls),
(472,-135,o),
(440,-170,o),
(363,-170,cs),
(338,-170,o),
(312,-165,o),
(289,-156,c),
(280,-199,l),
(309,-209,o),
(340,-214,o),
(370,-214,cs)
);
}
);
width = 596;
}
);
metricLeft = "=h";
metricRight = "=h";
unicode = 331;
},
{
glyphname = o;
kernLeft = o;
kernRight = o;
lastChange = "2021-05-05 05:27:35 +0000";
layers = (
{
anchors = (
{
name = bottom;
pos = (290,0);
},
{
name = center;
pos = (290,260);
},
{
name = ogonek;
pos = (367,0);
},
{
name = top;
pos = (290,520);
},
{
name = topright;
pos = (416,450);
}
);
layerId = "D65C9A1E-0FCA-4B2D-8EDF-9F36CA9182A1";
shapes = (
{
closed = 1;
nodes = (
(439,-10,o),
(530,92,o),
(530,260,cs),
(530,428,o),
(439,530,o),
(290,530,cs),
(141,530,o),
(50,428,o),
(50,260,cs),
(50,92,o),
(141,-10,o),
(290,-10,cs)
);
},
{
closed = 1;
nodes = (
(152,10,o),
(70,103,o),
(70,260,cs),
(70,417,o),
(152,510,o),
(290,510,cs),
(428,510,o),
(510,417,o),
(510,260,cs),
(510,103,o),
(428,10,o),
(290,10,cs)
);
}
);
width = 580;
},
{
anchors = (
{
name = bottom;
pos = (299,0);
},
{
name = center;
pos = (299,260);
},
{
name = ogonek;
pos = (385,0);
},
{
name = top;
pos = (299,520);
},
{
name = topright;
pos = (439,452);
}
);
layerId = "9527F797-22C1-480E-A1FE-2CDBEBE1FD4C";
shapes = (
{
closed = 1;
nodes = (
(464,-10,o),
(559,88,o),
(559,260,cs),
(559,432,o),
(464,530,o),
(299,530,cs),
(134,530,o),
(39,432,o),
(39,260,cs),
(39,88,o),
(134,-10,o),
(299,-10,cs)
);
},
{
closed = 1;
nodes = (
(201,80,o),
(147,143,o),
(147,260,cs),
(147,377,o),
(201,440,o),
(299,440,cs),
(397,440,o),
(451,377,o),
(451,260,cs),
(451,143,o),
(397,80,o),
(299,80,cs)
);
}
);
width = 598;
},
{
anchors = (
{
name = bottom;
pos = (307,0);
},
{
name = center;
pos = (307,260);
},
{
name = ogonek;
pos = (443,0);
},
{
name = top;
pos = (307,520);
},
{
name = topright;
pos = (462,454);
}
);
layerId = "9E6B41AB-2970-4C41-8B35-4DBE0D296A43";
shapes = (
{
closed = 1;
nodes = (
(489,-10,o),
(587,84,o),
(587,260,cs),
(587,436,o),
(489,530,o),
(307,530,cs),
(125,530,o),
(27,436,o),
(27,260,cs),
(27,84,o),
(125,-10,o),
(307,-10,cs)
);
},
{
closed = 1;
nodes = (
(249,130,o),
(223,170,o),
(223,260,cs),
(223,350,o),
(249,390,o),
(307,390,cs),
(365,390,o),
(391,350,o),
(391,260,cs),
(391,170,o),
(365,130,o),
(307,130,cs)
);
}
);
width = 614;
}
);
metricLeft = "=h*.5";
metricRight = "=|";
unicode = 111;
},
{
glyphname = oogonek;
kernLeft = o;
kernRight = o;
lastChange = "2021-05-05 05:27:35 +0000";
layers = (
{
layerId = "D65C9A1E-0FCA-4B2D-8EDF-9F36CA9182A1";
shapes = (
{
closed = 1;
nodes = (
(322,-220,o),
(344,-214,o),
(362,-203,c),
(354,-185,l),
(335,-195,o),
(316,-200,o),
(298,-200,cs),
(256,-200,o),
(235,-178,o),
(235,-135,cs),
(235,-79,o),
(280,-32,o),
(367,1,c),
(346.703,11.59,l),
(259.675,-24.768,o),
(215,-74.405,o),
(215,-135,cs),
(215,-191,o),
(243,-220,o),
(298,-220,cs)
);
},
{
ref = o;
}
);
width = 580;
},
{
layerId = "9527F797-22C1-480E-A1FE-2CDBEBE1FD4C";
shapes = (
{
closed = 1;
nodes = (
(338,-217,o),
(364,-213,o),
(387,-205,c),
(370,-120,l),
(357,-127,o),
(343,-130,o),
(328,-130,cs),
(303,-130,o),
(290,-117,o),
(290,-93,cs),
(290,-65,o),
(330,-29,o),
(398,4,c),
(287.442,26.112,l),
(221.577,-16.511,o),
(188,-62.763,o),
(188,-112,cs),
(188,-179,o),
(232,-217,o),
(309,-217,cs)
);
},
{
ref = o;
}
);
width = 598;
},
{
layerId = "9E6B41AB-2970-4C41-8B35-4DBE0D296A43";
shapes = (
{
closed = 1;
nodes = (
(398,-220,o),
(422,-217,o),
(445,-210,c),
(430,-75,l),
(415,-81,o),
(396,-85,o),
(382,-85,cs),
(355,-85,o),
(341,-75,o),
(341,-57,cs),
(341,-33,o),
(371,-12,o),
(433,10,c),
(261.349,52.707,l),
(194.303,4.219,o),
(165,-34.12,o),
(165,-82,cs),
(165,-170,o),
(238,-220,o),
(370,-220,cs)
);
},
{
ref = o;
}
);
width = 614;
},
{
associatedMasterId = "D65C9A1E-0FCA-4B2D-8EDF-9F36CA9182A1";
layerId = "5ECD02C9-763B-493F-AFF1-7A27DFE0B237";
name = "Apr 30 21, 10:19";
shapes = (
{
closed = 1;
nodes = (
(322,-220,o),
(344,-214,o),
(362,-203,c),
(354,-185,l),
(335,-195,o),
(316,-200,o),
(298,-200,cs),
(256,-200,o),
(235,-178,o),
(235,-135,cs),
(235,-79,o),
(280,-32,o),
(367,1,c),
(351,9,l),
(371,21,l),
(268,-16,o),
(215,-69,o),
(215,-135,cs),
(215,-191,o),
(243,-220,o),
(298,-220,cs)
);
},
{
ref = o;
}
);
width = 580;
}
);
unicode = 491;
},
{
glyphname = oslash;
kernLeft = o;
kernRight = o;
lastChange = "2021-05-05 05:27:35 +0000";
layers = (
{
anchors = (
{
name = bottom;
pos = (292,0);
},
{
name = center;
pos = (292,260);
},
{
name = ogonek;
pos = (339,0);
},
{
name = top;
pos = (292,520);
},
{
name = topright;
pos = (438,480);
}
);
layerId = "D65C9A1E-0FCA-4B2D-8EDF-9F36CA9182A1";
shapes = (
{
closed = 1;
nodes = (
(146,46,l),
(146,46,l),
(454,462,l),
(454,462,l),
(500,524,l),
(484,536,l),
(438,474,l),
(438,474,l),
(130,58,l),
(130,58,l),
(84,-4,l),
(100,-16,l)
);
},
{
ref = o;
}
);
width = 546;
},
{
anchors = (
{
name = bottom;
pos = (303,0);
},
{
name = center;
pos = (303,260);
},
{
name = ogonek;
pos = (369,0);
},
{
name = top;
pos = (303,520);
},
{
name = topright;
pos = (463,482);
}
);
layerId = "9527F797-22C1-480E-A1FE-2CDBEBE1FD4C";
shapes = (
{
closed = 1;
nodes = (
(186,35,l),
(186,35,l),
(484,437,l),
(484,437,l),
(535,506,l),
(471,554,l),
(420,485,l),
(420,485,l),
(122,83,l),
(122,83,l),
(71,14,l),
(135,-34,l)
);
},
{
ref = o;
}
);
width = 578;
},
{
anchors = (
{
name = bottom;
pos = (314,0);
},
{
name = center;
pos = (314,260);
},
{
name = ogonek;
pos = (400,0);
},
{
name = top;
pos = (314,520);
},
{
name = topright;
pos = (489,484);
}
);
layerId = "9E6B41AB-2970-4C41-8B35-4DBE0D296A43";
shapes = (
{
closed = 1;
nodes = (
(194,14,l),
(186,20,l),
(506,452,l),
(514,446,l),
(554,500,l),
(474,560,l),
(434,506,l),
(442,500,l),
(122,68,l),
(114,74,l),
(74,20,l),
(154,-40,l)
);
},
{
ref = o;
}
);
width = 610;
}
);
unicode = 248;
},
{
glyphname = oe;
kernLeft = o;
kernRight = o;
lastChange = "2021-05-05 05:27:35 +0000";
layers = (
{
anchors = (
{
name = bottom;
pos = (516,0);
},
{
name = top;
pos = (516,520);
}
);
layerId = "D65C9A1E-0FCA-4B2D-8EDF-9F36CA9182A1";
shapes = (
{
closed = 1;
nodes = (
(826,-10,o),
(890,4,o),
(942,30,c),
(933,48,l),
(884,24,o),
(824,10,o),
(764,10,cs),
(614,10,o),
(532,97,o),
(532,260,c),
(532,260,l),
(532,418,o),
(612,510,o),
(747,510,cs),
(875,510,o),
(942,428,o),
(942,268,c),
(952,278,l),
(522,278,l),
(522,258,l),
(962,258,l),
(962,263,o),
(962,263,o),
(962,268,cs),
(962,438,o),
(887,530,o),
(747,530,cs),
(600,530,o),
(512,428,o),
(512,260,cs),
(512,87,o),
(602,-10,o),
(764,-10,cs)
);
},
{
ref = o;
}
);
width = 1010;
},
{
anchors = (
{
name = bottom;
pos = (498,0);
},
{
name = top;
pos = (498,520);
}
);
layerId = "9527F797-22C1-480E-A1FE-2CDBEBE1FD4C";
shapes = (
{
closed = 1;
nodes = (
(801,-10,o),
(869,3,o),
(920,24,c),
(906,111,l),
(857,92,o),
(788,80,o),
(732,80,cs),
(617,80,o),
(561,132,o),
(561,240,c),
(561,270,l),
(561,382,o),
(612,442,o),
(708,442,cs),
(799,442,o),
(844,387,o),
(844,274,c),
(861,300,l),
(515,300,l),
(515,215,l),
(943,215,l),
(944,227,o),
(945,251,o),
(945,269,cs),
(945,436,o),
(860,530,o),
(708,530,cs),
(550,530,o),
(455,428,o),
(455,260,cs),
(455,87,o),
(556,-10,o),
(736,-10,cs)
);
},
{
ref = o;
}
);
width = 982;
},
{
anchors = (
{
name = bottom;
pos = (477,0);
},
{
name = top;
pos = (477,520);
}
);
layerId = "9E6B41AB-2970-4C41-8B35-4DBE0D296A43";
shapes = (
{
closed = 1;
nodes = (
(775,-10,o),
(849,1,o),
(896,18,c),
(876,158,l),
(829,142,o),
(755,130,o),
(698,130,cs),
(620,130,o),
(588,156,o),
(588,220,cs),
(588,280,ls),
(588,367,o),
(612,405,o),
(666,405,cs),
(720,405,o),
(744,367,o),
(744,280,c),
(767,315,l),
(506,315,l),
(506,200,l),
(922,200,l),
(924,211,o),
(926,246,o),
(926,270,cs),
(926,434,o),
(830,530,o),
(666,530,cs),
(498,530,o),
(396,428,o),
(396,260,cs),
(396,86,o),
(506,-10,o),
(706,-10,cs)
);
},
{
ref = o;
}
);
width = 952;
}
);
metricLeft = "=o";
metricRight = "=e";
unicode = 339;
},
{
glyphname = thorn;
kernLeft = b;
kernRight = o;
lastChange = "2021-05-05 05:27:35 +0000";
layers = (
{
layerId = "D65C9A1E-0FCA-4B2D-8EDF-9F36CA9182A1";
shapes = (
{
closed = 1;
nodes = (
(119,-240,l),
(119,120,l),
(121,120,l),
(155,39,o),
(226,-10,o),
(319,-10,cs),
(454,-10,o),
(533,91,o),
(533,260,cs),
(533,429,o),
(454,530,o),
(319,530,cs),
(226,530,o),
(155,481,o),
(121,400,c),
(119,400,l),
(119,760,l),
(99,760,l),
(99,-240,l)
);
},
{
closed = 1;
nodes = (
(197,10,o),
(119,100,o),
(119,235,cs),
(119,285,ls),
(119,420,o),
(197,510,o),
(319,510,cs),
(442,510,o),
(513,419,o),
(513,260,cs),
(513,101,o),
(442,10,o),
(319,10,cs)
);
}
);
width = 583;
},
{
layerId = "9527F797-22C1-480E-A1FE-2CDBEBE1FD4C";
shapes = (
{
closed = 1;
nodes = (
(185,-240,l),
(185,68,l),
(187,68,l),
(228,16,o),
(283,-10,o),
(354,-10,cs),
(493,-10,o),
(574,89,o),
(574,260,cs),
(574,431,o),
(494,530,o),
(354,530,cs),
(283,530,o),
(228,504,o),
(187,452,c),
(185,452,l),
(185,760,l),
(77,760,l),
(77,-240,l)
);
},
{
closed = 1;
nodes = (
(238,80,o),
(185,146,o),
(185,240,cs),
(185,280,ls),
(185,374,o),
(238,440,o),
(327,440,cs),
(416,440,o),
(467,375,o),
(467,260,cs),
(467,145,o),
(416,80,o),
(327,80,cs)
);
}
);
width = 613;
},
{
layerId = "9E6B41AB-2970-4C41-8B35-4DBE0D296A43";
shapes = (
{
closed = 1;
nodes = (
(250,-240,l),
(250,60,l),
(252,60,l),
(297,11,o),
(343,-10,o),
(405,-10,cs),
(538,-10,o),
(614,88,o),
(614,260,cs),
(614,432,o),
(538,530,o),
(405,530,cs),
(343,530,o),
(297,509,o),
(252,460,c),
(250,460,l),
(250,760,l),
(54,760,l),
(54,-240,l)
);
},
{
closed = 1;
nodes = (
(276,140,o),
(250,177,o),
(250,240,cs),
(250,280,ls),
(250,343,o),
(276,380,o),
(334,380,cs),
(394,380,o),
(422,341,o),
(422,260,cs),
(422,179,o),
(394,140,o),
(334,140,cs)
);
}
);
width = 641;
},
{
associatedMasterId = "D65C9A1E-0FCA-4B2D-8EDF-9F36CA9182A1";
attr = {
coordinates = (
232
);
};
layerId = "0BCAABAB-37FB-445D-B33E-60B4C38D96A8";
name = "{232}";
shapes = (
{
closed = 1;
nodes = (
(141,-240,l),
(141,90,l),
(143,90,l),
(179,27,o),
(247,-10,o),
(331,-10,cs),
(469,-10,o),
(547,88,o),
(547,260,cs),
(547,432,o),
(469,530,o),
(331,530,cs),
(247,530,o),
(179,493,o),
(143,430,c),
(141,430,l),
(141,760,l),
(92,760,l),
(92,-240,l)
);
},
{
closed = 1;
nodes = (
(211,33,o),
(141,115,o),
(141,237,cs),
(141,283,ls),
(141,405,o),
(211,487,o),
(322,487,cs),
(433,487,o),
(498,404,o),
(498,260,cs),
(498,116,o),
(433,33,o),
(322,33,cs)
);
}
);
width = 593;
}
);
metricLeft = "=b";
metricRight = "=b";
unicode = 254;
},
{
glyphname = q;
kernLeft = o;
kernRight = u;
lastChange = "2021-05-05 16:09:59 +0000";
layers = (
{
layerId = "D65C9A1E-0FCA-4B2D-8EDF-9F36CA9182A1";
shapes = (
{
closed = 1;
nodes = (
(490,-210,l),
(490,520,l),
(470,520,l),
(470,412,l),
(468,412,l),
(434,486,o),
(360,530,o),
(269,530,cs),
(131,530,o),
(50,430,o),
(50,260,cs),
(50,90,o),
(131,-10,o),
(269,-10,cs),
(360,-10,o),
(434,34,o),
(468,108,c),
(470,108,l),
(470,-210,l)
);
},
{
closed = 1;
nodes = (
(143,10,o),
(70,100,o),
(70,260,cs),
(70,420,o),
(143,510,o),
(269,510,cs),
(387,510,o),
(470,432,o),
(470,320,cs),
(470,200,ls),
(470,88,o),
(387,10,o),
(269,10,cs)
);
}
);
width = 589;
},
{
layerId = "9527F797-22C1-480E-A1FE-2CDBEBE1FD4C";
shapes = (
{
closed = 1;
nodes = (
(539,-210,l),
(539,520,l),
(436,520,l),
(435,458,l),
(433,458,l),
(395,504,o),
(332,530,o),
(261,530,cs),
(122,530,o),
(39,429,o),
(39,260,cs),
(39,91,o),
(122,-10,o),
(261,-10,cs),
(331,-10,o),
(392,16,o),
(429,62,c),
(431,62,l),
(431,-210,l)
);
},
{
closed = 1;
nodes = (
(196,80,o),
(145,145,o),
(145,260,cs),
(145,375,o),
(196,440,o),
(286,440,cs),
(369,440,o),
(431,384,o),
(431,309,cs),
(431,211,ls),
(431,136,o),
(369,80,o),
(286,80,cs)
);
}
);
width = 616;
},
{
layerId = "9E6B41AB-2970-4C41-8B35-4DBE0D296A43";
shapes = (
{
closed = 1;
nodes = (
(587,-210,l),
(587,520,l),
(401,520,l),
(399,460,l),
(397,460,l),
(348,509,o),
(300,530,o),
(236,530,cs),
(101,530,o),
(27,435,o),
(27,260,cs),
(27,85,o),
(101,-10,o),
(236,-10,cs),
(298,-10,o),
(341,10,o),
(389,60,c),
(391,60,l),
(391,-210,l)
);
},
{
closed = 1;
nodes = (
(250,140,o),
(219,182,o),
(219,260,cs),
(219,338,o),
(250,380,o),
(307,380,cs),
(357,380,o),
(391,348,o),
(391,300,cs),
(391,220,ls),
(391,172,o),
(357,140,o),
(307,140,cs)
);
}
);
width = 641;
},
{
associatedMasterId = "D65C9A1E-0FCA-4B2D-8EDF-9F36CA9182A1";
attr = {
coordinates = (
232
);
};
layerId = "3D84F023-FBE7-4969-BDA9-8AD3C0F95158";
name = "{232}";
shapes = (
{
closed = 1;
nodes = (
(506,-210,l),
(506,520,l),
(459,520,l),
(459,441,l),
(457,441,l),
(422,495,o),
(347,530,o),
(266,530,cs),
(128,530,o),
(46,430,o),
(46,260,cs),
(46,90,o),
(128,-10,o),
(266,-10,cs),
(347,-10,o),
(421,25,o),
(455,79,c),
(457,79,l),
(457,-210,l)
);
},
{
closed = 1;
nodes = (
(161,33,o),
(95,115,o),
(95,260,cs),
(95,405,o),
(161,487,o),
(275,487,cs),
(381,487,o),
(457,416,o),
(457,316,cs),
(457,204,ls),
(457,104,o),
(381,33,o),
(275,33,cs)
);
}
);
width = 598;
}
);
unicode = 113;
},
{
glyphname = r;
kernLeft = n;
kernRight = r;
lastChange = "2021-05-05 05:27:35 +0000";
layers = (
{
anchors = (
{
name = bottom;
pos = (109,0);
},
{
name = top;
pos = (215,520);
}
);
layerId = "D65C9A1E-0FCA-4B2D-8EDF-9F36CA9182A1";
metricRight = "=|*.2";
shapes = (
{
closed = 1;
nodes = (
(119,0,l),
(119,280,ls),
(119,408,o),
(230,510,o),
(369,510,c),
(369,530,l),
(258,530,o),
(159,466,o),
(121,370,c),
(119,370,l),
(119,520,l),
(99,520,l),
(99,0,l)
);
}
);
width = 389;
},
{
anchors = (
{
name = bottom;
pos = (128,0);
},
{
name = top;
pos = (233,520);
}
);
layerId = "9527F797-22C1-480E-A1FE-2CDBEBE1FD4C";
metricRight = "=|*.25";
shapes = (
{
closed = 1;
nodes = (
(186,0,l),
(186,250,ls),
(186,353,o),
(289,435,o),
(417,435,c),
(417,530,l),
(320,530,o),
(233,489,o),
(184,420,c),
(182,420,l),
(181,520,l),
(77,520,l),
(77,0,l)
);
}
);
width = 436;
},
{
anchors = (
{
name = bottom;
pos = (119,0);
},
{
name = top;
pos = (235,520);
}
);
associatedMasterId = "D65C9A1E-0FCA-4B2D-8EDF-9F36CA9182A1";
attr = {
coordinates = (
232
);
};
layerId = "657C252B-5EEF-4E2C-9A2A-557819CBA416";
metricRight = "=|*.2";
name = "{232}";
shapes = (
{
closed = 1;
nodes = (
(141,0,l),
(141,270,ls),
(141,390,o),
(249,485,o),
(385,485,c),
(385,530,l),
(279,530,o),
(183,479,o),
(142,402,c),
(140,402,l),
(140,520,l),
(92,520,l),
(92,0,l)
);
}
);
width = 403;
},
{
anchors = (
{
name = bottom;
pos = (156,0);
},
{
name = top;
pos = (245,520);
}
);
layerId = "9E6B41AB-2970-4C41-8B35-4DBE0D296A43";
metricRight = "=|*.3";
shapes = (
{
closed = 1;
nodes = (
(252,0,l),
(252,220,ls),
(252,303,o),
(347,370,o),
(464,370,c),
(464,530,l),
(381,530,o),
(306,496,o),
(246,430,c),
(244,430,l),
(242,520,l),
(54,520,l),
(54,0,l)
);
}
);
width = 480;
}
);
metricLeft = "=n";
metricRight = "=|*.3";
unicode = 114;
},
{
glyphname = s;
kernLeft = s;
kernRight = s;
lastChange = "2021-05-05 05:27:35 +0000";
layers = (
{
anchors = (
{
name = bottom;
pos = (234,0);
},
{
name = cedi;
pos = (186,-1);
},
{
name = top;
pos = (234,520);
}
);
layerId = "D65C9A1E-0FCA-4B2D-8EDF-9F36CA9182A1";
shapes = (
{
closed = 1;
nodes = (
(349,-10,o),
(420,42,o),
(419,130,cs),
(419,235,o),
(321,259,o),
(232,281,cs),
(146,302,o),
(69,320,o),
(69,400,cs),
(70,471,o),
(129,510,o),
(240,510,cs),
(298,510,o),
(358,499,o),
(394,481,c),
(403,499,l),
(363,518,o),
(300,530,o),
(240,530,cs),
(119,530,o),
(50,483,o),
(50,400,cs),
(50,305,o),
(142,282,o),
(228,261,cs),
(317,240,o),
(400,219,o),
(400,130,cs),
(400,53,o),
(339,10,o),
(230,10,cs),
(169,10,o),
(103,24,o),
(60,44,c),
(51,26,l),
(97,4,o),
(167,-10,o),
(230,-10,cs)
);
}
);
width = 469;
},
{
anchors = (
{
name = bottom;
pos = (262,0);
},
{
name = cedi;
pos = (186,0);
},
{
name = top;
pos = (262,520);
}
);
layerId = "9E6B41AB-2970-4C41-8B35-4DBE0D296A43";
shapes = (
{
closed = 1;
nodes = (
(402,-10,o),
(497,56,o),
(497,155,cs),
(497,240,o),
(426,298,o),
(282,331,cs),
(239,341,o),
(227,348,o),
(227,365,cs),
(227,383,o),
(244,390,o),
(287,390,cs),
(336,390,o),
(388,381,o),
(459,359,c),
(479,499,l),
(406,519,o),
(327,530,o),
(260,530,cs),
(107,530,o),
(27,475,o),
(27,370,cs),
(27,281,o),
(96,227,o),
(243,191,cs),
(288,181,o),
(297,175,o),
(297,159,cs),
(297,137,o),
(283,130,o),
(238,130,cs),
(181,130,o),
(124,141,o),
(51,167,c),
(31,27,l),
(88,6,o),
(189,-10,o),
(260,-10,cs)
);
}
);
width = 524;
},
{
anchors = (
{
name = bottom;
pos = (249,0);
},
{
name = cedi;
pos = (186,0);
},
{
name = top;
pos = (249,520);
}
);
layerId = "9527F797-22C1-480E-A1FE-2CDBEBE1FD4C";
shapes = (
{
closed = 1;
nodes = (
(379,-10,o),
(459,47,o),
(459,143,cs),
(459,241,o),
(375,283,o),
(258,311,cs),
(171,331,o),
(148,348,o),
(148,382,cs),
(148,421,o),
(185,440,o),
(264,440,cs),
(318,440,o),
(372,431,o),
(426,411,c),
(442,499,l),
(386,519,o),
(315,530,o),
(251,530,cs),
(114,530,o),
(39,479,o),
(39,385,cs),
(39,290,o),
(115,250,o),
(236,221,cs),
(324,200,o),
(350,183,o),
(350,146,cs),
(350,102,o),
(312,80,o),
(235,80,cs),
(176,80,o),
(115,93,o),
(57,115,c),
(42,27,l),
(93,5,o),
(176,-10,o),
(246,-10,cs)
);
}
);
width = 498;
}
);
metricLeft = "=h*.5";
metricRight = "=|";
unicode = 115;
},
{
glyphname = germandbls;
kernLeft = h;
kernRight = X;
lastChange = "2021-05-05 05:27:35 +0000";
layers = (
{
layerId = "D65C9A1E-0FCA-4B2D-8EDF-9F36CA9182A1";
metricRight = "=X*.7";
shapes = (
{
closed = 1;
nodes = (
(465,-10,o),
(539,57,o),
(539,160,cs),
(539,224,o),
(514,264,o),
(411,360,cs),
(369,400,o),
(359,411,o),
(359,420,cs),
(359,427,o),
(365,436,o),
(398,473,cs),
(459,540,o),
(479,574,o),
(479,620,cs),
(479,712,o),
(421,760,o),
(309,760,cs),
(171,760,o),
(99,683,o),
(99,535,cs),
(99,0,l),
(119,0,l),
(119,535,ls),
(119,670,o),
(184,740,o),
(309,740,cs),
(408,740,o),
(459,699,o),
(459,620,cs),
(459,580,o),
(442,550,o),
(383,486,cs),
(353,453,o),
(339,436,o),
(339,420,cs),
(339,401,o),
(357,383,o),
(397,345,cs),
(495,252,o),
(519,218,o),
(519,160,cs),
(519,69,o),
(455,10,o),
(354,10,cs),
(312,10,o),
(248,20,o),
(197,35,c),
(191,15,l),
(246,0,o),
(310,-10,o),
(354,-10,cs)
);
}
);
width = 590;
},
{
layerId = "9527F797-22C1-480E-A1FE-2CDBEBE1FD4C";
metricRight = "=X*.9";
shapes = (
{
closed = 1;
nodes = (
(496,-10,o),
(569,51,o),
(569,153,cs),
(569,209,o),
(547,252,o),
(475,329,cs),
(429,378,o),
(419,391,o),
(419,403,cs),
(419,412,o),
(431,426,o),
(463,469,cs),
(508,528,o),
(514,560,o),
(514,595,cs),
(514,703,o),
(443,760,o),
(308,760,cs),
(156,760,o),
(77,674,o),
(77,508,cs),
(77,0,l),
(185,0,l),
(185,507,ls),
(185,611,o),
(229,665,o),
(313,665,cs),
(375,665,o),
(408,639,o),
(408,589,cs),
(408,567,o),
(401,541,o),
(358,489,cs),
(319,440,o),
(308,420,o),
(308,398,cs),
(308,372,o),
(324,345,o),
(366,300,cs),
(448,214,o),
(463,193,o),
(463,164,cs),
(463,116,o),
(422,85,o),
(358,85,cs),
(329,85,o),
(291,92,o),
(255,103,c),
(240,8,l),
(288,-4,o),
(337,-10,o),
(375,-10,cs)
);
}
);
width = 610;
},
{
layerId = "9E6B41AB-2970-4C41-8B35-4DBE0D296A43";
metricRight = "=X*1.1";
shapes = (
{
closed = 1;
nodes = (
(524,-10,o),
(599,47,o),
(599,145,cs),
(599,192,o),
(582,232,o),
(539,288,cs),
(508,327,o),
(485,365,o),
(485,377,cs),
(485,386,o),
(497,407,o),
(535,465,cs),
(563,508,o),
(565,541,o),
(565,570,cs),
(565,689,o),
(472,760,o),
(314,760,cs),
(151,760,o),
(54,671,o),
(54,520,cs),
(54,0,l),
(250,0,l),
(250,513,ls),
(250,568,o),
(277,600,o),
(322,600,cs),
(355,600,o),
(375,581,o),
(375,548,cs),
(375,531,o),
(368,500,o),
(347,474,cs),
(308,425,o),
(295,400,o),
(295,375,cs),
(295,351,o),
(307,330,o),
(349,274,cs),
(391,218,o),
(403,196,o),
(403,177,cs),
(403,156,o),
(388,145,o),
(360,145,cs),
(346,145,o),
(326,148,o),
(300,155,c),
(290,0,l),
(334,-7,o),
(366,-10,o),
(395,-10,cs)
);
}
);
width = 628;
}
);
metricLeft = "=b";
metricRight = "=X*1.1";
unicode = 223;
},
{
glyphname = t;
kernLeft = f;
kernRight = c;
lastChange = "2021-05-05 05:27:35 +0000";
layers = (
{
anchors = (
{
name = bottom;
pos = (281,0);
},
{
name = cedi;
pos = (227,0);
},
{
name = center;
pos = (241,260);
},
{
name = top;
pos = (241,520);
},
{
name = topright;
pos = (460,520);
}
);
layerId = "9527F797-22C1-480E-A1FE-2CDBEBE1FD4C";
metricRight = "=c*.8";
shapes = (
{
closed = 1;
nodes = (
(347,-10,o),
(385,-5,o),
(428,8,c),
(418,100,l),
(392,91,o),
(360,85,o),
(329,85,cs),
(267,85,o),
(247,109,o),
(247,180,cs),
(247,430,l),
(428,430,l),
(428,520,l),
(247,520,l),
(247,690,l),
(138,690,l),
(138,520,l),
(18,520,l),
(18,430,l),
(138,430,l),
(138,150,ls),
(138,36,o),
(187,-10,o),
(307,-10,cs)
);
}
);
width = 478;
},
{
anchors = (
{
name = bottom;
pos = (273,0);
},
{
name = cedi;
pos = (206,0);
},
{
name = center;
pos = (253,260);
},
{
name = top;
pos = (253,520);
},
{
name = topright;
pos = (505,520);
}
);
layerId = "9E6B41AB-2970-4C41-8B35-4DBE0D296A43";
metricLeft = "=f*.8";
metricRight = "=c*1";
shapes = (
{
closed = 1;
nodes = (
(354,-10,o),
(396,-4,o),
(450,10,c),
(435,155,l),
(408,146,o),
(373,140,o),
(350,140,cs),
(317,140,o),
(308,153,o),
(308,200,cs),
(308,380,l),
(453,380,l),
(453,520,l),
(308,520,l),
(308,690,l),
(110,690,l),
(110,520,l),
(13,520,l),
(13,380,l),
(110,380,l),
(110,160,ls),
(110,39,o),
(168,-10,o),
(305,-10,cs)
);
}
);
width = 496;
},
{
anchors = (
{
name = bottom;
pos = (296,0);
},
{
name = cedi;
pos = (255,0);
},
{
name = center;
pos = (246,260);
},
{
name = top;
pos = (246,520);
},
{
name = topright;
pos = (433,520);
}
);
layerId = "D65C9A1E-0FCA-4B2D-8EDF-9F36CA9182A1";
metricLeft = "=f*1.4";
metricRight = "=c*.6";
shapes = (
{
closed = 1;
nodes = (
(358,-10,o),
(389,-6,o),
(422,5,c),
(416,24,l),
(387,14,o),
(359,10,o),
(326,10,cs),
(234,10,o),
(203,43,o),
(203,140,cs),
(203,500,l),
(419,500,l),
(419,520,l),
(203,520,l),
(203,690,l),
(183,690,l),
(183,520,l),
(42,520,l),
(42,500,l),
(183,500,l),
(183,140,ls),
(183,32,o),
(223,-10,o),
(326,-10,cs)
);
}
);
width = 469;
}
);
metricLeft = "=f*.8";
metricRight = "=c*1.2";
unicode = 116;
},
{
glyphname = tbar;
kernLeft = f;
kernRight = c;
lastChange = "2021-05-05 05:27:35 +0000";
layers = (
{
layerId = "D65C9A1E-0FCA-4B2D-8EDF-9F36CA9182A1";
shapes = (
{
closed = 1;
nodes = (
(422,258,l),
(422,278,l),
(42,278,l),
(42,258,l)
);
},
{
ref = t;
}
);
width = 421;
},
{
layerId = "9527F797-22C1-480E-A1FE-2CDBEBE1FD4C";
shapes = (
{
closed = 1;
nodes = (
(428,220,l),
(428,310,l),
(18,310,l),
(18,220,l)
);
},
{
alignment = -1;
ref = t;
}
);
width = 473;
},
{
layerId = "9E6B41AB-2970-4C41-8B35-4DBE0D296A43";
shapes = (
{
closed = 1;
nodes = (
(453,192,l),
(453,332,l),
(13,332,l),
(13,192,l)
);
},
{
ref = t;
}
);
width = 525;
}
);
unicode = 359;
},
{
glyphname = u;
kernLeft = u;
kernRight = u;
lastChange = "2021-05-05 05:46:22 +0000";
layers = (
{
anchors = (
{
name = bottom;
pos = (283,0);
},
{
name = ogonek;
pos = (479,0);
},
{
name = top;
pos = (283,520);
},
{
name = top_ring;
pos = (283,540);
},
{
name = topright;
pos = (459,480);
}
);
layerId = "D65C9A1E-0FCA-4B2D-8EDF-9F36CA9182A1";
shapes = (
{
closed = 1;
nodes = (
(347,-10,o),
(421,33,o),
(457,108,c),
(459,108,l),
(459,0,l),
(479,0,l),
(479,520,l),
(459,520,l),
(459,200,ls),
(459,88,o),
(375,10,o),
(254,10,cs),
(149,10,o),
(99,70,o),
(99,200,cs),
(99,520,l),
(79,520,l),
(79,200,ls),
(79,59,o),
(137,-10,o),
(254,-10,cs)
);
}
);
width = 578;
},
{
anchors = (
{
name = bottom;
pos = (296,0);
},
{
name = ogonek;
pos = (522,0);
},
{
name = top;
pos = (296,520);
},
{
name = top_ring;
pos = (296,540);
},
{
name = topright;
pos = (457,480);
}
);
layerId = "9527F797-22C1-480E-A1FE-2CDBEBE1FD4C";
shapes = (
{
closed = 1;
nodes = (
(320,-10,o),
(375,14,o),
(416,62,c),
(418,62,l),
(419,0,l),
(522,0,l),
(522,520,l),
(414,520,l),
(414,210,ls),
(414,135,o),
(355,80,o),
(274,80,cs),
(202,80,o),
(170,124,o),
(170,220,cs),
(170,520,l),
(62,520,l),
(62,200,ls),
(62,56,o),
(119,-10,o),
(244,-10,cs)
);
}
);
width = 599;
},
{
anchors = (
{
name = bottom;
pos = (306,0);
},
{
name = ogonek;
pos = (563,0);
},
{
name = top;
pos = (306,520);
},
{
name = top_ring;
pos = (306,540);
},
{
name = topright;
pos = (473,480);
}
);
layerId = "9E6B41AB-2970-4C41-8B35-4DBE0D296A43";
shapes = (
{
closed = 1;
nodes = (
(280,-10,o),
(328,11,o),
(373,60,c),
(375,60,l),
(377,0,l),
(563,0,l),
(563,520,l),
(367,520,l),
(367,220,ls),
(367,180,o),
(336,150,o),
(293,150,cs),
(254,150,o),
(239,175,o),
(239,240,cs),
(239,520,l),
(43,520,l),
(43,200,ls),
(43,54,o),
(95,-10,o),
(213,-10,cs)
);
}
);
width = 617;
},
{
anchors = (
{
name = bottom;
pos = (288,0);
},
{
name = ogonek;
pos = (493,0);
},
{
name = top;
pos = (288,520);
},
{
name = top_ring;
pos = (288,540);
},
{
name = topright;
pos = (449,480);
}
);
associatedMasterId = "D65C9A1E-0FCA-4B2D-8EDF-9F36CA9182A1";
attr = {
coordinates = (
232
);
};
layerId = "245D3822-9188-491B-8A3B-367571E408B0";
name = "{232}";
shapes = (
{
closed = 1;
nodes = (
(336,-10,o),
(406,23,o),
(443,79,c),
(445,79,l),
(445,0,l),
(494,0,l),
(494,520,l),
(445,520,l),
(445,204,ls),
(445,104,o),
(369,33,o),
(261,33,cs),
(167,33,o),
(123,88,o),
(123,207,cs),
(123,520,l),
(74,520,l),
(74,200,ls),
(74,57,o),
(130,-10,o),
(251,-10,cs)
);
}
);
width = 586;
}
);
metricLeft = "=|n";
metricRight = "=|n";
unicode = 117;
},
{
glyphname = v;
kernLeft = v;
kernRight = v;
lastChange = "2021-05-05 05:27:35 +0000";
layers = (
{
layerId = "D65C9A1E-0FCA-4B2D-8EDF-9F36CA9182A1";
shapes = (
{
closed = 1;
nodes = (
(266,0,l),
(486,520,l),
(464,520,l),
(252,17,l),
(250,17,l),
(38,520,l),
(16,520,l),
(236,0,l)
);
}
);
width = 502;
},
{
layerId = "9527F797-22C1-480E-A1FE-2CDBEBE1FD4C";
shapes = (
{
closed = 1;
nodes = (
(345,0,l),
(529,520,l),
(411,520,l),
(270,78,l),
(268,78,l),
(127,520,l),
(9,520,l),
(193,0,l)
);
}
);
width = 538;
},
{
layerId = "9E6B41AB-2970-4C41-8B35-4DBE0D296A43";
shapes = (
{
closed = 1;
nodes = (
(426,0,l),
(574,520,l),
(372,520,l),
(290,120,l),
(288,120,l),
(206,520,l),
(4,520,l),
(152,0,l)
);
}
);
width = 578;
}
);
metricLeft = "=|k*.4";
metricRight = "=|";
unicode = 118;
},
{
glyphname = w;
kernLeft = v;
kernRight = v;
lastChange = "2021-05-05 05:27:35 +0000";
layers = (
{
anchors = (
{
name = bottom;
pos = (372,0);
},
{
name = top;
pos = (372,520);
}
);
layerId = "D65C9A1E-0FCA-4B2D-8EDF-9F36CA9182A1";
metricLeft = "=v*2";
shapes = (
{
closed = 1;
nodes = (
(222,0,l),
(371,499,l),
(373,499,l),
(522,0,l),
(552,0,l),
(712,520,l),
(691,520,l),
(538,21,l),
(536,21,l),
(387,520,l),
(357,520,l),
(208,21,l),
(206,21,l),
(53,520,l),
(32,520,l),
(192,0,l)
);
}
);
width = 744;
},
{
anchors = (
{
name = bottom;
pos = (392,0);
},
{
name = top;
pos = (392,520);
}
);
layerId = "9527F797-22C1-480E-A1FE-2CDBEBE1FD4C";
metricLeft = "=v*2.4";
shapes = (
{
closed = 1;
nodes = (
(302,0,l),
(391,405,l),
(393,405,l),
(482,0,l),
(622,0,l),
(762,520,l),
(644,520,l),
(556,105,l),
(554,105,l),
(465,520,l),
(319,520,l),
(230,105,l),
(228,105,l),
(140,520,l),
(22,520,l),
(162,0,l)
);
}
);
width = 784;
},
{
anchors = (
{
name = bottom;
pos = (411,0);
},
{
name = top;
pos = (411,520);
}
);
layerId = "9E6B41AB-2970-4C41-8B35-4DBE0D296A43";
metricLeft = "=v*2.8";
shapes = (
{
closed = 1;
nodes = (
(366,0,l),
(410,350,l),
(412,350,l),
(456,0,l),
(691,0,l),
(811,520,l),
(617,520,l),
(577,170,l),
(575,170,l),
(529,520,l),
(293,520,l),
(247,170,l),
(245,170,l),
(205,520,l),
(11,520,l),
(131,0,l)
);
}
);
width = 822;
}
);
metricLeft = "=v*2.8";
metricRight = "=|";
unicode = 119;
},
{
glyphname = x;
kernLeft = x;
kernRight = x;
lastChange = "2021-05-05 05:27:35 +0000";
layers = (
{
layerId = "D65C9A1E-0FCA-4B2D-8EDF-9F36CA9182A1";
metricLeft = "=|k";
shapes = (
{
closed = 1;
nodes = (
(66,0,l),
(259,247,l),
(261,247,l),
(454,0,l),
(480,0,l),
(273,263,l),
(475,520,l),
(449,520,l),
(261,279,l),
(259,279,l),
(71,520,l),
(45,520,l),
(247,263,l),
(40,0,l)
);
}
);
width = 520;
},
{
layerId = "9527F797-22C1-480E-A1FE-2CDBEBE1FD4C";
metricLeft = "=|k*1.4";
shapes = (
{
closed = 1;
nodes = (
(156,0,l),
(276,204,l),
(278,204,l),
(398,0,l),
(522,0,l),
(351,262,l),
(520,520,l),
(396,520,l),
(278,320,l),
(276,320,l),
(158,520,l),
(34,520,l),
(203,262,l),
(32,0,l)
);
}
);
width = 554;
},
{
layerId = "9E6B41AB-2970-4C41-8B35-4DBE0D296A43";
metricLeft = "=|k*1.8";
shapes = (
{
closed = 1;
nodes = (
(222,0,l),
(289,160,l),
(291,160,l),
(358,0,l),
(560,0,l),
(425,260,l),
(560,520,l),
(358,520,l),
(291,360,l),
(289,360,l),
(222,520,l),
(20,520,l),
(155,260,l),
(20,0,l)
);
}
);
width = 580;
}
);
metricLeft = "=|k*1.8";
metricRight = "=|";
unicode = 120;
},
{
glyphname = y;
kernLeft = v;
kernRight = v;
lastChange = "2021-05-05 05:27:35 +0000";
layers = (
{
anchors = (
{
name = bottom;
pos = (261,0);
},
{
name = dotR;
pos = (300,-210);
},
{
name = top;
pos = (261,520);
}
);
layerId = "D65C9A1E-0FCA-4B2D-8EDF-9F36CA9182A1";
metricLeft = "=v*1.6";
metricRight = "=v";
shapes = (
{
closed = 1;
nodes = (
(163,-210,l),
(496,520,l),
(474,520,l),
(253,35,l),
(251,35,l),
(47,520,l),
(26,518,l),
(242,9,l),
(141,-210,l)
);
}
);
width = 512;
},
{
anchors = (
{
name = bottom;
pos = (273,0);
},
{
name = dotR;
pos = (370,-210);
},
{
name = top;
pos = (273,520);
}
);
layerId = "9527F797-22C1-480E-A1FE-2CDBEBE1FD4C";
metricLeft = "=v*.9";
shapes = (
{
closed = 1;
nodes = (
(240,-210,l),
(538,520,l),
(422,520,l),
(271,118,l),
(269,118,l),
(124,520,l),
(8,519,l),
(216,5,l),
(126,-210,l)
);
}
);
width = 543;
},
{
anchors = (
{
name = bottom;
pos = (296,0);
},
{
name = dotR;
pos = (440,-210);
},
{
name = top;
pos = (296,520);
}
);
layerId = "9E6B41AB-2970-4C41-8B35-4DBE0D296A43";
metricLeft = "=v*.2";
metricRight = "=v*.2";
shapes = (
{
closed = 1;
nodes = (
(329,-210,l),
(591,520,l),
(381,520,l),
(301,170,l),
(299,170,l),
(211,520,l),
(1,520,l),
(202,0,l),
(124,-210,l)
);
}
);
width = 592;
}
);
metricLeft = "=v*.2";
metricRight = "=v*.6";
unicode = 121;
},
{
glyphname = z;
kernLeft = z;
kernRight = z;
lastChange = "2021-05-05 05:27:35 +0000";
layers = (
{
anchors = (
{
name = bottom;
pos = (254,0);
},
{
name = center;
pos = (254,260);
},
{
name = top;
pos = (254,520);
}
);
layerId = "D65C9A1E-0FCA-4B2D-8EDF-9F36CA9182A1";
metricLeft = "=h*.6";
shapes = (
{
closed = 1;
nodes = (
(449,0,l),
(449,20,l),
(86,20,l),
(86,22,l),
(449,500,l),
(449,520,l),
(59,520,l),
(59,500,l),
(422,500,l),
(422,498,l),
(59,20,l),
(59,0,l)
);
}
);
width = 508;
},
{
anchors = (
{
name = bottom;
pos = (273,0);
},
{
name = center;
pos = (273,260);
},
{
name = top;
pos = (273,520);
}
);
layerId = "9527F797-22C1-480E-A1FE-2CDBEBE1FD4C";
metricLeft = "=h*.75";
shapes = (
{
closed = 1;
nodes = (
(488,0,l),
(488,90,l),
(199,90,l),
(199,92,l),
(488,430,l),
(488,520,l),
(58,520,l),
(58,430,l),
(347,430,l),
(347,428,l),
(58,90,l),
(58,0,l)
);
}
);
width = 546;
},
{
anchors = (
{
name = bottom;
pos = (284,0);
},
{
name = center;
pos = (284,260);
},
{
name = top;
pos = (284,520);
}
);
layerId = "9E6B41AB-2970-4C41-8B35-4DBE0D296A43";
metricLeft = "=h*.9";
shapes = (
{
closed = 1;
nodes = (
(519,0,l),
(519,140,l),
(296,140,l),
(296,142,l),
(519,380,l),
(519,520,l),
(49,520,l),
(49,380,l),
(272,380,l),
(272,378,l),
(49,140,l),
(49,0,l)
);
}
);
width = 568;
}
);
metricLeft = "=h*.9";
metricRight = "=|";
unicode = 122;
},
{
color = 9;
export = 0;
glyphname = a.001;
kernLeft = a;
kernRight = h;
lastChange = "2021-05-05 05:27:35 +0000";
layers = (
{
anchors = (
{
name = bottom;
pos = (250,0);
},
{
name = ogonek;
pos = (450,0);
},
{
name = top;
pos = (250,520);
}
);
layerId = "D65C9A1E-0FCA-4B2D-8EDF-9F36CA9182A1";
shapes = (
{
closed = 1;
nodes = (
(308,-10,o),
(392,35,o),
(429,104,c),
(430,104,l),
(430,0,l),
(450,0,l),
(450,325,ls),
(450,477,o),
(403,530,o),
(267,530,cs),
(202,530,o),
(140,516,o),
(83,490,c),
(92,472,l),
(147,497,o),
(205,510,o),
(267,510,cs),
(391,510,o),
(430,466,o),
(430,325,c),
(334,325,ls),
(143,325,o),
(40,262,o),
(40,145,cs),
(40,50,o),
(108,-10,o),
(216,-10,cs)
);
},
{
closed = 1;
nodes = (
(118,10,o),
(60,62,o),
(60,145,cs),
(60,249,o),
(154,305,o),
(334,305,cs),
(430,305,l),
(430,190,ls),
(430,89,o),
(336,10,o),
(216,10,cs)
);
}
);
width = 529;
},
{
anchors = (
{
name = bottom;
pos = (266,0);
},
{
name = ogonek;
pos = (491,0);
},
{
name = top;
pos = (266,520);
}
);
layerId = "9527F797-22C1-480E-A1FE-2CDBEBE1FD4C";
shapes = (
{
closed = 1;
nodes = (
(271,-10,o),
(349,19,o),
(385,60,c),
(387,60,l),
(388,0,l),
(491,0,l),
(491,328,ls),
(491,478,o),
(438,530,o),
(285,530,cs),
(211,530,o),
(135,518,o),
(75,496,c),
(89,407,l),
(145,428,o),
(210,440,o),
(271,440,cs),
(357,440,o),
(383,417,o),
(383,338,c),
(308,338,ls),
(131,338,o),
(31,269,o),
(31,148,cs),
(31,51,o),
(95,-10,o),
(199,-10,cs)
);
},
{
closed = 1;
nodes = (
(174,78,o),
(139,108,o),
(139,158,cs),
(139,223,o),
(200,256,o),
(323,256,cs),
(383,256,l),
(383,188,ls),
(383,127,o),
(318,78,o),
(237,78,cs)
);
}
);
width = 553;
},
{
anchors = (
{
name = bottom;
pos = (283,0);
},
{
name = ogonek;
pos = (532,0);
},
{
name = top;
pos = (283,520);
}
);
layerId = "9E6B41AB-2970-4C41-8B35-4DBE0D296A43";
shapes = (
{
closed = 1;
nodes = (
(244,-10,o),
(303,16,o),
(342,60,c),
(344,60,l),
(346,0,l),
(532,0,l),
(532,330,ls),
(532,476,o),
(470,530,o),
(303,530,cs),
(220,530,o),
(133,520,o),
(67,501,c),
(87,361,l),
(145,379,o),
(218,390,o),
(276,390,cs),
(326,390,o),
(336,380,o),
(336,330,c),
(282,330,ls),
(116,330,o),
(22,265,o),
(22,150,cs),
(22,53,o),
(85,-10,o),
(182,-10,cs)
);
},
{
closed = 1;
nodes = (
(219,125,o),
(198,141,o),
(198,170,cs),
(198,208,o),
(233,225,o),
(312,225,cs),
(336,225,l),
(336,185,ls),
(336,148,o),
(305,125,o),
(258,125,cs)
);
}
);
width = 575;
},
{
anchors = (
{
name = bottom;
pos = (255,0);
},
{
name = ogonek;
pos = (464,0);
},
{
name = top;
pos = (255,520);
}
);
associatedMasterId = "D65C9A1E-0FCA-4B2D-8EDF-9F36CA9182A1";
attr = {
coordinates = (
232
);
};
layerId = "37E9DD48-F59F-412B-917A-B9493104890B";
name = "{232}";
shapes = (
{
closed = 1;
nodes = (
(295,-10,o),
(379,28,o),
(414,82,c),
(416,82,l),
(416,0,l),
(464,0,l),
(464,326,ls),
(464,477,o),
(415,530,o),
(273,530,cs),
(194,530,o),
(117,513,o),
(50,482,c),
(61,441,l),
(125,471,o),
(196,487,o),
(268,487,cs),
(380,487,o),
(414,450,o),
(414,329,c),
(325,329,ls),
(139,329,o),
(37,264,o),
(37,146,cs),
(37,50,o),
(104,-10,o),
(210,-10,cs)
);
},
{
closed = 1;
nodes = (
(136,32,o),
(86,77,o),
(86,149,cs),
(86,240,o),
(169,289,o),
(330,289,cs),
(414,289,l),
(414,189,ls),
(414,102,o),
(330,32,o),
(223,32,cs)
);
}
);
width = 538;
},
{
anchors = (
{
name = bottom;
pos = (283,0);
},
{
name = ogonek;
pos = (532,0);
},
{
name = top;
pos = (283,520);
}
);
associatedMasterId = "9E6B41AB-2970-4C41-8B35-4DBE0D296A43";
layerId = "89D4719A-CBDC-4BDF-9388-F30BE0AAB6E3";
name = "Apr 30 21, 00:49";
shapes = (
{
closed = 1;
nodes = (
(244,-10,o),
(303,16,o),
(342,60,c),
(344,60,l),
(346,0,l),
(532,0,l),
(532,330,ls),
(532,476,o),
(470,530,o),
(303,530,cs),
(220,530,o),
(133,520,o),
(67,501,c),
(87,361,l),
(145,379,o),
(218,390,o),
(276,390,cs),
(326,390,o),
(336,380,o),
(336,330,c),
(282,330,ls),
(116,330,o),
(22,265,o),
(22,150,cs),
(22,53,o),
(85,-10,o),
(182,-10,cs)
);
},
{
closed = 1;
nodes = (
(219,125,o),
(198,141,o),
(198,170,cs),
(198,208,o),
(233,225,o),
(312,225,cs),
(336,225,l),
(336,185,ls),
(336,148,o),
(305,125,o),
(258,125,cs)
);
}
);
width = 575;
}
);
metricLeft = "=h*.4";
metricRight = "=h";
},
{
glyphname = f_f;
kernLeft = f;
kernRight = f;
lastChange = "2021-05-05 05:27:35 +0000";
layers = (
{
layerId = "D65C9A1E-0FCA-4B2D-8EDF-9F36CA9182A1";
shapes = (
{
closed = 1;
nodes = (
(214,0,l),
(214,480,l),
(514,480,l),
(514,0,l),
(534,0,l),
(534,480,l),
(738,480,l),
(738,500,l),
(534,500,l),
(534,620,ls),
(534,711,o),
(571,750,o),
(658,750,cs),
(685,750,o),
(706,746,o),
(733,736,c),
(740,755,l),
(710,766,o),
(686,770,o),
(658,770,cs),
(560,770,o),
(514,722,o),
(514,620,cs),
(514,500,l),
(214,500,l),
(214,620,ls),
(214,711,o),
(251,750,o),
(338,750,cs),
(365,750,o),
(386,746,o),
(413,736,c),
(420,755,l),
(390,766,o),
(366,770,o),
(338,770,cs),
(240,770,o),
(194,722,o),
(194,620,cs),
(194,500,l),
(30,500,l),
(30,480,l),
(194,480,l),
(194,0,l)
);
}
);
width = 770;
},
{
layerId = "9527F797-22C1-480E-A1FE-2CDBEBE1FD4C";
shapes = (
{
closed = 1;
nodes = (
(270,0,l),
(270,410,l),
(521,410,l),
(521,0,l),
(630,0,l),
(630,410,l),
(800,410,l),
(800,500,l),
(630,500,l),
(630,577,ls),
(630,650,o),
(654,677,o),
(719,677,cs),
(743,677,o),
(766,673,o),
(790,665,c),
(803,755,l),
(775,764,o),
(739,770,o),
(702,770,cs),
(582,770,o),
(521,708,o),
(521,585,cs),
(521,500,l),
(270,500,l),
(270,577,ls),
(270,650,o),
(294,677,o),
(359,677,cs),
(383,677,o),
(406,673,o),
(430,665,c),
(443,755,l),
(415,764,o),
(379,770,o),
(342,770,cs),
(222,770,o),
(161,708,o),
(161,585,cs),
(161,500,l),
(23,500,l),
(23,410,l),
(161,410,l),
(161,0,l)
);
}
);
width = 826;
},
{
layerId = "9E6B41AB-2970-4C41-8B35-4DBE0D296A43";
shapes = (
{
closed = 1;
nodes = (
(325,0,l),
(325,360,l),
(525,360,l),
(525,0,l),
(723,0,l),
(723,360,l),
(859,360,l),
(859,500,l),
(723,500,l),
(723,550,ls),
(723,605,o),
(736,620,o),
(778,620,cs),
(797,620,o),
(819,617,o),
(844,610,c),
(864,755,l),
(825,765,o),
(779,770,o),
(743,770,cs),
(601,770,o),
(525,693,o),
(525,550,cs),
(525,500,l),
(325,500,l),
(325,550,ls),
(325,605,o),
(338,620,o),
(380,620,cs),
(399,620,o),
(421,617,o),
(446,610,c),
(466,755,l),
(427,765,o),
(381,770,o),
(345,770,cs),
(203,770,o),
(127,693,o),
(127,550,cs),
(127,500,l),
(16,500,l),
(16,360,l),
(127,360,l),
(127,0,l)
);
}
);
width = 880;
}
);
metricLeft = f;
metricRight = f;
},
{
glyphname = m_p_l_u_s_f_o_n_t_s;
kernLeft = H;
kernRight = S;
lastChange = "2021-05-05 05:27:35 +0000";
layers = (
{
layerId = "D65C9A1E-0FCA-4B2D-8EDF-9F36CA9182A1";
shapes = (
{
closed = 1;
nodes = (
(1820,0,l),
(1820,270,l),
(2140,270,l),
(2140,430,l),
(1820,430,l),
(1820,565,l),
(2160,565,l),
(2160,730,l),
(1620,730,l),
(1620,0,l)
);
},
{
closed = 1;
nodes = (
(2854,-10,o),
(2995,129,o),
(2995,365,cs),
(2995,601,o),
(2854,740,o),
(2615,740,cs),
(2376,740,o),
(2235,601,o),
(2235,365,cs),
(2235,129,o),
(2376,-10,o),
(2615,-10,cs)
);
},
{
closed = 1;
nodes = (
(2499,160,o),
(2440,229,o),
(2440,365,cs),
(2440,501,o),
(2499,570,o),
(2615,570,cs),
(2731,570,o),
(2790,501,o),
(2790,365,cs),
(2790,229,o),
(2731,160,o),
(2615,160,cs)
);
},
{
closed = 1;
nodes = (
(3285,0,l),
(3285,390,l),
(3287,390,l),
(3505,0,l),
(3705,0,l),
(3705,730,l),
(3505,730,l),
(3505,340,l),
(3503,340,l),
(3285,730,l),
(3085,730,l),
(3085,0,l)
);
},
{
closed = 1;
nodes = (
(4202,0,l),
(4202,560,l),
(4409,560,l),
(4409,730,l),
(3789,730,l),
(3789,560,l),
(3996,560,l),
(3996,0,l)
);
},
{
closed = 1;
nodes = (
(310,0,l),
(310,420,l),
(312,420,l),
(400,155,l),
(580,155,l),
(668,420,l),
(670,420,l),
(670,0,l),
(870,0,l),
(870,560,l),
(1075,560,l),
(1075,355,l),
(1245,355,l),
(1245,560,l),
(1450,560,l),
(1450,730,l),
(1245,730,l),
(1245,935,l),
(1075,935,l),
(1075,730,l),
(622,730,l),
(491,340,l),
(489,340,l),
(358,730,l),
(110,730,l),
(110,0,l)
);
},
{
closed = 1;
nodes = (
(4950,-10,o),
(5063,69,o),
(5063,210,cs),
(5063,320,o),
(4995,384,o),
(4825,434,cs),
(4706,469,o),
(4679,488,o),
(4679,526,cs),
(4679,560,o),
(4710,575,o),
(4777,575,cs),
(4853,575,o),
(4935,556,o),
(5007,522,c),
(5049,692,l),
(4978,722,o),
(4877,740,o),
(4780,740,cs),
(4580,740,o),
(4469,663,o),
(4469,525,cs),
(4469,413,o),
(4540,340,o),
(4697,297,cs),
(4823,262,o),
(4853,245,o),
(4853,210,cs),
(4853,174,o),
(4822,155,o),
(4763,155,cs),
(4689,155,o),
(4580,185,o),
(4511,224,c),
(4469,54,l),
(4534,14,o),
(4640,-10,o),
(4750,-10,cs)
);
}
);
width = 5140;
},
{
layerId = "9E6B41AB-2970-4C41-8B35-4DBE0D296A43";
shapes = (
{
closed = 1;
nodes = (
(1770,0,l),
(1770,270,l),
(2090,270,l),
(2090,430,l),
(1770,430,l),
(1770,565,l),
(2110,565,l),
(2110,730,l),
(1570,730,l),
(1570,0,l)
);
},
{
closed = 1;
nodes = (
(2804,-10,o),
(2945,129,o),
(2945,365,cs),
(2945,601,o),
(2804,740,o),
(2565,740,cs),
(2326,740,o),
(2185,601,o),
(2185,365,cs),
(2185,129,o),
(2326,-10,o),
(2565,-10,cs)
);
},
{
closed = 1;
nodes = (
(2449,160,o),
(2390,229,o),
(2390,365,cs),
(2390,501,o),
(2449,570,o),
(2565,570,cs),
(2681,570,o),
(2740,501,o),
(2740,365,cs),
(2740,229,o),
(2681,160,o),
(2565,160,cs)
);
},
{
closed = 1;
nodes = (
(3235,0,l),
(3235,390,l),
(3237,390,l),
(3455,0,l),
(3655,0,l),
(3655,730,l),
(3455,730,l),
(3455,340,l),
(3453,340,l),
(3235,730,l),
(3035,730,l),
(3035,0,l)
);
},
{
closed = 1;
nodes = (
(4152,0,l),
(4152,560,l),
(4359,560,l),
(4359,730,l),
(3739,730,l),
(3739,560,l),
(3946,560,l),
(3946,0,l)
);
},
{
closed = 1;
nodes = (
(260,0,l),
(260,420,l),
(262,420,l),
(350,155,l),
(530,155,l),
(618,420,l),
(620,420,l),
(620,0,l),
(820,0,l),
(820,560,l),
(1025,560,l),
(1025,355,l),
(1195,355,l),
(1195,560,l),
(1400,560,l),
(1400,730,l),
(1195,730,l),
(1195,935,l),
(1025,935,l),
(1025,730,l),
(572,730,l),
(441,340,l),
(439,340,l),
(308,730,l),
(60,730,l),
(60,0,l)
);
},
{
closed = 1;
nodes = (
(4900,-10,o),
(5013,69,o),
(5013,210,cs),
(5013,320,o),
(4945,384,o),
(4775,434,cs),
(4656,469,o),
(4629,488,o),
(4629,526,cs),
(4629,560,o),
(4660,575,o),
(4727,575,cs),
(4803,575,o),
(4885,556,o),
(4957,522,c),
(4999,692,l),
(4928,722,o),
(4827,740,o),
(4730,740,cs),
(4530,740,o),
(4419,663,o),
(4419,525,cs),
(4419,413,o),
(4490,340,o),
(4647,297,cs),
(4773,262,o),
(4803,245,o),
(4803,210,cs),
(4803,174,o),
(4772,155,o),
(4713,155,cs),
(4639,155,o),
(4530,185,o),
(4461,224,c),
(4419,54,l),
(4484,14,o),
(4590,-10,o),
(4700,-10,cs)
);
}
);
width = 5049;
},
{
layerId = "9527F797-22C1-480E-A1FE-2CDBEBE1FD4C";
shapes = (
{
closed = 1;
nodes = (
(1795,0,l),
(1795,270,l),
(2115,270,l),
(2115,430,l),
(1795,430,l),
(1795,565,l),
(2135,565,l),
(2135,730,l),
(1595,730,l),
(1595,0,l)
);
},
{
closed = 1;
nodes = (
(2829,-10,o),
(2970,129,o),
(2970,365,cs),
(2970,601,o),
(2829,740,o),
(2590,740,cs),
(2351,740,o),
(2210,601,o),
(2210,365,cs),
(2210,129,o),
(2351,-10,o),
(2590,-10,cs)
);
},
{
closed = 1;
nodes = (
(2474,160,o),
(2415,229,o),
(2415,365,cs),
(2415,501,o),
(2474,570,o),
(2590,570,cs),
(2706,570,o),
(2765,501,o),
(2765,365,cs),
(2765,229,o),
(2706,160,o),
(2590,160,cs)
);
},
{
closed = 1;
nodes = (
(3260,0,l),
(3260,390,l),
(3262,390,l),
(3480,0,l),
(3680,0,l),
(3680,730,l),
(3480,730,l),
(3480,340,l),
(3478,340,l),
(3260,730,l),
(3060,730,l),
(3060,0,l)
);
},
{
closed = 1;
nodes = (
(4177,0,l),
(4177,560,l),
(4384,560,l),
(4384,730,l),
(3764,730,l),
(3764,560,l),
(3971,560,l),
(3971,0,l)
);
},
{
closed = 1;
nodes = (
(285,0,l),
(285,420,l),
(287,420,l),
(375,155,l),
(555,155,l),
(643,420,l),
(645,420,l),
(645,0,l),
(845,0,l),
(845,560,l),
(1050,560,l),
(1050,355,l),
(1220,355,l),
(1220,560,l),
(1425,560,l),
(1425,730,l),
(1220,730,l),
(1220,935,l),
(1050,935,l),
(1050,730,l),
(597,730,l),
(466,340,l),
(464,340,l),
(333,730,l),
(85,730,l),
(85,0,l)
);
},
{
closed = 1;
nodes = (
(4925,-10,o),
(5038,69,o),
(5038,210,cs),
(5038,320,o),
(4970,384,o),
(4800,434,cs),
(4681,469,o),
(4654,488,o),
(4654,526,cs),
(4654,560,o),
(4685,575,o),
(4752,575,cs),
(4828,575,o),
(4910,556,o),
(4982,522,c),
(5024,692,l),
(4953,722,o),
(4852,740,o),
(4755,740,cs),
(4555,740,o),
(4444,663,o),
(4444,525,cs),
(4444,413,o),
(4515,340,o),
(4672,297,cs),
(4798,262,o),
(4828,245,o),
(4828,210,cs),
(4828,174,o),
(4797,155,o),
(4738,155,cs),
(4664,155,o),
(4555,185,o),
(4486,224,c),
(4444,54,l),
(4509,14,o),
(4615,-10,o),
(4725,-10,cs)
);
}
);
width = 5093;
}
);
metricLeft = "=M";
metricRight = "=S";
},
{
glyphname = ordfeminine;
kernLeft = asterisk;
kernRight = asterisk;
lastChange = "2021-05-05 05:27:35 +0000";
layers = (
{
layerId = "D65C9A1E-0FCA-4B2D-8EDF-9F36CA9182A1";
shapes = (
{
closed = 1;
nodes = (
(246,306,o),
(309,338,o),
(342,389,c),
(344,389,l),
(344,314,l),
(364,314,l),
(364,574,ls),
(364,695,o),
(326,738,o),
(217,738,cs),
(163,738,o),
(113,728,o),
(66,708,c),
(75,689,l),
(119,708,o),
(166,718,o),
(217,718,cs),
(314,718,o),
(344,684,o),
(344,574,c),
(271,574,ls),
(118,574,o),
(36,523,o),
(36,430,cs),
(36,354,o),
(90,306,o),
(176,306,cs)
);
},
{
closed = 1;
nodes = (
(101,326,o),
(56,365,o),
(56,430,cs),
(56,511,o),
(130,554,o),
(271,554,cs),
(344,554,l),
(344,466,ls),
(344,388,o),
(270,326,o),
(176,326,cs)
);
}
);
width = 435;
},
{
layerId = "9527F797-22C1-480E-A1FE-2CDBEBE1FD4C";
shapes = (
{
closed = 1;
nodes = (
(214,306,o),
(269,324,o),
(301,352,c),
(303,352,l),
(304,314,l),
(396,314,l),
(396,576,ls),
(396,696,o),
(353,738,o),
(231,738,cs),
(170,738,o),
(107,729,o),
(59,713,c),
(74,633,l),
(119,648,o),
(171,656,o),
(220,656,cs),
(284,656,o),
(299,642,o),
(299,584,c),
(249,584,ls),
(108,584,o),
(28,529,o),
(28,432,cs),
(28,355,o),
(79,306,o),
(162,306,cs)
);
},
{
closed = 1;
nodes = (
(148,386,o),
(124,405,o),
(124,440,cs),
(124,485,o),
(169,509,o),
(261,509,cs),
(299,509,l),
(299,464,ls),
(299,421,o),
(251,386,o),
(193,386,cs)
);
}
);
width = 452;
},
{
layerId = "9E6B41AB-2970-4C41-8B35-4DBE0D296A43";
shapes = (
{
closed = 1;
nodes = (
(192,306,o),
(235,322,o),
(266,352,c),
(268,352,l),
(269,314,l),
(428,314,l),
(428,578,ls),
(428,695,o),
(378,738,o),
(245,738,cs),
(177,738,o),
(105,731,o),
(52,717,c),
(71,596,l),
(118,608,o),
(177,616,o),
(223,616,cs),
(257,616,o),
(261,612,o),
(261,578,c),
(228,578,ls),
(95,578,o),
(20,526,o),
(20,434,cs),
(20,356,o),
(70,306,o),
(148,306,cs)
);
},
{
closed = 1;
nodes = (
(183,424,o),
(171,433,o),
(171,450,cs),
(171,473,o),
(195,484,o),
(252,484,cs),
(261,484,l),
(261,462,ls),
(261,439,o),
(242,424,o),
(209,424,cs)
);
}
);
width = 467;
},
{
associatedMasterId = "D65C9A1E-0FCA-4B2D-8EDF-9F36CA9182A1";
attr = {
coordinates = (
232
);
};
layerId = "02CE7075-E2BA-495E-B00B-7DF72736FD8B";
name = "{232}";
shapes = (
{
closed = 1;
nodes = (
(234,306,o),
(296,332,o),
(328,371,c),
(330,371,l),
(330,314,l),
(374,314,l),
(374,575,ls),
(374,695,o),
(334,738,o),
(221,738,cs),
(158,738,o),
(96,724,o),
(43,700,c),
(54,661,l),
(104,685,o),
(160,698,o),
(217,698,cs),
(303,698,o),
(328,670,o),
(328,577,c),
(263,577,ls),
(114,577,o),
(33,525,o),
(33,431,cs),
(33,354,o),
(86,306,o),
(171,306,cs)
);
},
{
closed = 1;
nodes = (
(116,346,o),
(78,378,o),
(78,433,cs),
(78,502,o),
(142,539,o),
(267,539,cs),
(328,539,l),
(328,465,ls),
(328,399,o),
(263,346,o),
(181,346,cs)
);
}
);
width = 441;
}
);
metricLeft = "=a*.9";
metricRight = "=a*.9";
unicode = 170;
},
{
glyphname = ordmasculine;
kernLeft = asterisk;
kernRight = asterisk;
lastChange = "2021-05-05 05:27:35 +0000";
layers = (
{
layerId = "D65C9A1E-0FCA-4B2D-8EDF-9F36CA9182A1";
shapes = (
{
closed = 1;
nodes = (
(357,306,o),
(429,388,o),
(429,522,cs),
(429,656,o),
(357,738,o),
(237,738,cs),
(119,738,o),
(45,656,o),
(45,522,cs),
(45,388,o),
(119,306,o),
(237,306,cs)
);
},
{
closed = 1;
nodes = (
(130,326,o),
(66,398,o),
(66,522,cs),
(66,646,o),
(130,718,o),
(238,718,cs),
(345,718,o),
(410,646,o),
(410,522,cs),
(410,398,o),
(345,326,o),
(238,326,cs)
);
}
);
width = 474;
},
{
layerId = "9527F797-22C1-480E-A1FE-2CDBEBE1FD4C";
shapes = (
{
closed = 1;
nodes = (
(375,306,o),
(451,384,o),
(451,522,cs),
(451,660,o),
(375,738,o),
(243,738,cs),
(111,738,o),
(35,660,o),
(35,522,cs),
(35,384,o),
(111,306,o),
(243,306,cs)
);
},
{
closed = 1;
nodes = (
(169,388,o),
(131,434,o),
(131,522,cs),
(131,610,o),
(169,656,o),
(243,656,cs),
(317,656,o),
(355,610,o),
(355,522,cs),
(355,434,o),
(317,388,o),
(243,388,cs)
);
}
);
width = 486;
},
{
layerId = "9E6B41AB-2970-4C41-8B35-4DBE0D296A43";
shapes = (
{
closed = 1;
nodes = (
(394,306,o),
(472,381,o),
(472,522,cs),
(472,663,o),
(394,738,o),
(248,738,cs),
(102,738,o),
(24,663,o),
(24,522,cs),
(24,381,o),
(102,306,o),
(248,306,cs)
);
},
{
closed = 1;
nodes = (
(207,428,o),
(190,454,o),
(190,522,cs),
(190,590,o),
(207,616,o),
(248,616,cs),
(289,616,o),
(306,590,o),
(306,522,cs),
(306,454,o),
(289,428,o),
(248,428,cs)
);
}
);
width = 496;
}
);
metricLeft = "=o*.9";
metricRight = "=|";
unicode = 186;
},
{
color = 10;
glyphname = "a-hira";
lastChange = "2022-08-20 03:46:58 +0000";
layers = (
{
background = {
shapes = (
{
closed = 1;
nodes = (
(890,655,l),
(890,675,l),
(110,675,l),
(110,655,l)
);
},
{
closed = 1;
nodes = (
(395,55,l),
(395,488,l),
(395,488,l),
(395,805,l),
(375,805,l),
(375,488,l),
(375,488,l),
(375,55,l)
);
},
{
closed = 0;
nodes = (
(601,-34,l),
(766,-23,o),
(890,100,o),
(890,252,cs),
(890,417,o),
(745,525,o),
(525,525,cs),
(275,525,o),
(110,388,o),
(110,182,cs),
(110,67,o),
(162,-13,o),
(237,-14,cs),
(360,-16,o),
(594,195,o),
(761,460,c)
);
},
{
closed = 0;
nodes = (
(601,-34,l),
(766,-23,o),
(890,100,o),
(890,252,cs),
(890,417,o),
(745,525,o),
(525,525,cs),
(275,525,o),
(110,388,o),
(110,182,cs),
(110,67,o),
(162,-13,o),
(237,-14,cs),
(360,-16,o),
(594,195,o),
(761,460,c)
);
}
);
};
layerId = "D65C9A1E-0FCA-4B2D-8EDF-9F36CA9182A1";
shapes = (
{
closed = 1;
nodes = (
(890,655,l),
(890,675,l),
(110,675,l),
(110,655,l)
);
},
{
closed = 1;
nodes = (
(395,55,l),
(395,488,l),
(395,488,l),
(395,805,l),
(375,805,l),
(375,488,l),
(375,488,l),
(375,55,l)
);
},
{
closed = 1;
nodes = (
(766,-23,o),
(890,100,o),
(890,252,cs),
(890,417,o),
(745,525,o),
(525,525,cs),
(275,525,o),
(110,388,o),
(110,182,cs),
(110,67,o),
(162,-13,o),
(237,-14,cs),
(360,-16,o),
(594,195,o),
(761,460,c),
(744,471,l),
(579,208,o),
(352,4,o),
(237,6,cs),
(173,7,o),
(130,73,o),
(130,182,cs),
(130,379,o),
(282,505,o),
(525,505,cs),
(738,505,o),
(870,407,o),
(870,252,cs),
(870,108,o),
(757,-4,o),
(600,-14,c),
(601,-34,l)
);
}
);
width = 1000;
},
{
layerId = "9527F797-22C1-480E-A1FE-2CDBEBE1FD4C";
shapes = (
{
closed = 1;
nodes = (
(900,615,l),
(900,700,l),
(100,700,l),
(100,615,l)
);
},
{
closed = 1;
nodes = (
(447,45,l),
(447,462,l),
(447,462,l),
(447,810,l),
(347,810,l),
(347,462,l),
(347,462,l),
(347,45,l)
);
},
{
closed = 1;
nodes = (
(794,-34,o),
(910,90,o),
(910,243,cs),
(910,418,o),
(759,530,o),
(522,530,cs),
(258,530,o),
(90,392,o),
(90,174,cs),
(90,41,o),
(153,-38,o),
(260,-39,cs),
(410,-40,o),
(589,114,o),
(770,401,c),
(689,451,l),
(559,227,o),
(374,47,o),
(274,48,cs),
(222,49,o),
(190,99,o),
(190,180,cs),
(190,344,o),
(319,447,o),
(523,447,cs),
(699,447,o),
(810,368,o),
(810,243,cs),
(810,134,o),
(726,51,o),
(598,34,c),
(628,-56,l)
);
}
);
width = 1000;
},
{
associatedMasterId = "9527F797-22C1-480E-A1FE-2CDBEBE1FD4C";
attr = {
coordinates = (
767
);
};
layerId = "ED9AD003-790A-45B3-87D4-A016D5568221";
name = "{767}";
shapes = (
{
closed = 1;
nodes = (
(907,588,l),
(907,717,l),
(93,717,l),
(93,588,l)
);
},
{
closed = 1;
nodes = (
(481,52,l),
(481,444,l),
(481,444,l),
(481,813,l),
(328,813,l),
(328,444,l),
(328,444,l),
(328,52,l)
);
},
{
closed = 1;
nodes = (
(811,-41,o),
(923,84,o),
(923,237,cs),
(923,418,o),
(766,533,o),
(521,533,cs),
(250,533,o),
(77,392,o),
(77,171,cs),
(77,29,o),
(150,-56,o),
(273,-56,cs),
(431,-57,o),
(600,83,o),
(775,361,c),
(657,437,l),
(548,236,o),
(389,76,o),
(299,76,cs),
(255,76,o),
(227,116,o),
(227,177,cs),
(227,319,o),
(340,408,o),
(521,408,cs),
(676,408,o),
(770,343,o),
(770,237,cs),
(770,147,o),
(703,80,o),
(589,56,c),
(646,-71,l)
);
}
);
width = 1000;
},
{
layerId = "9E6B41AB-2970-4C41-8B35-4DBE0D296A43";
shapes = (
{
closed = 1;
nodes = (
(910,575,l),
(910,725,l),
(90,725,l),
(90,575,l)
);
},
{
closed = 1;
nodes = (
(488,55,l),
(488,435,l),
(498,435,l),
(498,815,l),
(318,815,l),
(318,435,l),
(328,435,l),
(328,55,l)
);
},
{
closed = 1;
nodes = (
(820,-45,o),
(930,81,o),
(930,234,cs),
(930,418,o),
(770,535,o),
(520,535,cs),
(246,535,o),
(70,392,o),
(70,170,cs),
(70,23,o),
(149,-65,o),
(280,-65,cs),
(442,-65,o),
(605,68,o),
(778,341,c),
(641,430,l),
(543,241,o),
(396,90,o),
(311,90,cs),
(271,90,o),
(245,124,o),
(245,176,cs),
(245,306,o),
(351,388,o),
(520,388,cs),
(664,388,o),
(750,330,o),
(750,234,cs),
(750,154,o),
(691,94,o),
(585,67,c),
(655,-78,l)
);
}
);
width = 1000;
}
);
unicode = 12354;
},
{
glyphname = "asmall-hira";
lastChange = "2021-05-05 05:27:35 +0000";
layers = (
{
layerId = "D65C9A1E-0FCA-4B2D-8EDF-9F36CA9182A1";
shapes = (
{
closed = 1;
nodes = (
(418,73,l),
(418,382,l),
(418,382,l),
(418,636,l),
(398,636,l),
(398,382,l),
(398,382,l),
(398,73,l)
);
},
{
closed = 1;
nodes = (
(812,506,l),
(812,526,l),
(188,526,l),
(188,506,l)
);
},
{
closed = 1;
nodes = (
(581,-35,l),
(715.2,-19.2,o),
(812,74.4,o),
(812,189.6,cs),
(812,319.2,o),
(694.4,404,o),
(516,404,cs),
(333.6,404,o),
(188,280.8,o),
(188,125.6,cs),
(188,51.2,o),
(221.6,-2.4,o),
(270.4,-3.2,cs),
(356.8,-4,o),
(572,183.2,o),
(689,360,c),
(672,371,l),
(560,201,o),
(348,16,o),
(271,17,cs),
(235,17,o),
(208,62,o),
(208,126,cs),
(208,269,o),
(344,384,o),
(516,384,cs),
(684,384,o),
(792,307,o),
(792,190,cs),
(792,85,o),
(703,0,o),
(579,-15,c)
);
}
);
width = 1000;
},
{
layerId = "9527F797-22C1-480E-A1FE-2CDBEBE1FD4C";
shapes = (
{
closed = 1;
nodes = (
(464,55,l),
(464,349,l),
(466,349,l),
(466,640,l),
(368,640,l),
(368,349,l),
(370,349,l),
(370,55,l)
);
},
{
closed = 1;
nodes = (
(820,473,l),
(820,557,l),
(180,557,l),
(180,473,l)
);
},
{
closed = 1;
nodes = (
(604,-58,l),
(738,-36,o),
(833,64,o),
(833,184,cs),
(833,327,o),
(713,413,o),
(516,413,cs),
(317,413,o),
(167,289,o),
(167,123,cs),
(167,30,o),
(215,-32,o),
(289,-33,cs),
(397,-33,o),
(582,120,o),
(709,310,c),
(637,360,l),
(532,204,o),
(368,55,o),
(302,56,cs),
(278,56,o),
(263,83,o),
(263,126,cs),
(263,244,o),
(374,329,o),
(529,329,cs),
(656,329,o),
(735,274,o),
(735,185,cs),
(735,106,o),
(671,43,o),
(572,26,c)
);
}
);
width = 1000;
},
{
layerId = "9E6B41AB-2970-4C41-8B35-4DBE0D296A43";
shapes = (
{
closed = 1;
nodes = (
(488,36,l),
(488,316,l),
(508,316,l),
(508,644,l),
(344,644,l),
(344,316,l),
(364,316,l),
(364,36,l)
);
},
{
closed = 1;
nodes = (
(828,444,l),
(828,584,l),
(172,584,l),
(172,444,l)
);
},
{
closed = 1;
nodes = (
(626,-80,l),
(760,-53,o),
(854,53,o),
(854,179,cs),
(854,335,o),
(732,422,o),
(516,422,cs),
(300,422,o),
(146,297,o),
(146,120,cs),
(146,8,o),
(208,-62,o),
(308,-62,cs),
(437,-62,o),
(587,56,o),
(722,263,c),
(625,332,l),
(506,175,o),
(398,82,o),
(333,82,cs),
(314,82,o),
(306,94,o),
(306,125,cs),
(306,224,o),
(396,286,o),
(541,286,cs),
(636,286,o),
(690,247,o),
(690,180,cs),
(690,120,o),
(646,76,o),
(566,55,c)
);
}
);
width = 1000;
}
);
unicode = 12353;
},
{
color = 10;
glyphname = "i-hira";
lastChange = "2022-08-25 03:44:46 +0000";
layers = (
{
layerId = "D65C9A1E-0FCA-4B2D-8EDF-9F36CA9182A1";
shapes = (
{
closed = 1;
nodes = (
(474,0,o),
(596,139,o),
(655,326,c),
(636,332,l),
(578,149,o),
(465,20,o),
(368,20,cs),
(251,20,o),
(135,209,o),
(135,411,cs),
(135,490,o),
(154,611,o),
(179,697,c),
(160,703,l),
(134,615,o),
(115,492,o),
(115,411,cs),
(115,203,o),
(240,0,o),
(368,0,cs)
);
},
{
closed = 1;
nodes = (
(915,92,l),
(915,324,o),
(860,559,o),
(768,715,c),
(750,705,l),
(840,553,o),
(895,322,o),
(895,92,c)
);
}
);
width = 1000;
},
{
layerId = "9527F797-22C1-480E-A1FE-2CDBEBE1FD4C";
shapes = (
{
closed = 1;
nodes = (
(485,-25,o),
(617,108,o),
(685,299,c),
(590,347,l),
(534,192,o),
(444,88,o),
(369,88,cs),
(279,88,o),
(196,238,o),
(196,409,cs),
(196,490,o),
(214,605,o),
(243,704,c),
(139,717,l),
(108,605,o),
(89,486,o),
(89,395,cs),
(89,163,o),
(210,-25,o),
(359,-25,cs)
);
},
{
closed = 1;
nodes = (
(939,71,l),
(939,319,o),
(889,555,o),
(798,733,c),
(700,703,l),
(784,532,o),
(833,300,o),
(833,71,c)
);
}
);
width = 1000;
},
{
layerId = "9E6B41AB-2970-4C41-8B35-4DBE0D296A43";
shapes = (
{
closed = 1;
nodes = (
(496,-50,o),
(638,76,o),
(714,272,c),
(544,362,l),
(489,234,o),
(422,155,o),
(369,155,cs),
(306,155,o),
(256,267,o),
(256,407,cs),
(256,490,o),
(274,599,o),
(306,710,c),
(118,730,l),
(81,594,o),
(63,479,o),
(63,379,cs),
(63,123,o),
(179,-50,o),
(350,-50,cs)
);
},
{
closed = 1;
nodes = (
(963,50,l),
(963,313,o),
(917,551,o),
(828,750,c),
(650,700,l),
(727,510,o),
(770,277,o),
(770,50,c)
);
}
);
width = 1000;
}
);
unicode = 12356;
},
{
glyphname = "ismall-hira";
lastChange = "2021-05-05 05:27:35 +0000";
layers = (
{
layerId = "D65C9A1E-0FCA-4B2D-8EDF-9F36CA9182A1";
shapes = (
{
closed = 1;
nodes = (
(440.8,-8,o),
(548.8,116,o),
(592,253,c),
(573,259,l),
(532,131,o),
(430,12,o),
(363,12,cs),
(288,12,o),
(212,160,o),
(212,315,cs),
(212,384,o),
(225,474,o),
(247,548,c),
(228,554,l),
(205.6,476.8,o),
(192,384.8,o),
(192,315.2,cs),
(192,148,o),
(274.4,-8,o),
(363.2,-8,cs)
);
},
{
closed = 1;
nodes = (
(832,66,l),
(832,251,o),
(788,439,o),
(714,564,c),
(697,554,l),
(769,433,o),
(812,249,o),
(812,66,c)
);
}
);
width = 1000;
},
{
layerId = "9527F797-22C1-480E-A1FE-2CDBEBE1FD4C";
shapes = (
{
closed = 1;
nodes = (
(451,-28,o),
(565,88,o),
(616,232,c),
(523,277,l),
(488,178,o),
(408,80,o),
(365,80,cs),
(321,80,o),
(275,197,o),
(275,317,cs),
(275,387,o),
(288,468,o),
(312,549,c),
(211,565,l),
(185,472,o),
(171,384,o),
(171,308,cs),
(171,118,o),
(252,-28,o),
(358,-28,cs)
);
},
{
closed = 1;
nodes = (
(851,49,l),
(851,247,o),
(811,436,o),
(738,578,c),
(644,546,l),
(710,413,o),
(748,230,o),
(748,49,c)
);
}
);
width = 1000;
},
{
layerId = "9E6B41AB-2970-4C41-8B35-4DBE0D296A43";
shapes = (
{
closed = 1;
nodes = (
(462,-48,o),
(582,59,o),
(639,210,c),
(485,290,l),
(452,213,o),
(391,136,o),
(366,136,cs),
(347,136,o),
(325,218,o),
(325,318,cs),
(325,388,o),
(336,459,o),
(364,554,c),
(194,576,l),
(164,467,o),
(150,383,o),
(150,300,cs),
(150,87,o),
(229,-48,o),
(352,-48,cs)
);
},
{
closed = 1;
nodes = (
(870,32,l),
(870,242,o),
(834,433,o),
(762,592,c),
(601,544,l),
(662,395,o),
(696,211,o),
(696,32,c)
);
}
);
width = 1000;
}
);
unicode = 12355;
},
{
color = 10;
glyphname = "u-hira";
lastChange = "2022-08-31 07:22:10 +0000";
layers = (
{
layerId = "D65C9A1E-0FCA-4B2D-8EDF-9F36CA9182A1";
shapes = (
{
closed = 1;
nodes = (
(746,720,l),
(602,720,o),
(397,736,o),
(235,760,c),
(232,740,l),
(395,716,o),
(601,700,o),
(746,700,c)
);
},
{
closed = 1;
nodes = (
(654,-30,o),
(870,87,o),
(870,292,cs),
(870,441,o),
(755,520,o),
(539,520,cs),
(420,520,o),
(276,496,o),
(118,450,c),
(124,431,l),
(280,476,o),
(422,500,o),
(539,500,cs),
(749,500,o),
(850,430,o),
(850,292,cs),
(850,99,o),
(649,-10,o),
(274,-10,c),
(274,-30,l)
);
}
);
width = 1000;
},
{
layerId = "9E6B41AB-2970-4C41-8B35-4DBE0D296A43";
shapes = (
{
closed = 1;
nodes = (
(792,765,l),
(605,765,o),
(366,777,o),
(195,795,c),
(175,611,l),
(392,595,o),
(629,585,o),
(792,585,c)
);
},
{
closed = 1;
nodes = (
(682,-75,o),
(909,45,o),
(909,278,cs),
(909,449,o),
(788,535,o),
(549,535,cs),
(420,535,o),
(267,510,o),
(59,455,c),
(106,280,l),
(342,341,o),
(454,362,o),
(544,362,cs),
(654,362,o),
(704,331,o),
(704,263,cs),
(704,148,o),
(559,100,o),
(214,100,c),
(239,-75,l)
);
}
);
width = 1000;
},
{
layerId = "9527F797-22C1-480E-A1FE-2CDBEBE1FD4C";
shapes = (
{
closed = 1;
nodes = (
(769,743,l),
(604,743,o),
(382,757,o),
(215,778,c),
(204,676,l),
(394,656,o),
(615,643,o),
(769,643,c)
);
},
{
closed = 1;
nodes = (
(668,-52,o),
(890,66,o),
(890,285,cs),
(890,445,o),
(772,528,o),
(544,528,cs),
(421,528,o),
(275,504,o),
(89,453,c),
(115,356,l),
(312,409,o),
(437,431,o),
(542,431,cs),
(700,431,o),
(777,381,o),
(777,278,cs),
(777,122,o),
(601,45,o),
(244,45,c),
(257,-52,l)
);
}
);
width = 1000;
}
);
unicode = 12358;
},
{
glyphname = "usmall-hira";
lastChange = "2021-05-05 05:27:35 +0000";
layers = (
{
layerId = "D65C9A1E-0FCA-4B2D-8EDF-9F36CA9182A1";
shapes = (
{
closed = 1;
nodes = (
(319,-32,l),
(602,-26,o),
(796,85,o),
(796,242,cs),
(796,346,o),
(709,400,o),
(542,400,cs),
(450,400,o),
(330,383,o),
(194,352,c),
(198,333,l),
(336,364,o),
(454,380,o),
(542,380,cs),
(698,380,o),
(776,333,o),
(776,242,cs),
(776,98,o),
(591,-6,o),
(319,-12,c)
);
},
{
closed = 1;
nodes = (
(673,568,l),
(572,568,o),
(428,581,o),
(313,600,c),
(310,580,l),
(428,561,o),
(572,548,o),
(673,548,c)
);
}
);
width = 1000;
},
{
layerId = "9E6B41AB-2970-4C41-8B35-4DBE0D296A43";
shapes = (
{
closed = 1;
nodes = (
(307,-68,l),
(637,-57,o),
(827,53,o),
(827,230,cs),
(827,352,o),
(738,412,o),
(555,412,cs),
(453,412,o),
(315,393,o),
(147,356,c),
(189,196,l),
(395,240,o),
(480,254,o),
(551,254,cs),
(619,254,o),
(643,242,o),
(643,218,cs),
(643,156,o),
(504,105,o),
(270,92,c)
);
},
{
closed = 1;
nodes = (
(710,604,l),
(575,604,o),
(404,614,o),
(282,628,c),
(262,461,l),
(418,448,o),
(590,440,o),
(710,440,c)
);
}
);
width = 1000;
},
{
layerId = "9527F797-22C1-480E-A1FE-2CDBEBE1FD4C";
shapes = (
{
closed = 1;
nodes = (
(313,-50,l),
(620,-42,o),
(812,69,o),
(812,236,cs),
(812,349,o),
(724,406,o),
(549,406,cs),
(452,406,o),
(323,388,o),
(171,354,c),
(195,259,l),
(367,296,o),
(468,311,o),
(547,311,cs),
(654,311,o),
(704,285,o),
(704,230,cs),
(704,130,o),
(541,56,o),
(295,46,c)
);
},
{
closed = 1;
nodes = (
(692,586,l),
(574,586,o),
(416,598,o),
(298,614,c),
(285,515,l),
(422,499,o),
(581,488,o),
(692,488,c)
);
}
);
width = 1000;
}
);
unicode = 12357;
},
{
color = 10;
glyphname = "e-hira";
lastChange = "2022-08-31 11:59:52 +0000";
layers = (
{
layerId = "9527F797-22C1-480E-A1FE-2CDBEBE1FD4C";
shapes = (
{
closed = 1;
nodes = (
(762,745,l),
(613,745,o),
(423,761,o),
(231,790,c),
(219,695,l),
(409,668,o),
(612,653,o),
(762,653,c)
);
},
{
closed = 1;
nodes = (
(260,39,o),
(349,115,o),
(445,192,cs),
(486,225,o),
(496,231,o),
(516,231,cs),
(631,231,o),
(530,-37,o),
(782,-37,cs),
(830,-37,o),
(899,-27,o),
(942,-15,c),
(931,77,l),
(898,68,o),
(831,59,o),
(795,59,cs),
(612,59,o),
(748,310,o),
(560,310,cs),
(526,310,o),
(506,295,o),
(500,266,c),
(536,263,l),
(623,331,o),
(709,397,o),
(796,460,c),
(796,553,l),
(123,553,l),
(123,460,l),
(680,460,l),
(680,490,l),
(484,350,o),
(290,197,o),
(94,26,c),
(158,-52,l)
);
}
);
width = 1000;
},
{
background = {
shapes = (
{
closed = 1;
nodes = (
(293,9,o),
(375,72,o),
(470,139,cs),
(500,161,o),
(507,165,o),
(515,165,cs),
(528,165,o),
(535,153,o),
(549,106,cs),
(584,-11,o),
(642,-54,o),
(768,-54,cs),
(826,-54,o),
(891,-45,o),
(943,-30,c),
(928,135,l),
(897,127,o),
(816,117,o),
(782,117,cs),
(735,117,o),
(719,136,o),
(709,204,cs),
(699,267,o),
(651,314,o),
(595,314,cs),
(529,314,o),
(491,282,o),
(491,224,c),
(586,224,l),
(667,282,o),
(747,338,o),
(823,390,c),
(823,555,l),
(113,555,l),
(113,390,l),
(603,390,l),
(603,434,l),
(436,325,o),
(252,196,o),
(78,66,c),
(189,-76,l)
);
},
{
closed = 1;
nodes = (
(793,770,l),
(647,770,o),
(432,785,o),
(219,810,c),
(199,640,l),
(407,619,o),
(645,605,o),
(793,605,c)
);
}
);
};
layerId = "9E6B41AB-2970-4C41-8B35-4DBE0D296A43";
shapes = (
{
closed = 1;
nodes = (
(793,770,l),
(647,770,o),
(432,785,o),
(219,810,c),
(199,640,l),
(407,619,o),
(645,605,o),
(793,605,c)
);
},
{
closed = 1;
nodes = (
(293,9,o),
(375,72,o),
(470,139,cs),
(500,161,o),
(507,165,o),
(515,165,cs),
(569,165,o),
(507,-54,o),
(773,-54,cs),
(828,-54,o),
(892,-45,o),
(943,-30,c),
(928,135,l),
(892,126,o),
(824,117,o),
(791,117,cs),
(643,117,o),
(775,304,o),
(595,304,cs),
(544,304,o),
(515,275,o),
(515,224,c),
(586,224,l),
(667,282,o),
(747,338,o),
(823,390,c),
(823,555,l),
(113,555,l),
(113,390,l),
(603,390,l),
(603,434,l),
(436,325,o),
(252,196,o),
(78,66,c),
(189,-76,l)
);
}
);
width = 1000;
},
{
background = {
shapes = (
{
closed = 0;
nodes = (
(406,259,l),
(460,306,o),
(478,316,o),
(517,316,cs),
(614,316,o),
(631,233,o),
(646,160,cs),
(661,87,o),
(674,0,o),
(790,0,cs),
(831,0,o),
(902,10,o),
(934,19,c)
);
}
);
};
layerId = "D65C9A1E-0FCA-4B2D-8EDF-9F36CA9182A1";
shapes = (
{
closed = 1;
nodes = (
(730,720,l),
(579,720,o),
(414,737,o),
(242,770,c),
(238,750,l),
(411,717,o),
(578,700,o),
(730,700,c)
);
},
{
closed = 1;
nodes = (
(224,69,o),
(322,158,o),
(419,244,cs),
(471,289,o),
(484,296,o),
(517,296,cs),
(692,296,o),
(553,-20,o),
(790,-20,cs),
(832,-20,o),
(906,-10,o),
(940,0,c),
(934,19,l),
(902,10,o),
(831,0,o),
(790,0,cs),
(572,0,o),
(713,316,o),
(517,316,cs),
(500,316,o),
(488,314,o),
(476,308,c),
(486,302,l),
(578,380,o),
(671,456,o),
(768,530,c),
(768,550,l),
(133,550,l),
(133,530,l),
(756,530,l),
(756,546,l),
(531,374,o),
(327,197,o),
(110,-14,c),
(124,-28,l)
);
}
);
width = 1000;
}
);
unicode = 12360;
},
{
glyphname = "esmall-hira";
lastChange = "2021-05-05 05:27:35 +0000";
layers = (
{
layerId = "9E6B41AB-2970-4C41-8B35-4DBE0D296A43";
shapes = (
{
closed = 1;
nodes = (
(460,75,ls),
(492,97,o),
(497,100,o),
(505,100,cs),
(516,100,o),
(520,94,o),
(523,77,cs),
(543,-12,o),
(597,-51,o),
(701,-51,cs),
(744,-51,o),
(795,-45,o),
(854,-32,c),
(839,120,l),
(797,112,o),
(740,106,o),
(716,106,cs),
(689,106,o),
(682,114,o),
(675,158,cs),
(667,220,o),
(631,249,o),
(564,249,cs),
(497,249,o),
(457,209,o),
(457,142,c),
(527,121,l),
(750,274,l),
(750,426,l),
(198,426,l),
(198,274,l),
(582,274,l),
(565,335,l),
(151,61,l),
(253,-67,l)
);
},
{
closed = 1;
nodes = (
(734.4,608,l),
(614.4,608,o),
(445.6,616.8,o),
(275.2,632,c),
(259,476,l),
(426,464,o),
(616,456,o),
(734,456,c)
);
}
);
width = 1000;
},
{
layerId = "9527F797-22C1-480E-A1FE-2CDBEBE1FD4C";
shapes = (
{
closed = 1;
nodes = (
(451,124,ls),
(477,144,o),
(492,153,o),
(508,153,cs),
(544,153,o),
(552,128,o),
(559,94,cs),
(575,19,o),
(610,-38,o),
(712,-38,cs),
(749,-38,o),
(808,-31,o),
(853,-20,c),
(842,72,l),
(808,64,o),
(749,57,o),
(719,57,cs),
(669,57,o),
(661,85,o),
(651,138,cs),
(638,210,o),
(601,244,o),
(537,244,cs),
(495,244,o),
(466,221,o),
(461,182,c),
(516,174,l),
(728,337,l),
(728,429,l),
(206,429,l),
(206,337,l),
(640,337,l),
(632,382,l),
(165,28,l),
(226,-49,l)
);
},
{
closed = 1;
nodes = (
(709,588,l),
(590,588,o),
(438,598,o),
(285,616,c),
(274,522,l),
(428,506,o),
(591,496,o),
(709,496,c)
);
}
);
width = 1000;
},
{
layerId = "D65C9A1E-0FCA-4B2D-8EDF-9F36CA9182A1";
shapes = (
{
closed = 1;
nodes = (
(433,174,ls),
(472,208,o),
(486,216,o),
(510,216,cs),
(571,216,o),
(582,168,o),
(594,111,cs),
(607,49,o),
(623,-24,o),
(722,-24,cs),
(754,-24,o),
(821,-17,o),
(852,-8,c),
(846,11,l),
(821,4,o),
(757,-4,o),
(722,-4,cs),
(639,-4,o),
(627,53,o),
(614,115,cs),
(602,172,o),
(587,236,o),
(510,236,cs),
(498,236,o),
(487,234,o),
(476,229,c),
(486,220,l),
(706,412,l),
(706,432,l),
(214,432,l),
(214,412,l),
(698,412,l),
(693,427,l),
(186,-15,l),
(199,-30,l)
);
},
{
closed = 1;
nodes = (
(684,568,l),
(566,568,o),
(430,579,o),
(294,600,c),
(291,580,l),
(427,559,o),
(564,548,o),
(684,548,c)
);
}
);
width = 1000;
}
);
unicode = 12359;
},
{
color = 10;
glyphname = "o-hira";
lastChange = "2022-09-01 06:26:50 +0000";
layers = (
{
background = {
shapes = (
{
attr = {
strokeHeight = 20;
strokeWidth = 20;
};
closed = 0;
nodes = (
(585,-12,l),
(744,-7,o),
(855,86,o),
(855,214,cs),
(855,359,o),
(711,455,o),
(495,455,cs),
(263,455,o),
(95,344,o),
(95,191,cs),
(95,84,o),
(180,5,o),
(295,5,cs),
(370,5,o),
(395,38,o),
(395,135,cs),
(395,805,l)
);
},
{
attr = {
strokeHeight = 20;
strokeWidth = 20;
};
closed = 0;
nodes = (
(790,715,l),
(849,635,o),
(895,549,o),
(940,435,c)
);
}
);
};
layerId = "D65C9A1E-0FCA-4B2D-8EDF-9F36CA9182A1";
shapes = (
{
closed = 1;
nodes = (
(720,655,l),
(720,675,l),
(105,675,l),
(105,655,l)
);
},
{
closed = 1;
nodes = (
(748.971,-16.849,o),
(865,80.132,o),
(865,214,cs),
(865,366.352,o),
(714.228,465,o),
(495,465,cs),
(259.795,465,o),
(85,351.378,o),
(85,191,cs),
(85,78.442,o),
(174.87,-5,o),
(295,-5,cs),
(375.57,-5,o),
(405,32.24,o),
(405,135,cs),
(405,805,l),
(385,805,l),
(385,135,ls),
(385,41.36,o),
(365.03,15,o),
(295,15,cs),
(183.93,15,o),
(105,88.358,o),
(105,191,cs),
(105,338.622,o),
(266.005,445,o),
(495,445,cs),
(707.972,445,o),
(845,353.648,o),
(845,214,cs),
(845,90.668,o),
(740.229,2.886,o),
(584.686,-2.005,c),
(585.314,-21.995,l)
);
},
{
closed = 1;
nodes = (
(949.302,438.672,l),
(904.09,553.208,o),
(857.477,640.354,o),
(798.048,720.935,c),
(781.952,709.065,l),
(840.523,629.646,o),
(885.91,544.792,o),
(930.698,431.328,c)
);
}
);
width = 1000;
},
{
layerId = "9527F797-22C1-480E-A1FE-2CDBEBE1FD4C";
shapes = (
{
closed = 1;
nodes = (
(708,613,l),
(708,700,l),
(90,700,l),
(90,613,l)
);
},
{
closed = 1;
nodes = (
(758,-40,o),
(880,69,o),
(880,219,cs),
(880,384,o),
(732,485,o),
(490,485,cs),
(231,485,o),
(60,369,o),
(60,193,cs),
(60,60,o),
(157,-30,o),
(301,-30,cs),
(409,-30,o),
(455,20,o),
(455,135,cs),
(455,810,l),
(355,810,l),
(355,143,ls),
(355,81,o),
(341,63,o),
(294,63,cs),
(213,63,o),
(160,115,o),
(160,193,cs),
(160,315,o),
(289,395,o),
(485,395,cs),
(666,395,o),
(775,328,o),
(775,216,cs),
(775,118,o),
(692,52,o),
(564,48,c),
(584,-44,l)
);
},
{
closed = 1;
nodes = (
(972,459,l),
(934,577,o),
(892,669,o),
(835,759,c),
(749,719,l),
(803,635,o),
(847,538,o),
(884,423,c)
);
}
);
width = 1000;
},
{
layerId = "9E6B41AB-2970-4C41-8B35-4DBE0D296A43";
shapes = (
{
closed = 1;
nodes = (
(695,570,l),
(695,725,l),
(75,725,l),
(75,570,l)
);
},
{
closed = 1;
nodes = (
(767,-63,o),
(895,57,o),
(895,224,cs),
(895,404,o),
(747,505,o),
(485,505,cs),
(206,505,o),
(35,387,o),
(35,194,cs),
(35,40,o),
(139,-55,o),
(307,-55,cs),
(441,-55,o),
(505,6,o),
(505,135,cs),
(505,815,l),
(325,815,l),
(325,150,ls),
(325,120,o),
(317,110,o),
(292,110,cs),
(244,110,o),
(215,142,o),
(215,195,cs),
(215,291,o),
(309,345,o),
(475,345,cs),
(625,345,o),
(705,300,o),
(705,217,cs),
(705,145,o),
(645,101,o),
(543,98,c),
(583,-67,l)
);
},
{
closed = 1;
nodes = (
(995,480,l),
(964,600,o),
(926,698,o),
(872,798,c),
(712,735,l),
(762,646,o),
(804,538,o),
(834,421,c)
);
}
);
width = 1000;
}
);
unicode = 12362;
},
{
glyphname = "osmall-hira";
lastChange = "2021-05-05 05:27:35 +0000";
layers = (
{
layerId = "D65C9A1E-0FCA-4B2D-8EDF-9F36CA9182A1";
shapes = (
{
closed = 1;
nodes = (
(568,-26,l),
(700,-22,o),
(792,54,o),
(792,157,cs),
(792,272,o),
(677,348,o),
(504,348,cs),
(315,348,o),
(168,256,o),
(168,137,cs),
(168,53,o),
(241,-12,o),
(336,-12,cs),
(401,-12,o),
(426,19,o),
(426,100,cs),
(426,636,l),
(406,636,l),
(406,329,l),
(406,329,l),
(406,100,ls),
(406,30,o),
(389,8,o),
(336,8,cs),
(252,8,o),
(188,64,o),
(188,137,cs),
(188,243,o),
(326,328,o),
(504,328,cs),
(666,328,o),
(772,259,o),
(772,157,cs),
(772,65,o),
(688,-2,o),
(567,-6,c)
);
},
{
closed = 1;
nodes = (
(676,498,l),
(676,518,l),
(184,518,l),
(184,498,l)
);
},
{
closed = 1;
nodes = (
(858,409,l),
(818,467,o),
(774,516,o),
(722,562,c),
(709,547,l),
(761,501,o),
(803,453,o),
(842,398,c)
);
}
);
width = 1000;
},
{
layerId = "9527F797-22C1-480E-A1FE-2CDBEBE1FD4C";
shapes = (
{
closed = 1;
nodes = (
(572,-44,l),
(711,-38,o),
(804,45,o),
(804,161,cs),
(804,288,o),
(693,364,o),
(508,364,cs),
(300,364,o),
(148,269,o),
(148,137,cs),
(148,40,o),
(232,-32,o),
(346,-32,cs),
(435,-32,o),
(478,10,o),
(478,100,cs),
(478,640,l),
(380,640,l),
(380,314,l),
(380,314,l),
(380,117,ls),
(380,71,o),
(369,55,o),
(335,55,cs),
(284,55,o),
(246,90,o),
(246,135,cs),
(246,213,o),
(359,274,o),
(504,274,cs),
(628,274,o),
(702,231,o),
(702,159,cs),
(702,95,o),
(644,52,o),
(553,48,c)
);
},
{
closed = 1;
nodes = (
(661,457,l),
(661,545,l),
(172,545,l),
(172,457,l)
);
},
{
closed = 1;
nodes = (
(882,410,l),
(849,479,o),
(812,536,o),
(764,591,c),
(686,538,l),
(731,485,o),
(769,428,o),
(799,367,c)
);
}
);
width = 1000;
},
{
layerId = "9E6B41AB-2970-4C41-8B35-4DBE0D296A43";
shapes = (
{
closed = 1;
nodes = (
(576,-62,l),
(721,-54,o),
(816,35,o),
(816,165,cs),
(816,304,o),
(709,380,o),
(512,380,cs),
(284,380,o),
(128,282,o),
(128,137,cs),
(128,26,o),
(222,-52,o),
(355,-52,cs),
(465,-52,o),
(524,1,o),
(524,100,cs),
(524,644,l),
(360,644,l),
(360,299,l),
(370,299,l),
(370,122,ls),
(370,100,o),
(361,90,o),
(340,90,cs),
(311,90,o),
(292,108,o),
(292,135,cs),
(292,190,o),
(383,232,o),
(504,232,cs),
(597,232,o),
(644,208,o),
(644,160,cs),
(644,118,o),
(607,93,o),
(540,90,c)
);
},
{
closed = 1;
nodes = (
(646,422,l),
(646,566,l),
(160,566,l),
(160,422,l)
);
},
{
closed = 1;
nodes = (
(905,411,l),
(879,491,o),
(849,555,o),
(806,619,c),
(664,550,l),
(703,491,o),
(736,423,o),
(758,355,c)
);
}
);
width = 1000;
}
);
unicode = 12361;
},
{
color = 10;
glyphname = "ka-hira";
lastChange = "2022-08-01 05:36:36 +0000";
layers = (
{
layerId = "D65C9A1E-0FCA-4B2D-8EDF-9F36CA9182A1";
shapes = (
{
closed = 1;
nodes = (
(119,-14,l),
(235,264,o),
(292,489,o),
(331,822,c),
(311,824,l),
(272,493,o),
(216,270,o),
(101,-6,c)
);
},
{
closed = 1;
nodes = (
(655,0,o),
(718,146,o),
(718,401,cs),
(718,602,o),
(679,654,o),
(529,654,cs),
(80,654,l),
(80,634,l),
(529,634,ls),
(669,634,o),
(698,595,o),
(698,401,cs),
(698,150,o),
(642,20,o),
(546,20,cs),
(500,20,o),
(391,48,o),
(304,83,c),
(297,64,l),
(385,29,o),
(497,0,o),
(546,0,cs)
);
},
{
closed = 1;
nodes = (
(970,192,l),
(932,368,o),
(840,602,o),
(750,755,c),
(733,745,l),
(822,593,o),
(913,362,o),
(950,188,c)
);
}
);
width = 1000;
},
{
layerId = "9527F797-22C1-480E-A1FE-2CDBEBE1FD4C";
shapes = (
{
closed = 1;
nodes = (
(170,-42,l),
(283,279,o),
(331,485,o),
(368,817,c),
(264,825,l),
(223,483,o),
(182,303,o),
(72,-14,c)
);
},
{
closed = 1;
nodes = (
(677,-20,o),
(729,94,o),
(729,371,cs),
(729,620,o),
(688,672,o),
(490,672,cs),
(60,672,l),
(60,580,l),
(500,580,ls),
(605,580,o),
(624,550,o),
(624,383,cs),
(624,169,o),
(594,80,o),
(521,80,cs),
(487,80,o),
(405,99,o),
(332,123,c),
(306,31,l),
(393,1,o),
(494,-20,o),
(549,-20,cs)
);
},
{
closed = 1;
nodes = (
(993,198,l),
(963,369,o),
(894,591,o),
(823,752,c),
(723,724,l),
(795,569,o),
(865,342,o),
(893,176,c)
);
}
);
width = 1000;
},
{
layerId = "9E6B41AB-2970-4C41-8B35-4DBE0D296A43";
name = Black;
shapes = (
{
closed = 1;
nodes = (
(220,-70,l),
(327,281,o),
(367,471,o),
(404,814,c),
(218,826,l),
(174,462,o),
(146,328,o),
(42,-22,c)
);
},
{
closed = 1;
nodes = (
(693,-40,o),
(740,54,o),
(740,340,cs),
(740,657,o),
(713,690,o),
(450,690,cs),
(40,690,l),
(40,525,l),
(470,525,ls),
(536,525,o),
(550,497,o),
(550,365,cs),
(550,168,o),
(541,130,o),
(495,130,cs),
(470,130,o),
(417,139,o),
(355,155,c),
(315,0,l),
(389,-23,o),
(491,-40,o),
(552,-40,cs)
);
},
{
closed = 1;
nodes = (
(1015,202,l),
(992,374,o),
(945,584,o),
(895,746,c),
(715,702,l),
(764,556,o),
(814,335,o),
(835,164,c)
);
}
);
width = 1000;
}
);
unicode = 12363;
},
{
color = 10;
glyphname = "ga-hira";
lastChange = "2022-08-03 06:59:58 +0000";
layers = (
{
background = {
shapes = (
{
alignment = -1;
pos = (-30,-10);
ref = "ka-hira";
},
{
alignment = -1;
pos = (-40,20);
ref = "_voicedcomb-kana_ORG";
}
);
};
layerId = "D65C9A1E-0FCA-4B2D-8EDF-9F36CA9182A1";
shapes = (
{
closed = 1;
nodes = (
(89,-24,l),
(205,254,o),
(262,479,o),
(301,812,c),
(281,814,l),
(242,483,o),
(186,260,o),
(71,-16,c)
);
},
{
closed = 1;
nodes = (
(625,-10,o),
(688,136,o),
(688,391,cs),
(688,592,o),
(649,644,o),
(499,644,cs),
(50,644,l),
(50,624,l),
(499,624,ls),
(639,624,o),
(668,585,o),
(668,391,cs),
(668,140,o),
(612,10,o),
(516,10,cs),
(470,10,o),
(361,38,o),
(274,73,c),
(267,54,l),
(355,19,o),
(467,-10,o),
(516,-10,cs)
);
},
{
closed = 1;
nodes = (
(940,182,l),
(902,360,o),
(808,597,o),
(717,750,c),
(858,520,l),
(805,500,l),
(700,740,l),
(790,588,o),
(883,354,o),
(920,178,c)
);
},
{
closed = 1;
nodes = (
(810,566,l),
(779,650,o),
(732,737,o),
(678,810,c),
(662,798,l),
(715,726,o),
(761,642,o),
(791,559,c)
);
},
{
closed = 1;
nodes = (
(980,636,l),
(949,720,o),
(902,807,o),
(848,880,c),
(832,868,l),
(885,796,o),
(931,712,o),
(961,629,c)
);
}
);
width = 1000;
},
{
associatedMasterId = "D65C9A1E-0FCA-4B2D-8EDF-9F36CA9182A1";
attr = {
axisRules = (
{
min = 632;
}
);
};
background = {
shapes = (
{
alignment = -1;
pos = (-30,-10);
ref = "ka-hira";
},
{
alignment = -1;
pos = (-40,20);
ref = "_voicedcomb-kana_ORG";
}
);
};
layerId = "2F96459B-157D-49DD-A6F4-1E3DEE33A0FC";
name = "Aug 3, 22 15:52";
shapes = (
{
closed = 1;
nodes = (
(89,-24,l),
(205,254,o),
(262,479,o),
(301,812,c),
(281,814,l),
(242,483,o),
(186,260,o),
(71,-16,c)
);
},
{
closed = 1;
nodes = (
(625,-10,o),
(688,136,o),
(688,391,cs),
(688,592,o),
(649,644,o),
(499,644,cs),
(50,644,l),
(50,624,l),
(499,624,ls),
(639,624,o),
(668,585,o),
(668,391,cs),
(668,140,o),
(612,10,o),
(516,10,cs),
(470,10,o),
(361,38,o),
(274,73,c),
(267,54,l),
(355,19,o),
(467,-10,o),
(516,-10,cs)
);
},
{
closed = 1;
nodes = (
(940,182,l),
(902,360,o),
(808,597,o),
(717,750,c),
(858,520,l),
(805,500,l),
(700,740,l),
(790,588,o),
(883,354,o),
(920,178,c)
);
},
{
closed = 1;
nodes = (
(810,566,l),
(779,650,o),
(732,737,o),
(678,810,c),
(662,798,l),
(715,726,o),
(761,642,o),
(791,559,c)
);
},
{
closed = 1;
nodes = (
(980,636,l),
(949,720,o),
(902,807,o),
(848,880,c),
(832,868,l),
(885,796,o),
(931,712,o),
(961,629,c)
);
}
);
width = 1000;
},
{
background = {
shapes = (
{
alignment = -1;
pos = (-30,-10);
ref = "ka-hira";
},
{
alignment = -1;
pos = (0,20);
ref = "_voicedcomb-kana_ORG";
}
);
};
layerId = "9527F797-22C1-480E-A1FE-2CDBEBE1FD4C";
shapes = (
{
closed = 1;
nodes = (
(140,-52,l),
(253,269,o),
(301,475,o),
(338,807,c),
(234,815,l),
(193,473,o),
(152,293,o),
(42,-24,c)
);
},
{
closed = 1;
nodes = (
(647,-30,o),
(699,84,o),
(699,361,cs),
(699,610,o),
(658,662,o),
(460,662,cs),
(30,662,l),
(30,570,l),
(470,570,ls),
(575,570,o),
(594,540,o),
(594,373,cs),
(594,159,o),
(564,70,o),
(491,70,cs),
(457,70,o),
(375,89,o),
(302,113,c),
(276,21,l),
(363,-9,o),
(464,-30,o),
(519,-30,cs)
);
},
{
closed = 1;
nodes = (
(963,173,l),
(931,354,o),
(856,591,o),
(781,754,c),
(930,539,l),
(727,486,l),
(681,725,l),
(757,570,o),
(833,327,o),
(863,151,c)
);
},
{
closed = 1;
nodes = (
(848,580,l),
(816,663,o),
(768,748,o),
(712,820,c),
(624,766,l),
(679,690,o),
(721,620,o),
(756,534,c)
);
},
{
closed = 1;
nodes = (
(1020,636,l),
(989,720,o),
(942,807,o),
(888,880,c),
(804,832,l),
(860,754,o),
(899,682,o),
(932,598,c)
);
}
);
width = 1000;
},
{
associatedMasterId = "9527F797-22C1-480E-A1FE-2CDBEBE1FD4C";
attr = {
axisRules = (
{
min = 632;
}
);
};
background = {
shapes = (
{
alignment = -1;
pos = (-10,-10);
ref = "ka-hira";
},
{
alignment = -1;
pos = (-60,20);
ref = "_voicedcomb-kana_ORG";
}
);
};
layerId = "DEA8EDC6-14D0-4706-A4E9-DA66A0D807F8";
name = "Aug 3, 22 15:47";
shapes = (
{
closed = 1;
nodes = (
(160,-52,l),
(273,269,o),
(321,475,o),
(358,807,c),
(254,815,l),
(213,473,o),
(172,293,o),
(62,-24,c)
);
},
{
closed = 1;
nodes = (
(667,-30,o),
(719,84,o),
(719,361,cs),
(719,610,o),
(678,662,o),
(480,662,cs),
(50,662,l),
(50,570,l),
(490,570,ls),
(595,570,o),
(614,540,o),
(614,373,cs),
(614,159,o),
(584,70,o),
(511,70,cs),
(477,70,o),
(395,89,o),
(322,113,c),
(296,21,l),
(383,-9,o),
(484,-30,o),
(539,-30,cs)
);
},
{
closed = 1;
nodes = (
(983,173,l),
(951,354,o),
(876,591,o),
(801,754,c),
(950,569,l),
(747,516,l),
(701,725,l),
(777,570,o),
(853,327,o),
(883,151,c)
);
},
{
closed = 1;
nodes = (
(788,580,l),
(756,663,o),
(708,748,o),
(652,820,c),
(564,766,l),
(619,690,o),
(661,620,o),
(696,534,c)
);
},
{
closed = 1;
nodes = (
(960,636,l),
(929,720,o),
(882,807,o),
(828,880,c),
(744,832,l),
(800,754,o),
(839,682,o),
(872,598,c)
);
}
);
width = 1000;
},
{
background = {
shapes = (
{
alignment = -1;
pos = (-20,-10);
ref = "ka-hira";
},
{
alignment = -1;
pos = (30,20);
ref = "_voicedcomb-kana_ORG";
}
);
};
layerId = "9E6B41AB-2970-4C41-8B35-4DBE0D296A43";
shapes = (
{
closed = 1;
nodes = (
(200,-80,l),
(307,271,o),
(347,461,o),
(384,804,c),
(198,816,l),
(154,452,o),
(126,318,o),
(22,-32,c)
);
},
{
closed = 1;
nodes = (
(643,-50,o),
(690,44,o),
(690,330,cs),
(690,647,o),
(663,680,o),
(400,680,cs),
(20,680,l),
(20,515,l),
(420,515,ls),
(486,515,o),
(500,487,o),
(500,355,cs),
(500,158,o),
(491,120,o),
(445,120,cs),
(423,120,o),
(380,130,o),
(335,145,c),
(295,-10,l),
(333,-30,o),
(437,-50,o),
(502,-50,cs)
);
},
{
closed = 1;
nodes = (
(995,162,l),
(970,353,o),
(915,590,o),
(859,757,c),
(1012,557,l),
(658,471,l),
(679,707,l),
(733,565,o),
(792,314,o),
(815,124,c)
);
},
{
closed = 1;
nodes = (
(868,582,l),
(835,663,o),
(785,748,o),
(728,820,c),
(592,748,l),
(651,666,o),
(688,603,o),
(730,512,c)
);
},
{
closed = 1;
nodes = (
(1050,636,l),
(1019,720,o),
(972,807,o),
(918,880,c),
(782,812,l),
(842,725,o),
(877,662,o),
(914,574,c)
);
}
);
width = 1000;
},
{
associatedMasterId = "9E6B41AB-2970-4C41-8B35-4DBE0D296A43";
attr = {
axisRules = (
{
min = 632;
}
);
};
background = {
shapes = (
{
alignment = -1;
pos = (-10,-10);
ref = "ka-hira";
},
{
alignment = -1;
pos = (10,20);
ref = "_voicedcomb-kana_ORG";
}
);
};
layerId = "57E2DDAC-6FD5-4C1B-87D0-79AF9F8D3A05";
name = "Aug 3, 22 15:52";
shapes = (
{
closed = 1;
nodes = (
(210,-80,l),
(317,271,o),
(357,461,o),
(394,804,c),
(208,816,l),
(164,452,o),
(136,318,o),
(32,-32,c)
);
},
{
closed = 1;
nodes = (
(683,-50,o),
(730,44,o),
(730,330,cs),
(730,647,o),
(703,680,o),
(440,680,cs),
(30,680,l),
(30,515,l),
(460,515,ls),
(526,515,o),
(540,487,o),
(540,355,cs),
(540,158,o),
(531,120,o),
(485,120,cs),
(460,120,o),
(407,129,o),
(345,145,c),
(305,-10,l),
(379,-33,o),
(481,-50,o),
(542,-50,cs)
);
},
{
closed = 1;
nodes = (
(1005,162,l),
(980,353,o),
(925,590,o),
(869,757,c),
(1022,557,l),
(668,471,l),
(689,707,l),
(743,565,o),
(802,314,o),
(825,124,c)
);
},
{
closed = 1;
nodes = (
(828,582,l),
(795,663,o),
(745,748,o),
(688,820,c),
(552,748,l),
(611,666,o),
(648,603,o),
(690,512,c)
);
},
{
closed = 1;
nodes = (
(1030,636,l),
(999,720,o),
(952,807,o),
(898,880,c),
(762,812,l),
(822,725,o),
(857,662,o),
(894,574,c)
);
}
);
width = 1000;
}
);
unicode = 12364;
},
{
color = 10;
glyphname = "ki-hira";
lastChange = "2022-07-20 08:40:03 +0000";
layers = (
{
layerId = "D65C9A1E-0FCA-4B2D-8EDF-9F36CA9182A1";
shapes = (
{
closed = 1;
nodes = (
(870,655,l),
(870,675,l),
(130,655,l),
(130,635,l)
);
},
{
closed = 1;
nodes = (
(880,435,l),
(880,455,l),
(120,435,l),
(120,415,l)
);
},
{
closed = 1;
nodes = (
(729,165,l),
(634,385,o),
(595,553,o),
(580,811,c),
(560,809,l),
(575,549,o),
(615,379,o),
(711,157,c)
);
},
{
closed = 1;
nodes = (
(633,-30,o),
(779,-16,o),
(871,3,c),
(867,23,l),
(776,4,o),
(632,-10,o),
(527,-10,cs),
(302,-10,o),
(173,48,o),
(170,139,cs),
(168,197,o),
(220,255,o),
(314,296,c),
(306,314,l),
(208,272,o),
(148,204,o),
(150,138,cs),
(153,35,o),
(298,-30,o),
(527,-30,cs)
);
}
);
width = 1000;
},
{
layerId = "9E6B41AB-2970-4C41-8B35-4DBE0D296A43";
shapes = (
{
closed = 1;
nodes = (
(900,572,l),
(900,727,l),
(100,707,l),
(100,552,l)
);
},
{
closed = 1;
nodes = (
(910,350,l),
(910,505,l),
(90,485,l),
(90,330,l)
);
},
{
closed = 1;
nodes = (
(805,200,l),
(713,409,o),
(661,618,o),
(650,825,c),
(460,815,l),
(473,597,o),
(529,354,o),
(610,160,c)
);
},
{
closed = 1;
nodes = (
(659,-70,o),
(781,-57,o),
(884,-33,c),
(859,131,l),
(749,108,o),
(620,94,o),
(519,94,cs),
(386,94,o),
(320,118,o),
(320,166,cs),
(320,192,o),
(339,227,o),
(369,255,c),
(188,299,l),
(143,267,o),
(113,206,o),
(113,148,cs),
(113,12,o),
(278,-70,o),
(550,-70,cs)
);
}
);
width = 1000;
},
{
background = {
shapes = (
{
closed = 1;
nodes = (
(646,-50,o),
(780,-36,o),
(878,-15,c),
(863,77,l),
(763,56,o),
(626,42,o),
(523,42,cs),
(344,42,o),
(247,83,o),
(245,153,cs),
(244,195,o),
(280,241,o),
(342,276,c),
(247,307,l),
(176,270,o),
(131,205,o),
(132,143,cs),
(133,24,o),
(288,-50,o),
(539,-50,cs)
);
},
{
closed = 1;
nodes = (
(895,393,l),
(895,480,l),
(105,460,l),
(105,373,l)
);
},
{
closed = 1;
nodes = (
(767,183,l),
(674,397,o),
(628,586,o),
(615,818,c),
(510,812,l),
(524,573,o),
(572,367,o),
(661,159,c)
);
},
{
closed = 1;
nodes = (
(885,614,l),
(885,701,l),
(115,681,l),
(115,594,l)
);
},
{
closed = 1;
nodes = (
(652,-50,o),
(763,-38,o),
(858,-15,c),
(843,77,l),
(751,55,o),
(638,42,o),
(540,42,cs),
(365,42,o),
(267,80,o),
(265,149,cs),
(264,185,o),
(290,212,o),
(355,241,c),
(296,316,l),
(205,276,o),
(152,212,o),
(152,142,cs),
(152,24,o),
(304,-50,o),
(547,-50,cs)
);
}
);
};
layerId = "9527F797-22C1-480E-A1FE-2CDBEBE1FD4C";
shapes = (
{
closed = 1;
nodes = (
(885,614,l),
(885,701,l),
(115,681,l),
(115,594,l)
);
},
{
closed = 1;
nodes = (
(895,393,l),
(895,480,l),
(105,460,l),
(105,373,l)
);
},
{
closed = 1;
nodes = (
(767,183,l),
(674,397,o),
(628,586,o),
(615,818,c),
(510,812,l),
(524,573,o),
(572,367,o),
(661,159,c)
);
},
{
closed = 1;
nodes = (
(644,-50,o),
(778,-36,o),
(878,-15,c),
(863,77,l),
(770,57,o),
(628,42,o),
(525,42,cs),
(350,42,o),
(246,84,o),
(244,155,cs),
(243,190,o),
(268,214,o),
(335,242,c),
(276,317,l),
(186,277,o),
(132,211,o),
(132,141,cs),
(132,23,o),
(287,-50,o),
(536,-50,cs)
);
}
);
width = 1000;
}
);
unicode = 12365;
},
{
color = 10;
glyphname = "gi-hira";
lastChange = "2022-07-20 08:39:59 +0000";
layers = (
{
background = {
shapes = (
{
alignment = -1;
pos = (-20,-10);
ref = "ki-hira";
},
{
alignment = -1;
ref = "_voicedcomb-kana_ORG";
}
);
};
layerId = "D65C9A1E-0FCA-4B2D-8EDF-9F36CA9182A1";
shapes = (
{
closed = 1;
nodes = (
(859,645,l),
(720,636,l),
(720,674,l),
(859,665,l),
(110,645,l),
(110,625,l)
);
},
{
closed = 1;
nodes = (
(860,425,l),
(860,445,l),
(100,425,l),
(100,405,l)
);
},
{
closed = 1;
nodes = (
(709,155,l),
(601,375,o),
(557,543,o),
(540,801,c),
(520,800,l),
(537,540,o),
(582,368,o),
(691,146,c)
);
},
{
closed = 1;
nodes = (
(613,-40,o),
(759,-26,o),
(851,-7,c),
(847,13,l),
(756,-6,o),
(612,-20,o),
(507,-20,cs),
(282,-20,o),
(153,38,o),
(150,129,cs),
(148,187,o),
(200,245,o),
(294,286,c),
(286,304,l),
(188,262,o),
(128,194,o),
(130,128,cs),
(133,25,o),
(278,-40,o),
(507,-40,cs)
);
},
{
closed = 1;
nodes = (
(850,546,l),
(819,630,o),
(772,717,o),
(718,790,c),
(702,778,l),
(755,706,o),
(801,622,o),
(831,539,c)
);
},
{
closed = 1;
nodes = (
(1020,616,l),
(989,700,o),
(942,787,o),
(888,860,c),
(872,848,l),
(925,776,o),
(971,692,o),
(1001,609,c)
);
}
);
width = 1000;
},
{
background = {
shapes = (
{
alignment = -1;
pos = (-20,-10);
ref = "ki-hira";
},
{
alignment = -1;
pos = (20,20);
ref = "_voicedcomb-kana_flat_slim_short";
}
);
};
layerId = "9527F797-22C1-480E-A1FE-2CDBEBE1FD4C";
shapes = (
{
closed = 1;
nodes = (
(914,605,l),
(715,555,l),
(715,740,l),
(914,692,l),
(95,671,l),
(95,584,l)
);
},
{
closed = 1;
nodes = (
(875,383,l),
(875,470,l),
(85,450,l),
(85,363,l)
);
},
{
closed = 1;
nodes = (
(747,173,l),
(635,389,o),
(581,578,o),
(565,808,c),
(460,802,l),
(477,563,o),
(534,357,o),
(641,149,c)
);
},
{
closed = 1;
nodes = (
(624,-60,o),
(758,-46,o),
(858,-25,c),
(843,67,l),
(750,47,o),
(608,32,o),
(505,32,cs),
(330,32,o),
(226,74,o),
(224,145,cs),
(223,180,o),
(248,204,o),
(315,232,c),
(256,307,l),
(166,267,o),
(112,201,o),
(112,131,cs),
(112,13,o),
(267,-60,o),
(516,-60,cs)
);
},
{
closed = 1;
nodes = (
(865,644,l),
(859,718,o),
(838,798,o),
(806,870,c),
(716,844,l),
(747,769,o),
(764,700,o),
(773,622,c)
);
},
{
closed = 1;
nodes = (
(1040,653,l),
(1035,727,o),
(1016,809,o),
(986,880,c),
(896,856,l),
(926,779,o),
(943,712,o),
(950,635,c)
);
}
);
width = 1000;
},
{
layerId = "9E6B41AB-2970-4C41-8B35-4DBE0D296A43";
shapes = (
{
closed = 1;
nodes = (
(980,564,l),
(890,472,l),
(890,807,l),
(980,719,l),
(90,697,l),
(90,542,l)
);
},
{
closed = 1;
nodes = (
(900,340,l),
(900,495,l),
(80,475,l),
(80,320,l)
);
},
{
closed = 1;
nodes = (
(785,190,l),
(668,401,o),
(603,610,o),
(590,815,c),
(400,805,l),
(416,588,o),
(486,345,o),
(590,150,c)
);
},
{
closed = 1;
nodes = (
(649,-80,o),
(771,-67,o),
(874,-43,c),
(849,121,l),
(739,98,o),
(610,84,o),
(509,84,cs),
(376,84,o),
(310,108,o),
(310,156,cs),
(310,182,o),
(329,217,o),
(359,245,c),
(178,289,l),
(133,257,o),
(103,196,o),
(103,138,cs),
(103,2,o),
(268,-80,o),
(540,-80,cs)
);
},
{
closed = 1;
nodes = (
(826,640,l),
(818,715,o),
(794,797,o),
(761,870,c),
(613,834,l),
(645,752,o),
(663,691,o),
(676,606,c)
);
},
{
closed = 1;
nodes = (
(1030,647,l),
(1024,723,o),
(1005,807,o),
(974,880,c),
(826,848,l),
(858,761,o),
(874,701,o),
(884,619,c)
);
}
);
width = 1000;
},
{
associatedMasterId = "9E6B41AB-2970-4C41-8B35-4DBE0D296A43";
attr = {
axisRules = (
{
min = 499;
}
);
};
background = {
shapes = (
{
alignment = -1;
pos = (-10,-10);
ref = "ki-hira";
},
{
alignment = -1;
pos = (10,20);
ref = "_voicedcomb-kana_flat_slim_short";
}
);
};
layerId = "466B3B2C-A6A5-4EEE-A94B-9365EDAB0669";
name = "[499]";
shapes = (
{
closed = 1;
nodes = (
(890,562,l),
(890,717,l),
(90,697,l),
(90,542,l)
);
},
{
closed = 1;
nodes = (
(900,340,l),
(900,495,l),
(80,475,l),
(80,320,l)
);
},
{
closed = 1;
nodes = (
(785,190,l),
(668,401,o),
(603,610,o),
(590,815,c),
(400,805,l),
(416,588,o),
(486,345,o),
(590,150,c)
);
},
{
closed = 1;
nodes = (
(649,-80,o),
(771,-67,o),
(874,-43,c),
(849,121,l),
(739,98,o),
(610,84,o),
(509,84,cs),
(376,84,o),
(310,108,o),
(310,156,cs),
(310,182,o),
(329,217,o),
(359,245,c),
(178,289,l),
(133,257,o),
(103,196,o),
(103,138,cs),
(103,2,o),
(268,-80,o),
(540,-80,cs)
);
},
{
closed = 1;
nodes = (
(826,640,l),
(818,715,o),
(794,797,o),
(761,870,c),
(613,834,l),
(645,752,o),
(663,691,o),
(676,606,c)
);
},
{
closed = 1;
nodes = (
(1030,647,l),
(1024,723,o),
(1005,807,o),
(974,880,c),
(826,848,l),
(858,761,o),
(874,701,o),
(884,619,c)
);
}
);
width = 1000;
},
{
associatedMasterId = "9527F797-22C1-480E-A1FE-2CDBEBE1FD4C";
attr = {
axisRules = (
{
min = 499;
}
);
};
background = {
shapes = (
{
alignment = -1;
pos = (-10,-10);
ref = "ki-hira";
},
{
alignment = -1;
pos = (-60,20);
ref = "_voicedcomb-kana_flat_slim_short";
}
);
};
layerId = "934AC242-4681-4BB5-9E7A-1BDCABBA03CD";
name = "Medium [499‹wg] Jul 20, 22 17:36";
shapes = (
{
closed = 1;
nodes = (
(875,604,l),
(875,691,l),
(105,671,l),
(105,584,l)
);
},
{
closed = 1;
nodes = (
(885,383,l),
(885,470,l),
(95,450,l),
(95,363,l)
);
},
{
closed = 1;
nodes = (
(757,173,l),
(651,389,o),
(600,578,o),
(585,808,c),
(480,802,l),
(496,563,o),
(550,357,o),
(651,149,c)
);
},
{
closed = 1;
nodes = (
(634,-60,o),
(768,-46,o),
(868,-25,c),
(853,67,l),
(760,47,o),
(618,32,o),
(515,32,cs),
(340,32,o),
(236,74,o),
(234,145,cs),
(233,180,o),
(258,204,o),
(325,232,c),
(266,307,l),
(176,267,o),
(122,201,o),
(122,131,cs),
(122,13,o),
(277,-60,o),
(526,-60,cs)
);
},
{
closed = 1;
nodes = (
(785,644,l),
(779,718,o),
(758,798,o),
(726,870,c),
(636,844,l),
(667,769,o),
(684,700,o),
(693,622,c)
);
},
{
closed = 1;
nodes = (
(960,653,l),
(955,727,o),
(936,809,o),
(906,880,c),
(816,856,l),
(846,779,o),
(863,712,o),
(870,635,c)
);
}
);
width = 1000;
},
{
associatedMasterId = "D65C9A1E-0FCA-4B2D-8EDF-9F36CA9182A1";
attr = {
axisRules = (
{
min = 499;
}
);
};
background = {
shapes = (
{
closed = 1;
nodes = (
(750,642,l),
(750,662,l),
(110,645,l),
(110,625,l)
);
},
{
closed = 1;
nodes = (
(860,425,l),
(860,445,l),
(100,425,l),
(100,405,l)
);
},
{
closed = 1;
nodes = (
(709,155,l),
(601,375,o),
(557,543,o),
(540,801,c),
(520,800,l),
(537,540,o),
(582,368,o),
(691,146,c)
);
},
{
closed = 1;
nodes = (
(613,-40,o),
(759,-26,o),
(851,-7,c),
(847,13,l),
(756,-6,o),
(612,-20,o),
(507,-20,cs),
(282,-20,o),
(153,38,o),
(150,129,cs),
(148,187,o),
(200,245,o),
(294,286,c),
(286,304,l),
(188,262,o),
(128,194,o),
(130,128,cs),
(133,25,o),
(278,-40,o),
(507,-40,cs)
);
},
{
closed = 1;
nodes = (
(850,546,l),
(819,630,o),
(772,717,o),
(718,790,c),
(702,778,l),
(755,706,o),
(801,622,o),
(831,539,c)
);
},
{
closed = 1;
nodes = (
(1020,616,l),
(989,700,o),
(942,787,o),
(888,860,c),
(872,848,l),
(925,776,o),
(971,692,o),
(1001,609,c)
);
}
);
};
layerId = "AA8C4B3A-5161-4427-B48C-4C192696FA61";
name = "Thin [499‹wg] Jul 20, 22 17:38";
shapes = (
{
closed = 1;
nodes = (
(720,641,l),
(720,661,l),
(110,645,l),
(110,625,l)
);
},
{
closed = 1;
nodes = (
(860,425,l),
(860,445,l),
(100,425,l),
(100,405,l)
);
},
{
closed = 1;
nodes = (
(709,155,l),
(601,375,o),
(557,543,o),
(540,801,c),
(520,800,l),
(537,540,o),
(582,368,o),
(691,146,c)
);
},
{
closed = 1;
nodes = (
(613,-40,o),
(759,-26,o),
(851,-7,c),
(847,13,l),
(756,-6,o),
(612,-20,o),
(507,-20,cs),
(282,-20,o),
(153,38,o),
(150,129,cs),
(148,187,o),
(200,245,o),
(294,286,c),
(286,304,l),
(188,262,o),
(128,194,o),
(130,128,cs),
(133,25,o),
(278,-40,o),
(507,-40,cs)
);
},
{
closed = 1;
nodes = (
(850,546,l),
(819,630,o),
(772,717,o),
(718,790,c),
(702,778,l),
(755,706,o),
(801,622,o),
(831,539,c)
);
},
{
closed = 1;
nodes = (
(1020,616,l),
(989,700,o),
(942,787,o),
(888,860,c),
(872,848,l),
(925,776,o),
(971,692,o),
(1001,609,c)
);
}
);
width = 1000;
}
);
unicode = 12366;
},
{
color = 10;
glyphname = "ku-hira";
lastChange = "2022-07-21 09:10:42 +0000";
layers = (
{
background = {
shapes = (
{
attr = {
strokeHeight = 20;
strokePos = "1";
strokeWidth = 20;
};
closed = 0;
nodes = (
(773,778,l),
(600,666,o),
(450,579,o),
(257,476,cs),
(146,419,o),
(130,406,o),
(130,371,cs),
(130,339,o),
(148,322,o),
(238,275,cs),
(411,185,o),
(600,68,o),
(812,-78,c)
);
}
);
};
layerId = "D65C9A1E-0FCA-4B2D-8EDF-9F36CA9182A1";
shapes = (
{
closed = 1;
nodes = (
(823.344,-61.528,l),
(610.942,84.749,o),
(421,202,o),
(247.244,292.735,cs),
(160,338,o),
(150,347.621,o),
(150,371,cs),
(150,396.481,o),
(158,401,o),
(266.276,458.282,cs),
(460,560,o),
(610.458,648.945,o),
(783.869,761.211,c),
(773,778,l),
(600,666,o),
(451,578,o),
(257,476,cs),
(147,418,o),
(130,406,o),
(130,371,cs),
(130,339,o),
(148,322,o),
(238,275,cs),
(411,185,o),
(600,68,o),
(812,-78,c)
);
}
);
width = 1000;
},
{
layerId = "9E6B41AB-2970-4C41-8B35-4DBE0D296A43";
shapes = (
{
closed = 1;
nodes = (
(870,45,l),
(781,97,o),
(508,244,o),
(411,292,cs),
(307,347,o),
(300,352,o),
(300,370,cs),
(300,383,o),
(328,401,o),
(419,446,cs),
(490,481,o),
(752,605,o),
(849,655,c),
(745,810,l),
(680,773,o),
(600,731,o),
(322,588,cs),
(105,477,o),
(80,443,o),
(80,370,cs),
(80,282,o),
(116,260,o),
(324,144,cs),
(478,58,o),
(553,14,o),
(760,-110,c)
);
}
);
width = 1000;
},
{
layerId = "9527F797-22C1-480E-A1FE-2CDBEBE1FD4C";
shapes = (
{
closed = 1;
nodes = (
(847,-8,l),
(718,77,o),
(492,208,o),
(329,292,cs),
(247,334,o),
(225,352,o),
(225,371,cs),
(225,392,o),
(225,392,o),
(343,452,cs),
(542,554,o),
(715,647,o),
(816,708,c),
(758,794,l),
(621,709,o),
(498,640,o),
(290,532,cs),
(133,450,o),
(105,433,o),
(105,371,cs),
(105,320,o),
(124,295,o),
(281,210,cs),
(430,130,o),
(553,56,o),
(785,-94,c)
);
}
);
width = 1000;
}
);
unicode = 12367;
},
